<svg width="986" height="936" viewBox="0 0 986 936" fill="none" xmlns="http://www.w3.org/2000/svg">
<path opacity="0.1" d="M750.852 744.654C598.263 873.108 369.613 853.472 241.16 700.883C112.706 548.294 132.341 319.645 284.93 191.191C437.524 62.7328 666.173 82.3683 794.627 234.962C923.081 387.551 903.445 616.2 750.852 744.654Z" fill="white"/>
<path d="M517.892 798.809C700.636 798.809 848.779 650.666 848.779 467.922C848.779 285.178 700.636 137.035 517.892 137.035C335.148 137.035 187.005 285.178 187.005 467.922C187.005 650.666 335.148 798.809 517.892 798.809Z" fill="url(#paint0_linear_694_3273)"/>
<mask id="mask0_694_3273" style="mask-type:luminance" maskUnits="userSpaceOnUse" x="186" y="137" width="663" height="662">
<path d="M751.836 701.911C881.054 572.693 881.055 363.188 751.836 233.97C622.618 104.752 413.114 104.752 283.896 233.97C154.678 363.189 154.678 572.692 283.896 701.911C413.114 831.129 622.618 831.129 751.836 701.911Z" fill="white"/>
</mask>
<g mask="url(#mask0_694_3273)">
<path d="M746.865 195.932C714.087 167.678 681.996 137.127 639.22 125.148C598.93 113.865 554.927 114.15 513.368 113.754C467.695 113.32 421.419 117.11 379.295 136.132C370.319 140.188 370.874 150.312 376.021 155.893C376.88 175.799 383.649 194.937 397.177 209.914C403.739 217.175 412.101 221.728 419.116 228.337C425.639 234.478 421.786 240.74 418.947 247.857C411.333 266.932 412.825 287.152 426.232 303.374C432.011 310.365 436.661 314.551 435.555 324.192C434.493 333.443 431.248 342.462 429.496 351.601C425.952 370.049 425.585 389.703 432.591 407.413C436.033 416.117 442.276 426.792 451.154 430.766C462.317 435.763 472.557 429.254 477.342 418.826C485.076 401.986 485.235 383.538 500.545 371.072C507.893 365.09 515.816 359.649 520.953 351.466C526.558 342.529 527.562 332.361 526.915 322.073C526.447 314.633 524.738 307.154 525.226 299.685C525.81 290.676 530.314 282.498 534.22 274.546C538.184 266.478 541.612 258.59 543.273 249.711C544.943 240.789 543.446 231.244 545.933 222.5C551.195 204.019 576.538 208.359 589.621 213.602C598.515 217.165 606.891 221.858 615.524 225.986C620.294 228.27 625.17 230.196 630.056 232.204C633.827 233.749 639.079 235.352 640.871 239.393C643.333 244.96 639.427 252.999 637.8 258.363C634.826 268.139 633.228 277.684 633.875 287.92C634.445 296.991 636.825 306.126 640.798 314.319C645.317 323.642 652.97 329.971 658.367 338.517C662.529 345.107 660.052 354.14 658.623 361.213C656.586 371.304 654.804 381.37 654.008 391.649C653.187 402.247 653.235 412.888 653.906 423.495C654.611 434.671 657.001 446.215 666.097 453.689C674.078 460.245 685.119 461.631 694.935 458.995C707.038 455.746 715.526 447.533 724.849 439.63C732.555 433.098 740.984 428.81 751.297 428.612C761.947 428.405 770.193 433.773 779.864 437.23C800.784 444.704 818.671 435.347 837.134 426.121C855.939 416.721 876.641 413.771 897.078 419.55C905.276 421.868 915.811 415.442 913.377 405.829C890.256 314.464 814.978 254.64 746.865 195.932Z" fill="url(#paint1_linear_694_3273)"/>
</g>
<mask id="mask1_694_3273" style="mask-type:luminance" maskUnits="userSpaceOnUse" x="186" y="137" width="663" height="662">
<path d="M751.836 701.911C881.054 572.693 881.055 363.188 751.836 233.97C622.618 104.752 413.114 104.752 283.896 233.97C154.678 363.189 154.678 572.692 283.896 701.911C413.114 831.129 622.618 831.129 751.836 701.911Z" fill="white"/>
</mask>
<g mask="url(#mask1_694_3273)">
<path d="M803.302 616.47C782.078 605.607 758.56 598.664 739.379 584.123C720.062 569.479 708.233 546.459 682.563 541.602C657.626 536.885 640.052 555.859 631.328 577.021C626.732 588.178 623.734 600.108 621.136 611.864C618.737 622.722 617.882 634.039 615.087 644.772C612.093 656.287 606.498 657.46 595.659 659.454C584.101 661.578 574.783 666.57 566.319 674.701C562.307 678.553 558.449 683.111 553.737 686.153C549.368 688.972 544.231 689.779 539.205 690.652C528.139 692.574 518.058 694.945 508.9 701.762C502.884 706.242 497.54 714.213 490.587 717.115C483.113 720.229 482.114 703.712 481.404 699.072C479.401 685.964 479.806 673.185 480.028 659.995C480.27 645.964 477.629 633.812 472.424 620.82C462.517 596.086 464.11 570.165 466.099 544.118C467.002 532.318 450.264 525.255 443.635 536.074C439.198 543.311 419.939 533.052 412.967 532.125C409.704 531.691 406.416 531.773 403.137 532.043C401.061 532.217 397.527 533.356 395.476 532.733C394.008 532.289 395.195 533.284 394.389 531.526C393.366 529.296 393.626 525.887 393.612 523.507C393.54 509.853 393.906 497.18 387.171 484.729C381.001 473.33 369.892 460.82 356.137 459.522C341.185 458.112 332.007 469.395 324.639 480.673C316.832 492.622 306.254 497.277 294.029 503.872C281.028 510.887 271.092 519.717 263.652 532.555C257.655 542.896 252.813 554.242 241.395 559.509C230.426 564.574 217.892 565.327 206.175 567.703C193.144 570.343 180.316 574.66 170.462 583.934C166.928 587.261 165.986 591.345 166.686 595.101C165.368 599.036 166.358 603.439 168.786 607.258C184.284 631.606 199.642 656.045 215.304 680.287C230.57 703.915 247.121 726.954 269.402 744.518C290.08 760.818 315.186 770.083 340.074 777.779C367.57 786.281 395.297 794.068 423.135 801.368C435.625 804.646 448.448 808.277 461.44 805.718C473.766 803.29 484.417 796.738 495.149 790.573C518.623 777.088 542.725 763.285 567.82 753.016C579.876 748.081 591.753 746.744 604.644 745.836C618.215 744.881 630.382 741.076 642.529 734.993C655.082 728.707 667.504 722.088 679.256 714.392C690.819 706.817 700.537 697.334 710.483 687.818C720.385 678.351 731.002 668.193 744.535 664.369C754.553 661.54 765.242 662.336 775.314 664.465C798.15 669.288 819.413 679.48 842.442 683.792C852.142 685.607 857.877 674.17 854.71 666.348C845.305 643.097 825.018 627.584 803.302 616.47Z" fill="url(#paint2_linear_694_3273)"/>
</g>
<mask id="mask2_694_3273" style="mask-type:luminance" maskUnits="userSpaceOnUse" x="186" y="137" width="663" height="662">
<path d="M751.836 701.911C881.054 572.693 881.055 363.188 751.836 233.97C622.618 104.752 413.114 104.752 283.896 233.97C154.678 363.189 154.678 572.692 283.896 701.911C413.114 831.129 622.618 831.129 751.836 701.911Z" fill="white"/>
</mask>
<g mask="url(#mask2_694_3273)">
<path d="M306.303 242.121C300.191 236.226 292.616 233.334 285.157 229.597C282.477 228.255 275.148 224.591 276.674 220.719C279.542 213.457 273.864 204.723 266.105 204.284C244.563 203.077 230.567 219.85 221.509 237.399C210.448 258.831 200.358 280.972 190.919 303.162C181.282 325.824 173.08 349.018 166.46 372.748C160.353 394.643 154.202 417.329 151.469 439.934C149.992 452.163 150.557 464.465 154.579 476.163C156.109 480.62 163.665 492.366 160.758 496.919C154.168 507.26 164.848 517.979 173.982 516.057C177.473 516.661 181.166 515.965 183.716 513.397C195.25 501.785 208.817 492.82 224.445 487.717C231.199 485.51 238.344 484.593 244.553 480.962C252.032 476.588 256.121 469.443 258.081 461.201C261.108 448.465 264.816 437.105 274.496 427.714C283.747 418.739 295.199 413.028 308.042 411.623C314.921 410.869 322.197 410.28 327.667 405.428C333.673 400.108 335.489 392.591 334.876 384.842C333.683 369.735 329.652 352.48 321.869 339.396C318.059 332.989 313.459 327.326 307.501 322.792C304.705 320.663 301.335 318.394 298.197 316.786C298.101 316.738 297.203 315.951 296.575 315.589C296.72 315.241 296.903 314.816 297.212 314.411C304.691 304.581 311.923 294.519 315.143 282.372C318.924 268.12 317.369 252.791 306.303 242.121Z" fill="#DFF9FB"/>
</g>
<mask id="mask3_694_3273" style="mask-type:luminance" maskUnits="userSpaceOnUse" x="186" y="137" width="663" height="662">
<path d="M751.836 701.911C881.054 572.693 881.055 363.188 751.836 233.97C622.618 104.752 413.114 104.752 283.896 233.97C154.678 363.189 154.678 572.692 283.896 701.911C413.114 831.129 622.618 831.129 751.836 701.911Z" fill="white"/>
</mask>
<g mask="url(#mask3_694_3273)">
<path opacity="0.1" d="M214.969 677.366C214.969 677.366 450.599 833.199 658.744 562.619C866.889 292.033 514.957 113.774 514.957 113.774C514.957 113.774 994.358 126.52 870.495 593.658C746.633 1060.8 301.723 815.485 214.969 677.366Z" fill="black"/>
</g>
<mask id="mask4_694_3273" style="mask-type:luminance" maskUnits="userSpaceOnUse" x="186" y="137" width="663" height="662">
<path d="M751.836 701.911C881.054 572.693 881.055 363.188 751.836 233.97C622.618 104.752 413.114 104.752 283.896 233.97C154.678 363.189 154.678 572.692 283.896 701.911C413.114 831.129 622.618 831.129 751.836 701.911Z" fill="white"/>
</mask>
<g mask="url(#mask4_694_3273)">
<path opacity="0.1" d="M276.95 761.784C276.95 761.784 538.56 856.779 707.405 598.848C876.25 340.917 636.718 133.54 636.718 133.54C636.718 133.54 986.458 320.794 857.672 629.014C728.89 937.228 276.95 761.784 276.95 761.784Z" fill="black"/>
</g>
<g opacity="0.3">
<path d="M617.838 193.59C607.535 180.497 590.999 176.243 574.748 175.645C572.991 174.36 570.837 173.458 568.206 173.25C521.65 169.59 474.587 178.99 432.791 199.765C416.158 208.036 386.543 221.651 395.388 245.197C404.571 269.641 439.878 263.871 460.334 263.814C485.589 263.741 510.893 262.978 535.97 259.801C558.594 256.934 584.728 253.974 604.831 242.363C622.289 232.277 631.463 210.908 617.838 193.59Z" fill="white"/>
<path d="M711.069 258.874C703.205 245.211 685.94 241.571 671.514 244.405C661.08 246.452 646.461 255.254 643.641 266.483C642.879 267.517 642.096 268.535 641.435 269.636C637.191 276.675 641.343 285.414 648.807 287.76C656.054 290.039 663.427 291.435 670.963 292.381C676.998 293.134 683.255 293.646 689.319 292.941C696.445 292.11 703.731 290.054 708.65 284.448C714.951 277.264 715.839 267.164 711.069 258.874Z" fill="white"/>
<path d="M366.823 263.833C362.646 256.886 354.468 254.023 346.685 254.274C343.189 254.385 339.395 254.911 335.725 255.857C333.471 255.785 331.153 256.171 329.367 257.465C328.459 258.127 327.547 258.807 326.634 259.478C326.427 259.594 326.185 259.676 325.982 259.797C322.719 261.786 320.015 264.461 318.031 267.551C316.143 270.042 314.637 272.789 313.662 275.802C312.377 279.775 312.416 284.285 313.372 288.316C314.545 293.279 317.727 297.316 321.854 300.169C329.507 305.456 339.332 303.244 346.651 298.638C348.959 297.19 351.117 295.519 353.372 293.994C356.129 292.135 358.847 290.349 361.459 288.273C368.71 282.532 371.791 272.094 366.823 263.833Z" fill="white"/>
</g>
<mask id="mask5_694_3273" style="mask-type:luminance" maskUnits="userSpaceOnUse" x="186" y="137" width="663" height="662">
<path d="M751.836 701.911C881.054 572.693 881.055 363.188 751.836 233.97C622.618 104.752 413.114 104.752 283.896 233.97C154.678 363.189 154.678 572.692 283.896 701.911C413.114 831.129 622.618 831.129 751.836 701.911Z" fill="white"/>
</mask>
<g mask="url(#mask5_694_3273)">
<path opacity="0.1" d="M157.707 732.375C157.707 732.375 233.111 556.235 419.954 544.658C606.798 533.085 658.873 550.186 722.617 470.239C767.841 413.524 726.904 214.881 660.268 159.977C660.268 159.977 965.605 345.223 841.072 622.581C716.534 899.94 319.006 878.132 157.707 732.375Z" fill="white"/>
</g>
<path d="M10.5298 644.84C10.5298 644.84 -65.2508 482.778 189.779 424.919C189.779 424.919 67.92 501.154 137.096 600.852L10.5298 644.84Z" fill="url(#paint3_linear_694_3273)"/>
<path d="M78.4458 697.074C114.899 697.074 144.449 667.523 144.449 631.07C144.449 594.618 114.899 565.067 78.4458 565.067C41.993 565.067 12.4424 594.618 12.4424 631.07C12.4424 667.523 41.993 697.074 78.4458 697.074Z" fill="url(#paint4_linear_694_3273)"/>
<mask id="mask6_694_3273" style="mask-type:luminance" maskUnits="userSpaceOnUse" x="12" y="565" width="133" height="133">
<path d="M78.4438 697.074C114.897 697.074 144.448 667.523 144.448 631.07C144.448 594.618 114.897 565.067 78.4438 565.067C41.991 565.067 12.4404 594.618 12.4404 631.07C12.4404 667.523 41.991 697.074 78.4438 697.074Z" fill="white"/>
</mask>
<g mask="url(#mask6_694_3273)">
<path d="M42.7048 600.833C40.4212 597.502 37.4276 594.784 33.8887 592.805C27.0619 588.995 19.2357 587.991 11.6316 589.7C8.6914 590.362 5.75125 592.819 4.2594 595.368C3.49175 596.575 3.08601 597.879 2.92186 599.25C1.71969 602.195 1.38685 605.512 2.25589 608.587C3.33253 612.382 5.82378 615.892 8.89439 618.354C10.3138 619.489 11.7862 620.715 13.4035 621.589C15.1561 622.535 17.0343 623.322 18.9317 623.926C20.7857 624.515 22.765 624.698 24.6817 624.93C25.657 625.051 26.6275 625.104 27.6076 625.041C32.5128 624.722 37.4423 623.544 41.044 619.938C46.041 614.936 46.6928 606.656 42.7048 600.833Z" fill="#7ED6DF"/>
<path d="M94.9342 614.173C94.9391 613.99 94.9874 613.816 94.9826 613.627C94.8377 612.536 94.6881 611.44 94.5432 610.349C93.959 608.259 92.8969 606.443 91.3713 604.903C90.5361 604.261 89.7055 603.619 88.8751 602.972C86.9535 601.857 84.8776 601.292 82.6471 601.287C81.8263 601.364 81.0008 601.442 80.18 601.514C78.4806 601.451 76.8968 601.804 75.4242 602.576C73.8937 603.073 72.5711 603.923 71.4558 605.125C70.8137 605.956 70.1714 606.791 69.5245 607.621C68.6216 609.036 68.1341 610.566 68.0617 612.208C67.7672 613.304 67.7672 614.395 68.0617 615.486C68.1389 617.128 68.6265 618.658 69.5245 620.073C70.1666 620.908 70.8088 621.739 71.4558 622.569C72.9959 624.099 74.8112 625.157 76.9017 625.741C77.7273 625.978 78.553 626.219 79.3738 626.455C81.0153 626.972 82.6519 627.045 84.2934 626.678C85.935 626.6 87.4655 626.113 88.8801 625.215C90.3188 624.437 91.4726 623.38 92.3417 622.038C93.4328 620.845 94.1665 619.45 94.5479 617.842C94.6928 616.746 94.8425 615.655 94.9873 614.564C94.9873 614.434 94.9391 614.308 94.9342 614.173Z" fill="#7ED6DF"/>
<path d="M114.509 555.947C112.535 554.344 110.787 553.055 108.503 552.061C106.133 551.027 103.786 550.018 101.257 549.453C98.7219 548.889 96.1001 548.536 93.5074 548.42C90.8038 548.304 88.1921 548.729 85.5125 549.091C83.1516 549.41 80.6118 551.51 79.0234 553.552C77.493 554.286 76.0351 555.194 74.7798 556.541C72.023 559.501 70.6181 563.252 70.6036 567.278C70.5891 571.498 72.3755 575.23 75.055 578.373C77.9808 581.801 82.4852 583.539 86.7531 584.577C90.6445 585.523 94.6374 586.088 98.6157 586.489C102.068 586.837 105.805 586.982 109.112 585.779C111.946 584.746 114.48 583.481 116.503 581.154C119.289 577.939 120.795 574.221 120.921 569.948C121.071 564.787 118.521 559.196 114.509 555.947Z" fill="#7ED6DF"/>
<path d="M161.772 623.09C161.357 622.105 160.941 621.125 160.526 620.14C159.43 618.286 157.953 616.809 156.099 615.713C154.554 614.796 153.019 614.043 151.358 613.343C150.373 612.927 149.388 612.459 148.35 612.184C146.742 611.754 145.052 611.551 143.392 611.469C141.914 611.397 140.277 611.74 138.916 611.971C137.4 612.227 135.928 613 134.576 613.599C134.156 613.782 133.779 613.99 133.402 614.25C132.316 614.999 130.887 615.969 129.975 617.094C128.01 619.527 127.31 620.445 126.291 623.477C126.223 623.675 126.17 623.868 126.131 624.07C125.943 625.002 125.731 626.538 125.673 627.493C125.663 627.638 125.654 627.783 125.663 627.928C125.697 628.551 125.851 629.372 125.914 629.854C125.953 630.154 126.03 631.143 126.18 631.708C126.479 632.848 127.247 634.422 127.58 635.141C128.188 636.445 129.255 637.71 130.177 638.69C130.327 638.854 130.486 638.994 130.66 639.139C131.548 639.882 132.509 640.717 133.513 641.311C135.546 642.513 136.99 642.861 139.133 643.151C139.819 643.242 140.586 643.426 141.311 643.382C142.175 643.329 143.87 643.117 144.724 642.924C144.811 642.904 144.903 642.89 144.99 642.861C145.554 642.692 146.37 642.286 146.723 642.142C147.326 641.886 147.901 641.697 148.451 641.384C149.634 640.698 150.749 639.65 151.729 638.521C152.203 638.443 152.681 638.414 153.159 638.265C154.762 637.883 156.162 637.145 157.354 636.058C158.696 635.189 159.758 634.035 160.531 632.597L161.777 629.652C162.361 627.465 162.361 625.277 161.772 623.09Z" fill="#7ED6DF"/>
<path d="M135.422 671.317C124.941 667.339 114.411 663.848 103.138 663.071C97.4986 662.685 91.425 663.167 86.0128 664.828C81.9186 666.084 78.3457 668.362 75.9896 672.022C72.9721 676.71 73.2957 682.653 75.9607 687.418C77.385 689.972 79.7074 691.851 81.9524 693.632C84.5837 695.713 87.2535 697.717 90.1648 699.387C94.8045 702.052 99.922 704.196 105.098 705.581C111.065 707.175 117.399 708.01 123.478 706.533C129.812 704.992 135.278 700.251 137.677 694.187C140.777 692.536 143.302 689.707 144.035 686.496C145.638 679.462 141.892 673.779 135.422 671.317Z" fill="#7ED6DF"/>
<path d="M47.984 655.085C47.7763 654.216 47.3611 653.385 47.0183 652.574C46.6852 651.787 46.3907 650.967 45.961 650.228C45.063 648.664 43.909 647.186 42.6344 645.917C40.1576 643.449 36.8842 641.46 33.4949 640.557C29.2463 639.428 24.6598 639.664 20.4401 640.779C16.9978 641.687 13.7197 643.29 10.5283 644.845C9.20065 645.487 7.979 646.641 6.98926 647.973C6.94581 647.997 6.90247 648.012 6.85902 648.031C3.47942 649.866 1.46599 653.347 0.968704 657.045C0.601776 658.687 0.674295 660.323 1.19089 661.965C1.77508 664.055 2.83233 665.871 4.3628 667.411C6.1733 669.627 8.50545 671.428 10.8663 673.016C13.2369 674.614 16.008 675.773 18.7166 676.627C19.6387 676.917 20.5801 677.139 21.536 677.289C23.4527 677.583 25.4131 677.921 27.3636 677.941C30.1686 677.974 33.1523 677.646 35.7884 676.647C40.1819 674.981 44.0248 672.432 46.3712 668.217C48.6162 664.171 49.0558 659.546 47.984 655.085Z" fill="#7ED6DF"/>
</g>
<mask id="mask7_694_3273" style="mask-type:luminance" maskUnits="userSpaceOnUse" x="12" y="565" width="133" height="133">
<path d="M78.4438 697.074C114.897 697.074 144.448 667.523 144.448 631.07C144.448 594.618 114.897 565.067 78.4438 565.067C41.991 565.067 12.4404 594.618 12.4404 631.07C12.4404 667.523 41.991 697.074 78.4438 697.074Z" fill="white"/>
</mask>
<g mask="url(#mask7_694_3273)">
<path opacity="0.1" d="M7.67384 587.647C7.67384 587.647 14.8868 638.597 73.2332 646.124C131.575 653.651 148.352 612.188 148.352 612.188C148.352 612.188 164 719.655 61.5156 708.077C-40.9587 696.5 7.67384 587.647 7.67384 587.647Z" fill="black"/>
</g>
<mask id="mask8_694_3273" style="mask-type:luminance" maskUnits="userSpaceOnUse" x="12" y="565" width="133" height="133">
<path d="M78.4438 697.074C114.897 697.074 144.448 667.523 144.448 631.07C144.448 594.618 114.897 565.067 78.4438 565.067C41.991 565.067 12.4404 594.618 12.4404 631.07C12.4404 667.523 41.991 697.074 78.4438 697.074Z" fill="white"/>
</mask>
<g mask="url(#mask8_694_3273)">
<path opacity="0.1" d="M1.6925 616.924C1.6925 616.924 10.0159 648.673 63.8577 664.301C117.704 679.935 149.545 644.038 149.545 644.038C149.545 644.038 142.018 726.834 55.7517 705.412C-30.515 683.985 1.6925 616.924 1.6925 616.924Z" fill="black"/>
</g>
<defs>
<linearGradient id="paint0_linear_694_3273" x1="193.337" y1="231.174" x2="687.522" y2="591.657" gradientUnits="userSpaceOnUse">
<stop stop-color="#7ED6DF"/>
<stop offset="1" stop-color="#686DE0"/>
</linearGradient>
<linearGradient id="paint1_linear_694_3273" x1="370.909" y1="144.759" x2="852.396" y2="495.979" gradientUnits="userSpaceOnUse">
<stop stop-color="#7ED6DF"/>
<stop offset="1" stop-color="#BADC58"/>
</linearGradient>
<linearGradient id="paint2_linear_694_3273" x1="251.94" y1="471.817" x2="743.037" y2="830.047" gradientUnits="userSpaceOnUse">
<stop stop-color="#7ED6DF"/>
<stop offset="1" stop-color="#BADC58"/>
</linearGradient>
<linearGradient id="paint3_linear_694_3273" x1="27.0303" y1="645.348" x2="278.889" y2="233.692" gradientUnits="userSpaceOnUse">
<stop stop-color="#4834D4"/>
<stop offset="0.5" stop-color="#8D405B" stop-opacity="0"/>
<stop offset="1" stop-color="#EB4D4B"/>
</linearGradient>
<linearGradient id="paint4_linear_694_3273" x1="55.0036" y1="751.895" x2="85.111" y2="596.727" gradientUnits="userSpaceOnUse">
<stop stop-color="#7ED6DF"/>
<stop offset="1" stop-color="#DFF9FB"/>
</linearGradient>
</defs>
</svg>
