<svg width="2028" height="2028" viewBox="0 0 2028 2028" fill="none" xmlns="http://www.w3.org/2000/svg">
<path opacity="0.1" d="M1520.34 1520.34C1800.23 1240.45 1800.23 786.667 1520.34 506.78C1240.45 226.893 786.667 226.893 506.78 506.78C226.893 786.667 226.893 1240.45 506.78 1520.34C786.667 1800.23 1240.45 1800.23 1520.34 1520.34Z" fill="white"/>
<path d="M1013.59 1681.98C1382.75 1681.98 1682.01 1382.71 1682.01 1013.55C1682.01 644.394 1382.75 345.131 1013.59 345.131C644.432 345.131 345.169 644.394 345.169 1013.55C345.169 1382.71 644.432 1681.98 1013.59 1681.98Z" fill="url(#paint0_linear_694_2897)"/>
<g opacity="0.7">
<mask id="mask0_694_2897" style="mask-type:luminance" maskUnits="userSpaceOnUse" x="345" y="345" width="1337" height="1337">
<path d="M1486.2 1486.2C1747.23 1225.17 1747.23 801.952 1486.2 540.919C1225.17 279.887 801.951 279.887 540.918 540.919C279.886 801.952 279.886 1225.17 540.918 1486.2C801.951 1747.23 1225.17 1747.23 1486.2 1486.2Z" fill="white"/>
</mask>
<g mask="url(#mask0_694_2897)">
<path d="M177.938 900.302C177.938 900.302 483.324 736.46 559.404 756.414C635.483 776.368 525.617 828.863 553.682 876.882C581.748 924.896 742.573 889.459 760.094 949.495C777.615 1009.53 546.546 1045.02 517.294 1100.19C488.046 1155.35 500.458 1206.65 344.562 1265.56L177.938 900.302Z" fill="url(#paint1_linear_694_2897)"/>
<path d="M678.221 1542.2C678.221 1360.04 857.881 1436.16 909.536 1403.54C961.19 1370.92 898.658 1283.92 980.222 1259.45C1061.79 1234.98 1211.31 1251.29 1216.75 1357.32C1222.19 1463.35 1325.5 1370.92 1390.75 1365.48C1456 1360.04 1537.56 1441.6 1518.53 1585.7C1499.5 1729.79 1262.97 1735.23 1072.66 1710.76C882.349 1686.29 678.221 1724.35 678.221 1542.2Z" fill="url(#paint2_linear_694_2897)"/>
<path d="M1725.94 635.95C1586.59 590.079 1385.1 581.293 1341.6 597.886C1298.1 614.48 1240.88 679.446 1159.38 676.728C1077.88 674.009 977.293 752.851 980.011 793.633C982.729 834.415 1186.63 739.26 1279.07 793.633C1371.51 848.006 1230.14 896.942 1281.79 962.193C1333.44 1027.44 1697.76 861.597 1790.19 989.379C1882.63 1117.17 2023.27 733.824 1725.94 635.95Z" fill="url(#paint3_linear_694_2897)"/>
<path d="M498.786 483.7C475.347 553.049 699.974 538.073 822.316 494.572C944.657 451.072 1023.35 471.128 1061.57 507.318C1099.78 543.509 1129.54 455.509 1300.82 455.509C1472.1 455.509 1572.87 568.001 1580.94 493.225C1589.01 418.449 1493.57 313.286 1249.02 296.537C1004.48 279.794 564.037 290.671 498.786 483.7Z" fill="url(#paint4_linear_694_2897)"/>
<path d="M896.385 864.585C879.062 844.839 860.846 825.314 848.945 801.643C838.285 780.438 834.321 756.742 827.417 734.22C820.928 713.049 811.379 692.482 793.756 678.311C776.825 664.692 755.75 658.333 734.753 654.157C712.482 649.725 689.699 647.499 667.871 641.005C644.789 634.14 623.618 622.326 602.674 610.69C563.046 588.67 519.758 565.182 472.917 576.185C451.157 581.293 430.816 593.17 415.671 609.604C398.551 628.182 390.604 651.632 383.285 675.318C379.302 688.209 375.275 701.085 369.293 713.218C369.066 713.672 369.023 714.111 368.941 714.55C367.275 715.608 365.6 716.655 363.934 717.718C358.705 721.044 363.543 729.406 368.805 726.055C412.615 698.183 459.968 667.69 513.564 666.068C536.202 665.382 559.444 669.616 579.335 680.783C589.209 686.326 597.957 693.505 605.247 702.171C613.078 711.48 619.287 722.198 628.277 730.507C646.203 747.086 670.092 747.429 693.073 745.498C717.141 743.475 741.015 740.665 763.156 752.561C783.183 763.323 798.599 781.858 807.511 802.603C817.896 826.792 819.654 854.408 833.563 877.162C844.692 895.364 865.066 911.441 887.531 908.438C896.824 907.197 907.219 901.911 909.981 892.202C913.158 881.025 902.98 872.103 896.385 864.585Z" fill="url(#paint5_linear_694_2897)"/>
<path d="M1548 530.411C1526.88 511.123 1497.96 502.828 1469.9 507.714C1442.34 499.767 1413.26 505.358 1386.11 513.474C1370.57 518.119 1355.3 523.599 1339.77 528.277C1323.52 533.172 1306.95 536.784 1290.22 539.589C1224.62 550.592 1156.54 551.263 1094.3 577.281C1082.38 582.268 1066.82 587.811 1061 600.441C1056 611.27 1060.15 624.19 1072.21 627.483C1085.66 631.157 1102.51 626.696 1115.49 622.925C1130.82 618.478 1145.54 612.226 1160.74 607.369C1177.28 602.083 1193.71 599.823 1211.06 599.649C1227.59 599.48 1244.15 600.137 1260.54 597.486C1292.01 592.402 1318.84 574.056 1347.98 562.464C1383.48 548.347 1421.89 547.333 1459.53 549.931C1488.36 551.915 1525.08 560.306 1548.01 537.242C1549.78 535.451 1549.93 532.178 1548 530.411Z" fill="url(#paint6_linear_694_2897)"/>
<path d="M1700.44 1218.13C1676.6 1227.5 1650.29 1228.91 1625.63 1221.8C1601.11 1214.74 1581.65 1199.14 1564.19 1181.07C1547.39 1163.68 1532.13 1144.63 1513.09 1129.56C1494.66 1114.98 1473.32 1104.52 1450.73 1098.14C1401.42 1084.2 1351.93 1090.56 1303.09 1102.82C1275.92 1109.65 1248.51 1116.93 1220.29 1116.86C1196.71 1116.8 1173.53 1111.88 1151.06 1105.04C1105.9 1091.31 1063.31 1069.74 1017.27 1058.8C995.382 1053.6 972.666 1050.95 950.211 1053.36C928.543 1055.69 907.937 1062.62 888.495 1072.31C848.418 1092.28 814.511 1122.29 775.766 1144.51C755.377 1156.2 734.014 1164.83 710.921 1169.41C685.241 1174.49 658.624 1176.09 633.963 1185.48C590.588 1201.99 563.923 1241.15 540.633 1279.16C517.038 1317.65 492.247 1361.03 449.427 1380.81C440.36 1385 430.675 1387.54 420.763 1388.55C416.568 1384.45 411.923 1380.85 406.665 1378.15C401.147 1375.32 396.256 1383.64 401.789 1386.49C405.772 1388.53 409.345 1391.19 412.652 1394.24C412.725 1396.48 414.154 1398.53 416.935 1398.54C435.662 1418.98 446.453 1451.05 477.888 1451.03C501.429 1451.01 521.219 1432.23 535.51 1415.47C550.825 1397.5 562.851 1377.12 576.099 1357.66C602.359 1319.08 637.27 1288.09 679.578 1268.08C700.28 1258.29 722.397 1251.38 744.992 1247.63C769.823 1243.52 795.112 1243.21 819.937 1239.05C843.203 1235.14 864.683 1227.04 883.585 1212.78C900.792 1199.79 915.546 1183.98 932.188 1170.33C950.631 1155.2 971.459 1144.92 995.71 1144.42C1022.33 1143.87 1048.08 1152.91 1071.73 1164.37C1095.29 1175.77 1117.64 1189.58 1141.67 1200.02C1165.07 1210.19 1189.73 1216.75 1215.1 1219.52C1240.74 1222.32 1266.8 1221.09 1292.07 1215.92C1317.89 1210.64 1342.62 1200.7 1368.72 1196.66C1393.19 1192.88 1418.21 1195.86 1441.14 1205.22C1463.12 1214.18 1480.21 1228.86 1496.11 1246.09C1510.94 1262.18 1526.6 1277.71 1549.27 1280.73C1562.25 1282.45 1575.29 1280.77 1588.32 1281C1601.56 1281.22 1614.7 1283.21 1627.44 1286.81C1639.87 1290.32 1651.67 1295.4 1662.87 1301.81C1665.22 1303.15 1668.04 1302.28 1669.48 1300.08C1684.96 1276.38 1697.3 1250.86 1706.38 1224.06C1707.5 1220.79 1703.84 1216.79 1700.44 1218.13Z" fill="url(#paint7_linear_694_2897)"/>
</g>
</g>
<mask id="mask1_694_2897" style="mask-type:luminance" maskUnits="userSpaceOnUse" x="345" y="345" width="1337" height="1337">
<path d="M1486.2 1486.2C1747.23 1225.17 1747.23 801.952 1486.2 540.919C1225.17 279.887 801.951 279.887 540.918 540.919C279.886 801.952 279.886 1225.17 540.918 1486.2C801.951 1747.23 1225.17 1747.23 1486.2 1486.2Z" fill="white"/>
</mask>
<g mask="url(#mask1_694_2897)">
<path opacity="0.1" d="M1472.13 475.27C1472.13 475.27 1236.77 469.186 1141.61 686.403C1046.46 903.619 1130.74 1202.69 858.864 1325.03C586.99 1447.37 380.366 1276.09 380.366 1276.09C380.366 1276.09 465.112 1753.3 1023.58 1705.01C1582.05 1656.71 1771.4 1197.36 1758.77 903.624C1746.13 609.894 1472.13 475.27 1472.13 475.27Z" fill="white"/>
</g>
<mask id="mask2_694_2897" style="mask-type:luminance" maskUnits="userSpaceOnUse" x="345" y="345" width="1337" height="1337">
<path d="M1486.2 1486.2C1747.23 1225.17 1747.23 801.952 1486.2 540.919C1225.17 279.887 801.951 279.887 540.918 540.919C279.886 801.952 279.886 1225.17 540.918 1486.2C801.951 1747.23 1225.17 1747.23 1486.2 1486.2Z" fill="white"/>
</mask>
<g mask="url(#mask2_694_2897)">
<path opacity="0.1" d="M311.194 959.48C311.194 959.48 379.337 1396.2 1039.82 1318.35C1700.3 1240.51 1646.45 741.983 1646.45 741.983C1646.45 741.983 1852.72 1533.14 1186.63 1669.07C520.532 1805.01 319.349 1223.2 311.194 959.48Z" fill="black"/>
</g>
<mask id="mask3_694_2897" style="mask-type:luminance" maskUnits="userSpaceOnUse" x="345" y="345" width="1337" height="1337">
<path d="M1486.2 1486.2C1747.23 1225.17 1747.23 801.952 1486.2 540.919C1225.17 279.887 801.951 279.887 540.918 540.919C279.886 801.952 279.886 1225.17 540.918 1486.2C801.951 1747.23 1225.17 1747.23 1486.2 1486.2Z" fill="white"/>
</mask>
<g mask="url(#mask3_694_2897)">
<path opacity="0.1" d="M315.051 1157.95C315.051 1157.95 434.675 1516.82 1081.74 1432.54C1728.8 1348.26 1685.87 883.356 1685.87 883.356C1685.87 883.356 1883.77 1530.41 1193.21 1742.48C502.648 1954.54 315.051 1157.95 315.051 1157.95Z" fill="black"/>
</g>
<g opacity="0.3">
<path d="M1013.4 482.989C998.447 461.842 968.325 451.815 943.813 448.073C916.39 443.887 888.532 446.543 861.698 453.162C847.292 456.715 833.107 461.355 819.178 466.806C742.225 484.988 669.66 519.885 612.453 575.986C593.879 594.202 577.155 614.436 562.937 636.23C549.09 657.454 536.349 681.024 529.059 705.396C522.034 728.869 523.516 758.808 549.742 769.207C577.846 780.355 603.458 759.45 622.896 741.673C645.578 720.927 666.478 698.236 690.367 678.822C711.335 661.784 734.717 647.745 758.886 635.752C808.33 611.221 861.539 595.544 914.01 578.994C926.823 574.953 939.627 570.868 952.368 566.6C965.771 562.11 979.738 557.852 991.895 550.48C1014.45 536.802 1030.62 507.332 1013.4 482.989Z" fill="white"/>
<path d="M412.996 947.984C416.429 962.555 426.113 976.575 440.245 982.47C455.839 988.973 473.38 985.449 487.183 976.372C503.646 965.548 537.906 879.436 532.426 856.99C528.4 840.493 514.9 829.196 497.92 828.351C479.337 827.428 463.342 838.726 451.041 851.583C438.72 864.454 428.306 880.445 420.615 896.488C412.909 912.585 408.839 930.357 412.996 947.984Z" fill="white"/>
</g>
<path d="M351.194 1038.87C345.014 1031.97 336.44 1027.87 327.228 1027.27C319.658 1026.78 309.432 1030.78 304.445 1023.3C298.917 1015.01 296.966 1005.1 290.849 997.016C284.495 988.625 274.931 979.765 264.256 977.68C252.206 975.328 244.056 983.893 240.237 994.326C235.863 1006.29 233.198 1019.13 229.794 1031.41C229.292 1033.22 229.335 1034.85 229.707 1036.31C226.54 1039.84 224.063 1044.04 222.668 1048.91C220.037 1058.11 221.92 1067.27 226.637 1074.91C216.633 1082.47 209.415 1093.35 207.078 1106.11C204.119 1122.26 208.449 1144.83 226.902 1149.48C240.845 1152.99 253.229 1144.51 266.405 1142.96C272.049 1142.3 274.101 1144.04 276.853 1149.67C280.145 1156.4 282.651 1163.55 289.27 1167.83C306.328 1178.86 326.518 1160.04 335.899 1147.07C346.781 1132.01 353.719 1112.82 359.126 1095.19C365.012 1076 365.301 1054.61 351.194 1038.87Z" fill="url(#paint8_linear_694_2897)"/>
<path d="M435.113 1231.96C429.073 1227.18 422.348 1224.47 415.062 1222.16C409.563 1220.41 401.771 1218.74 400.149 1212.33C398.691 1206.56 391.115 1203.1 385.964 1206.56C381.546 1209.52 377.935 1213.16 375.27 1217.44C374.888 1217.51 374.517 1217.53 374.116 1217.64C360.912 1221.19 346.5 1227.02 342.56 1241.6C340.914 1247.69 341.397 1254.59 344.907 1259.96C345.196 1260.41 347.021 1262.73 348.561 1264.55C348.016 1264.86 347.504 1265.17 347.273 1265.28C334.908 1271.07 320.1 1275.12 310.893 1285.91C301.184 1297.3 305.056 1312.16 318.599 1318.06C331.417 1323.64 347.721 1321.96 360.395 1316.8C366.459 1314.34 372.537 1309.46 379.05 1308.41C384.525 1307.53 389.686 1312.58 394.49 1314.59C408.438 1320.42 419.224 1310.95 428.928 1301.93C438.034 1293.46 447.096 1282.9 449.679 1270.38C452.726 1255.56 446.874 1241.27 435.113 1231.96Z" fill="url(#paint9_linear_694_2897)"/>
<path d="M625.116 1285.28C621.128 1282.76 615.673 1280.68 614.731 1275.49C613.519 1268.8 615.648 1261.71 615.026 1254.93C613.698 1240.44 606.379 1226.42 592.469 1220.55C577.782 1214.34 559.707 1219.21 553.232 1234.56C550.369 1241.35 550.123 1249 553.073 1255.81C553.382 1256.52 553.845 1257.12 554.217 1257.79C550.92 1261.74 551.692 1266.9 554.792 1270.74C557.244 1273.79 559.697 1276.82 562.15 1279.86L565.548 1284.07C565.993 1284.63 566.427 1285.24 566.881 1285.82C564.008 1286.98 561.039 1287.94 558.466 1289.71C548.1 1296.85 543.205 1310.68 546.946 1322.76C550.828 1335.3 563.699 1342.75 576.508 1341.56C583.069 1340.94 589.346 1338.42 594.087 1333.75C596.028 1331.84 597.37 1329.42 599.161 1327.4C599.417 1327.11 599.958 1326.75 600.233 1326.53C600.899 1326.79 602.956 1327.24 603.487 1327.4C610.459 1329.53 616.986 1332.91 624.498 1332.31C631.388 1331.76 638.35 1328.61 642.077 1322.54C650.772 1308.38 636.486 1292.48 625.116 1285.28Z" fill="url(#paint10_linear_694_2897)"/>
<path d="M722.41 1263.3C717.625 1256.93 698.965 1249.99 696.623 1249.31C696.522 1246.74 695.484 1244.18 693.249 1242.22C686.543 1236.33 676.597 1240.43 675.433 1249.08C675.308 1250.03 675.346 1250.93 675.409 1251.82C669.978 1257.01 667.641 1264.44 669.77 1272.03C672.01 1280.03 679.209 1286.03 687.325 1287.42C690.477 1287.96 693.389 1287.98 696.392 1287.59C698.057 1294.96 703.05 1301.58 709.78 1305.05C713.29 1306.86 718.712 1306.92 721.483 1303.54C726.354 1297.59 729.116 1290.53 728.908 1282.75C728.715 1275.86 726.567 1268.83 722.41 1263.3Z" fill="url(#paint11_linear_694_2897)"/>
<path d="M486.347 1073.45C482.055 1068.99 475.716 1066.55 469.874 1064.9C464.925 1063.5 459.561 1063.54 455.004 1066.11C452.286 1067.65 450.031 1070.11 448.693 1072.97C445.705 1072.66 442.977 1073.32 440.423 1075.3C435.291 1079.27 434.924 1086.01 437.594 1091.5C439.404 1095.23 443.233 1098.46 447.346 1099.24C450.528 1099.85 453.628 1099.56 456.761 1098.8C457.983 1098.5 459.19 1098.17 460.411 1097.89C460.512 1097.88 460.619 1097.89 460.72 1097.89C461.261 1098.03 461.816 1098.14 462.357 1098.32C462.811 1098.53 463.264 1098.75 463.718 1098.97C466.234 1100.2 468.802 1101.55 471.52 1102.24C479.25 1104.2 487.303 1100.9 490.47 1093.39C493.353 1086.56 491.417 1078.71 486.347 1073.45Z" fill="url(#paint12_linear_694_2897)"/>
<path d="M1022.42 1345.19C1016.66 1326.95 1024.97 1307.91 1018.77 1289.76C1012.8 1272.26 997.845 1263.62 979.726 1267.59C972.208 1269.23 964.136 1273.71 956.291 1272.2C948.382 1270.67 942.275 1263.78 937.003 1258.21C924.068 1244.55 906.857 1230.11 886.907 1239C876.812 1243.49 873.621 1252.5 870.545 1262.35C868.141 1270.06 863.221 1276.43 856.699 1281.04C843.962 1285.41 828.711 1293.65 829.256 1307.13C829.633 1316.48 837.768 1320.38 845.951 1321.11C852.397 1321.69 858.871 1322.04 865.341 1322.38C863.67 1326.52 860.604 1330.89 859.615 1334.21C857.249 1342.13 858.799 1350.73 863.424 1357.54C871.395 1369.27 884.001 1372.9 895.68 1378.75C892.271 1382.21 888.409 1385.34 885.604 1389.3C880.674 1396.26 878.193 1405.89 882.07 1413.89C890.017 1430.3 915.185 1427.77 929.877 1424.63C938.727 1422.73 947.426 1419.29 955.219 1414.69C961.679 1410.87 968.197 1402.67 975.844 1401.6C983.134 1400.58 990.705 1403.21 997.976 1403.51C1006.35 1403.86 1014.94 1401.44 1020.79 1395.19C1034.28 1380.76 1027.56 1361.47 1022.42 1345.19Z" fill="url(#paint13_linear_694_2897)"/>
<path d="M1246.75 1201.67C1238.82 1196.08 1227.84 1195.65 1218.51 1196.72C1208 1197.92 1199.27 1202.84 1195.7 1213.27C1194.36 1217.2 1194.52 1222.02 1192.73 1225.68C1192.04 1227.1 1191.73 1227.1 1190.71 1227.56C1191.76 1227.09 1190.15 1227.71 1190.06 1227.74C1189.01 1228.07 1187.92 1228.29 1186.84 1228.48C1185.49 1228.71 1183.5 1228.85 1181.39 1229.09C1179.02 1229.36 1176.62 1229.62 1174.27 1230.09C1169.26 1231.08 1165.01 1233.3 1161.12 1236.56C1159.05 1238.3 1158.21 1241.13 1158.38 1243.86C1152.49 1254.39 1150.32 1267.26 1161.02 1276.02C1166.14 1280.21 1172.65 1282.02 1179.21 1282.13C1183.5 1282.21 1187.69 1281.34 1191.88 1280.58C1191.86 1282.06 1191.84 1283.53 1191.82 1285.01C1191.74 1290.68 1190.93 1297.1 1195.2 1301.58C1202.83 1309.57 1216.01 1305.05 1223.08 1298.83C1230.41 1292.39 1234.62 1282.5 1236.59 1273.13C1237.62 1268.21 1238.23 1263.1 1238.17 1258.06C1238.14 1255.52 1237.9 1253.01 1237.58 1250.5C1237.39 1249.03 1237.23 1247.55 1236.93 1246.1C1236.81 1245.49 1236.79 1245.16 1236.77 1244.93C1239 1242.94 1242.32 1241.75 1244.72 1240.07C1248.7 1237.29 1252.43 1233.93 1254.68 1229.55C1259.94 1219.37 1255.78 1208.02 1246.75 1201.67Z" fill="url(#paint14_linear_694_2897)"/>
<path d="M1343.57 1302.04C1338.69 1295.39 1332.06 1292.09 1325.21 1287.89C1324.43 1287.42 1323.69 1286.87 1322.92 1286.4C1324.45 1287.33 1322.85 1286.27 1322.24 1285.74C1322.01 1285.54 1321.81 1285.28 1321.59 1285.07C1321.46 1284.82 1321.31 1284.53 1321.15 1284.3C1320.32 1278.98 1317.89 1273.54 1313.24 1270.57C1308.11 1267.3 1300.89 1267.82 1295.99 1271.3C1291.63 1274.39 1289.26 1278.8 1287.7 1283.67C1285.95 1283.95 1284.2 1284.36 1282.5 1285.08C1277.54 1287.17 1273.21 1291.67 1272.02 1297.03C1269.75 1307.25 1277.51 1315.45 1287.14 1317.19C1291.35 1317.95 1295.37 1317.83 1299.62 1317.79C1301.2 1317.78 1303.96 1317.85 1304.96 1317.94C1305.11 1317.97 1305.97 1318.09 1305.95 1318.09C1306.46 1318.19 1306.97 1318.31 1307.47 1318.44C1307.98 1318.57 1308.47 1318.72 1308.98 1318.87C1309.12 1318.91 1309.23 1318.96 1309.34 1319C1309.9 1319.32 1310.46 1319.65 1311 1320C1311.06 1320.09 1311.83 1320.73 1312.11 1321.01C1312.24 1321.15 1312.33 1321.23 1312.4 1321.29C1312.42 1321.38 1312.47 1321.51 1312.61 1321.77C1312.62 1321.79 1312.65 1321.85 1312.67 1321.89C1312.62 1322.16 1312.66 1322.84 1312.72 1323.02C1312.65 1323.27 1312.58 1323.55 1312.57 1323.56C1312.42 1324.03 1312.29 1324.51 1312.15 1324.99C1311.41 1327.47 1310.72 1330.07 1310.69 1332.69C1310.57 1345.63 1324.29 1351.95 1335.16 1347.17C1343.97 1343.3 1348.33 1333.52 1349.41 1324.52C1350.31 1316.87 1348.14 1308.28 1343.57 1302.04Z" fill="url(#paint15_linear_694_2897)"/>
<path d="M1666 1102.18C1654.83 1084.18 1631.19 1072.55 1610.33 1079.83C1605.41 1081.55 1600.8 1084.27 1597.14 1088.01C1593.35 1091.88 1591.28 1097.49 1587.14 1100.94C1580.54 1106.44 1571.73 1105.46 1565.51 1100.09C1557.72 1093.37 1551.91 1084.88 1542.01 1080.94C1531.76 1076.87 1519.77 1079.24 1511.61 1086.65C1502.2 1095.19 1500.13 1109.07 1505.4 1120.41C1506.76 1123.33 1508.63 1126.03 1510.91 1128.32C1511.72 1129.12 1512.73 1129.76 1513.46 1130.61C1513.49 1130.64 1513.5 1130.65 1513.53 1130.67C1513.46 1131.44 1513.39 1132.2 1513.3 1132.96C1512.93 1136.64 1512.51 1140.32 1512.11 1143.99C1508.89 1147.09 1505.85 1150.37 1504.38 1155.19C1501.4 1164.94 1505.22 1174.73 1514.95 1178.56C1519.27 1180.27 1523.5 1181.19 1527.47 1183.75C1530.07 1185.43 1534.97 1188.75 1535.8 1191.88C1535.66 1192.08 1535.5 1192.32 1535.28 1192.65C1534.28 1193.84 1533.27 1195.03 1532.27 1196.22C1530.76 1198.01 1529.26 1199.8 1527.75 1201.59C1523.73 1206.35 1519.72 1211.12 1515.7 1215.88C1512.99 1219.1 1511.78 1223.76 1514.19 1227.59C1523.1 1241.72 1541.5 1247.17 1557.02 1241.24C1565.41 1238.03 1572.6 1232.59 1578.28 1225.66C1581.1 1222.21 1583.38 1218.53 1585.77 1214.79C1588.02 1211.26 1588.71 1210.94 1592.97 1211.63C1610.78 1214.52 1628.99 1210.01 1641.95 1196.92C1653.11 1185.65 1658.1 1170.13 1657 1154.66C1673.34 1142.99 1677.07 1120.03 1666 1102.18Z" fill="url(#paint16_linear_694_2897)"/>
<path d="M1536.04 1283.64C1532.48 1280.43 1528.47 1277.66 1524.1 1275.68C1518.72 1273.25 1513.49 1271.9 1507.65 1271.19C1505.36 1270.92 1502.37 1272.47 1500.82 1274.02C1500.41 1274.43 1500.03 1274.91 1499.69 1275.42C1497.81 1275.72 1496.02 1276.57 1494.57 1278.06C1487.15 1285.74 1490.4 1297.26 1498.52 1302.87C1501.42 1304.88 1504.6 1305.64 1507.82 1305.63C1507.49 1307.46 1507.32 1309.31 1507.51 1311.16C1508.09 1316.94 1510.79 1321.8 1515.71 1325.01C1519.11 1327.23 1523.65 1328.34 1527.69 1327.95C1532.74 1327.45 1537.5 1325.45 1540.87 1321.53C1544.42 1317.4 1546.2 1312.64 1546.71 1307.27C1547.55 1298.33 1542.5 1289.44 1536.04 1283.64Z" fill="url(#paint17_linear_694_2897)"/>
<path d="M1785.18 1001.49C1784.62 995.592 1782.5 990.272 1779.99 984.961C1777.37 979.433 1775.29 974.562 1773.9 968.575C1771.17 956.896 1764.16 948.013 1751.74 946.468C1738.25 944.787 1726.8 952.57 1719.76 963.583C1715.06 970.931 1712.78 979.341 1709.86 987.462C1704.67 990.504 1700.3 995.023 1697.35 1000.37C1690.82 1012.19 1691.91 1026.13 1695.63 1038.66C1698.88 1049.62 1703.99 1063.75 1716.68 1066.43C1723.14 1067.79 1729.31 1064.92 1733.32 1059.89C1736.99 1055.3 1738.49 1049.43 1742.03 1044.81C1745.41 1040.4 1748.44 1043.86 1753.33 1043.66C1760.31 1043.37 1765.84 1038.21 1770.59 1033.59C1779.18 1025.22 1786.35 1013.96 1785.18 1001.49Z" fill="url(#paint18_linear_694_2897)"/>
<path d="M1811.36 1064.49C1811.16 1064.51 1811.19 1064.5 1811.36 1064.49V1064.49Z" fill="url(#paint19_linear_694_2897)"/>
<path d="M1813.67 1066.14C1813.66 1066.14 1813.65 1066.15 1813.65 1066.17C1813.67 1066.17 1813.69 1066.17 1813.67 1066.14Z" fill="url(#paint20_linear_694_2897)"/>
<path d="M1830.31 1056.49C1827.24 1051.28 1821.79 1046.73 1815.71 1045.63C1808.37 1044.31 1801.13 1046.39 1795.27 1050.92C1788.96 1055.8 1784.82 1062.48 1782.32 1070C1780.41 1075.76 1779.62 1081.8 1778.52 1087.75C1777.89 1087.79 1777.28 1087.9 1776.69 1088.09C1771.27 1089.84 1769.09 1094.6 1769.95 1099.96C1772.28 1114.5 1791.14 1120.01 1802.65 1112.94C1808.78 1109.16 1813.04 1102.88 1815.01 1096.01C1815.52 1094.22 1815.75 1092.39 1815.99 1090.54C1816.08 1089.76 1816.16 1088.98 1816.24 1088.19C1816.25 1088.14 1816.37 1087.47 1816.44 1087.02C1816.99 1086.72 1817.6 1086.41 1817.7 1086.36C1823.07 1083.69 1828.42 1081.57 1831.35 1075.86C1834.49 1069.71 1833.78 1062.37 1830.31 1056.49Z" fill="url(#paint21_linear_694_2897)"/>
<path d="M1763.13 866.245C1758.56 860.113 1752.45 857.279 1745.42 854.691C1744.72 854.436 1744.03 854.165 1743.34 853.914C1743.23 853.875 1743.19 853.866 1743.12 853.837C1743.05 853.798 1743.02 853.779 1742.92 853.731C1742.3 853.398 1741.67 853.108 1741.07 852.741C1740.71 852.519 1740.36 852.282 1740.02 852.036C1739.84 851.843 1739.67 851.65 1739.52 851.452C1739.42 851.307 1739.34 851.152 1739.25 850.998C1739.25 850.916 1739.24 850.906 1739.24 850.906C1739.63 846.286 1737.26 841.381 1732.36 840.265C1727.57 839.174 1721.53 841.709 1720.49 847.01C1720.48 847.029 1720.48 847.044 1720.48 847.058C1720.1 847.078 1719.71 847.092 1719.33 847.111C1714.33 847.334 1709.38 851.36 1709.67 856.767C1710.07 864.125 1713.29 871.116 1719.05 875.828C1722.12 878.344 1725.52 880.343 1729.38 881.381C1733.19 882.404 1736.53 882.168 1740.35 881.801C1740.39 881.796 1740.44 881.796 1740.49 881.791C1740.73 882.588 1740.96 883.379 1741.14 884.19C1742.32 889.303 1743.13 894.643 1746.17 899.08C1749.43 903.841 1756.98 906.052 1761.33 901.035C1769.62 891.462 1770.87 876.63 1763.13 866.245Z" fill="url(#paint22_linear_694_2897)"/>
<path d="M271.533 1201.17C267.753 1195.75 261.008 1193.25 254.514 1193.91C248.619 1194.51 243.588 1196.7 238.992 1200.39C234.594 1203.93 231.359 1208.98 229.722 1214.36C228.989 1216.78 228.626 1219.44 228.694 1222C227.366 1223.21 226.299 1224.71 225.899 1226.49C225.464 1228.39 225.614 1230.04 226.101 1231.74C225.826 1232.35 225.536 1232.97 225.266 1233.58C224.17 1236.07 223.543 1238.3 224.291 1241.02C224.812 1242.92 225.754 1244.16 227.014 1245.62C227.95 1246.71 229.138 1247.7 230.374 1248.42C235.859 1251.58 242.198 1250.81 247.634 1248.04C252.115 1245.76 255.557 1241.71 257.532 1237.16C258.579 1234.73 259.468 1232.29 260.356 1229.8C260.52 1229.34 260.689 1228.88 260.863 1228.41C261.346 1227.63 261.722 1226.72 262.191 1225.92C262.451 1225.65 262.702 1225.37 262.978 1225.11C263.644 1224.49 264.354 1223.92 265.068 1223.35C266.492 1222.21 267.984 1221.12 269.215 1219.77C273.85 1214.69 275.743 1207.22 271.533 1201.17Z" fill="url(#paint23_linear_694_2897)"/>
<path d="M255.26 1206.37C255.265 1206.36 255.27 1206.35 255.275 1206.33C255.232 1206.38 255.164 1206.44 255.125 1206.48C255.12 1206.49 255.116 1206.51 255.111 1206.52C255.164 1206.47 255.217 1206.43 255.26 1206.37Z" fill="url(#paint24_linear_694_2897)"/>
<path d="M196.581 1047.87C197.793 1045.62 198.242 1042.94 197.556 1040.43C196.938 1038.19 195.21 1035.76 193.119 1034.66C190.879 1033.48 188.166 1032.88 185.679 1033.69C183.333 1034.44 181.107 1035.89 179.91 1038.12C176.419 1044.62 174.512 1051.56 174.044 1058.91C173.832 1062.24 176.033 1065.61 178.828 1067.25C181.909 1069.05 185.486 1068.88 188.576 1067.25C192.023 1065.42 194.225 1062.15 195.5 1058.57C195.615 1058.24 195.693 1057.91 195.756 1057.57C195.963 1056.41 196.209 1055.16 196.166 1053.97C196.127 1052.86 195.949 1051.68 195.726 1050.59C195.693 1050.41 195.606 1050.25 195.553 1050.08C195.572 1050.02 195.587 1049.97 195.611 1049.91C195.92 1049.23 196.219 1048.54 196.581 1047.87Z" fill="url(#paint25_linear_694_2897)"/>
<path d="M284.09 902.223C283.631 900.586 282.801 899.167 281.608 897.96C281.005 897.357 280.401 896.753 279.798 896.15C278.924 895.208 277.886 894.542 276.688 894.151C275.539 893.547 274.299 893.267 272.966 893.32C271.638 893.272 270.398 893.547 269.244 894.151C268.046 894.542 267.013 895.208 266.134 896.15C265.632 896.801 265.13 897.453 264.623 898.105C263.749 899.611 263.31 901.233 263.305 902.976C263.421 903.831 263.537 904.685 263.648 905.545C264.107 907.181 264.937 908.601 266.13 909.808C266.733 910.411 267.337 911.015 267.94 911.618C268.814 912.56 269.852 913.226 271.049 913.617C272.198 914.221 273.439 914.501 274.772 914.448C276.099 914.496 277.34 914.221 278.489 913.617C279.687 913.226 280.725 912.56 281.598 911.618C282.101 910.967 282.603 910.315 283.11 909.663C283.983 908.157 284.423 906.535 284.428 904.792C284.321 903.932 284.206 903.078 284.09 902.223Z" fill="url(#paint26_linear_694_2897)"/>
<defs>
<linearGradient id="paint0_linear_694_2897" x1="1203.51" y1="1487.23" x2="732.01" y2="311.257" gradientUnits="userSpaceOnUse">
<stop stop-color="#4834D4"/>
<stop offset="1" stop-color="#FF7979"/>
</linearGradient>
<linearGradient id="paint1_linear_694_2897" x1="691.377" y1="798.316" x2="-129.684" y2="1358.38" gradientUnits="userSpaceOnUse">
<stop stop-color="#4834D4"/>
<stop offset="1" stop-color="#FF7979"/>
</linearGradient>
<linearGradient id="paint2_linear_694_2897" x1="1095.2" y1="1371.42" x2="1108.79" y2="1879.82" gradientUnits="userSpaceOnUse">
<stop stop-color="#4834D4"/>
<stop offset="0.1168" stop-color="#4E36D1"/>
<stop offset="0.2697" stop-color="#5E3CC9"/>
<stop offset="0.4426" stop-color="#7947BB"/>
<stop offset="0.6303" stop-color="#9F55A9"/>
<stop offset="0.8274" stop-color="#CF6791"/>
<stop offset="1" stop-color="#FF7979"/>
</linearGradient>
<linearGradient id="paint3_linear_694_2897" x1="1113.33" y1="971.55" x2="2054.01" y2="645.302" gradientUnits="userSpaceOnUse">
<stop stop-color="#4834D4"/>
<stop offset="0.1168" stop-color="#4E36D1"/>
<stop offset="0.2697" stop-color="#5E3CC9"/>
<stop offset="0.4426" stop-color="#7947BB"/>
<stop offset="0.6303" stop-color="#9F55A9"/>
<stop offset="0.8274" stop-color="#CF6791"/>
<stop offset="1" stop-color="#FF7979"/>
</linearGradient>
<linearGradient id="paint4_linear_694_2897" x1="1038.85" y1="531.22" x2="1041.57" y2="243.034" gradientUnits="userSpaceOnUse">
<stop stop-color="#4834D4"/>
<stop offset="1" stop-color="#FF7979"/>
</linearGradient>
<linearGradient id="paint5_linear_694_2897" x1="849.041" y1="885.085" x2="351.514" y2="547.963" gradientUnits="userSpaceOnUse">
<stop stop-color="#4834D4"/>
<stop offset="1" stop-color="#FF7979"/>
</linearGradient>
<linearGradient id="paint6_linear_694_2897" x1="1154.2" y1="603.821" x2="1613.66" y2="481.478" gradientUnits="userSpaceOnUse">
<stop stop-color="#4834D4"/>
<stop offset="1" stop-color="#FF7979"/>
</linearGradient>
<linearGradient id="paint7_linear_694_2897" x1="399.358" y1="1251.74" x2="1706.59" y2="1251.74" gradientUnits="userSpaceOnUse">
<stop stop-color="#4834D4"/>
<stop offset="0.1168" stop-color="#4E36D1"/>
<stop offset="0.2697" stop-color="#5E3CC9"/>
<stop offset="0.4426" stop-color="#7947BB"/>
<stop offset="0.6303" stop-color="#9F55A9"/>
<stop offset="0.8274" stop-color="#CF6791"/>
<stop offset="1" stop-color="#FF7979"/>
</linearGradient>
<linearGradient id="paint8_linear_694_2897" x1="246.395" y1="1691.19" x2="303.489" y2="798.087" gradientUnits="userSpaceOnUse">
<stop stop-color="#4834D4"/>
<stop offset="1" stop-color="#7ED6DF"/>
</linearGradient>
<linearGradient id="paint9_linear_694_2897" x1="351.356" y1="1697.9" x2="408.45" y2="804.799" gradientUnits="userSpaceOnUse">
<stop stop-color="#4834D4"/>
<stop offset="1" stop-color="#7ED6DF"/>
</linearGradient>
<linearGradient id="paint10_linear_694_2897" x1="569.77" y1="1711.87" x2="626.864" y2="818.76" gradientUnits="userSpaceOnUse">
<stop stop-color="#4834D4"/>
<stop offset="1" stop-color="#7ED6DF"/>
</linearGradient>
<linearGradient id="paint11_linear_694_2897" x1="670.62" y1="1718.31" x2="727.714" y2="825.208" gradientUnits="userSpaceOnUse">
<stop stop-color="#4834D4"/>
<stop offset="1" stop-color="#7ED6DF"/>
</linearGradient>
<linearGradient id="paint12_linear_694_2897" x1="424.452" y1="1702.58" x2="481.546" y2="809.469" gradientUnits="userSpaceOnUse">
<stop stop-color="#4834D4"/>
<stop offset="1" stop-color="#7ED6DF"/>
</linearGradient>
<linearGradient id="paint13_linear_694_2897" x1="903.883" y1="1733.22" x2="960.977" y2="840.118" gradientUnits="userSpaceOnUse">
<stop stop-color="#4834D4"/>
<stop offset="1" stop-color="#7ED6DF"/>
</linearGradient>
<linearGradient id="paint14_linear_694_2897" x1="1172.62" y1="1750.41" x2="1229.72" y2="857.298" gradientUnits="userSpaceOnUse">
<stop stop-color="#4834D4"/>
<stop offset="1" stop-color="#7ED6DF"/>
</linearGradient>
<linearGradient id="paint15_linear_694_2897" x1="1282.08" y1="1757.4" x2="1339.17" y2="864.296" gradientUnits="userSpaceOnUse">
<stop stop-color="#4834D4"/>
<stop offset="1" stop-color="#7ED6DF"/>
</linearGradient>
<linearGradient id="paint16_linear_694_2897" x1="1545.36" y1="1774.23" x2="1602.46" y2="881.127" gradientUnits="userSpaceOnUse">
<stop stop-color="#4834D4"/>
<stop offset="1" stop-color="#7ED6DF"/>
</linearGradient>
<linearGradient id="paint17_linear_694_2897" x1="1488.32" y1="1770.59" x2="1545.41" y2="877.48" gradientUnits="userSpaceOnUse">
<stop stop-color="#4834D4"/>
<stop offset="1" stop-color="#7ED6DF"/>
</linearGradient>
<linearGradient id="paint18_linear_694_2897" x1="1689.63" y1="1783.45" x2="1746.73" y2="890.35" gradientUnits="userSpaceOnUse">
<stop stop-color="#4834D4"/>
<stop offset="1" stop-color="#7ED6DF"/>
</linearGradient>
<linearGradient id="paint19_linear_694_2897" x1="1807.53" y1="1123.37" x2="1815.05" y2="1005.64" gradientUnits="userSpaceOnUse">
<stop stop-color="#4834D4"/>
<stop offset="1" stop-color="#7ED6DF"/>
</linearGradient>
<linearGradient id="paint20_linear_694_2897" x1="1804.46" y1="1210.4" x2="1822.94" y2="921.957" gradientUnits="userSpaceOnUse">
<stop stop-color="#4834D4"/>
<stop offset="1" stop-color="#7ED6DF"/>
</linearGradient>
<linearGradient id="paint21_linear_694_2897" x1="1756.49" y1="1787.73" x2="1813.58" y2="894.623" gradientUnits="userSpaceOnUse">
<stop stop-color="#4834D4"/>
<stop offset="1" stop-color="#7ED6DF"/>
</linearGradient>
<linearGradient id="paint22_linear_694_2897" x1="1691.93" y1="1605.45" x2="1749.02" y2="712.349" gradientUnits="userSpaceOnUse">
<stop stop-color="#4834D4"/>
<stop offset="1" stop-color="#7ED6DF"/>
</linearGradient>
<linearGradient id="paint23_linear_694_2897" x1="219.141" y1="1689.45" x2="276.235" y2="796.344" gradientUnits="userSpaceOnUse">
<stop stop-color="#4834D4"/>
<stop offset="1" stop-color="#7ED6DF"/>
</linearGradient>
<linearGradient id="paint24_linear_694_2897" x1="224.362" y1="1688.77" x2="281.334" y2="797.534" gradientUnits="userSpaceOnUse">
<stop stop-color="#4834D4"/>
<stop offset="1" stop-color="#7ED6DF"/>
</linearGradient>
<linearGradient id="paint25_linear_694_2897" x1="145.446" y1="1684.74" x2="202.54" y2="791.632" gradientUnits="userSpaceOnUse">
<stop stop-color="#4834D4"/>
<stop offset="1" stop-color="#7ED6DF"/>
</linearGradient>
<linearGradient id="paint26_linear_694_2897" x1="221.743" y1="1719.35" x2="278.838" y2="826.24" gradientUnits="userSpaceOnUse">
<stop stop-color="#4834D4"/>
<stop offset="1" stop-color="#7ED6DF"/>
</linearGradient>
</defs>
</svg>
