<svg width="1682" height="1660" viewBox="0 0 1682 1660" fill="none" xmlns="http://www.w3.org/2000/svg">
<path d="M267.537 418.605C269.806 408.567 273.929 399.886 280.104 392.77C351.703 310.264 665.34 465.195 980.628 738.807C1295.92 1012.42 1493.47 1301.11 1421.87 1383.62C1415.69 1390.74 1407.68 1396.04 1398.06 1399.7L1589.68 1565.99C1589.57 1566.57 1589.42 1567.12 1589.3 1567.69C1623.28 1401.56 1381.69 1043.16 1002.26 713.88C624.133 385.731 236.638 197.164 75.9185 252.314L267.537 418.605Z" fill="url(#paint0_linear_694_3032)"/>
<path opacity="0.1" d="M866.632 1447.62C767.643 1447.62 672.305 1424.96 583.262 1380.26C271.523 1223.75 145.232 842.807 301.731 531.068C409.777 315.864 626.583 182.172 867.539 182.172C966.528 182.172 1061.87 204.84 1150.92 249.547C1301.93 325.361 1414.38 455.442 1467.55 615.833C1520.73 776.224 1508.26 947.715 1432.44 1098.73C1324.4 1313.93 1107.59 1447.62 866.632 1447.62Z" fill="white"/>
<path d="M867.09 1391.12C1185.33 1391.12 1443.31 1133.14 1443.31 814.897C1443.31 496.659 1185.33 238.675 867.09 238.675C548.851 238.675 290.868 496.659 290.868 814.897C290.868 1133.14 548.851 1391.12 867.09 1391.12Z" fill="url(#paint1_linear_694_3032)"/>
<mask id="mask0_694_3032" style="mask-type:luminance" maskUnits="userSpaceOnUse" x="290" y="238" width="1154" height="1154">
<path d="M1274.53 1222.34C1499.55 997.313 1499.55 632.473 1274.53 407.446C1049.5 182.42 684.661 182.42 459.635 407.446C234.608 632.473 234.608 997.313 459.635 1222.34C684.661 1447.37 1049.5 1447.37 1274.53 1222.34Z" fill="white"/>
</mask>
<g mask="url(#mask0_694_3032)">
<path opacity="0.2" d="M1506.8 812.164C1506.3 745.528 1276.01 712.466 985.819 808.804C695.632 905.137 351.188 657.746 348.011 413.29C348.011 413.29 21.011 955.498 500.402 1330.46C979.794 1705.42 1509.98 1230.09 1506.8 812.164Z" fill="white"/>
</g>
<path d="M892.795 1327.95C880.368 1327.95 880.349 1347.27 892.795 1347.27C905.218 1347.27 905.242 1327.95 892.795 1327.95Z" fill="white"/>
<path d="M327.297 786.923C314.87 786.923 314.851 806.235 327.297 806.235C339.725 806.235 339.744 786.923 327.297 786.923Z" fill="white"/>
<path d="M694.328 362.19C688.114 362.19 688.105 371.846 694.328 371.846C700.542 371.846 700.551 362.19 694.328 362.19Z" fill="white"/>
<path d="M914.544 321.408C908.331 321.408 908.321 331.064 914.544 331.064C920.753 331.064 920.768 321.408 914.544 321.408Z" fill="white"/>
<path d="M890.079 563.377C883.865 563.377 883.856 573.033 890.079 573.033C896.288 573.033 896.302 563.377 890.079 563.377Z" fill="white"/>
<path d="M1102.14 498.127C1095.92 498.127 1095.92 507.783 1102.14 507.783C1108.35 507.783 1108.36 498.127 1102.14 498.127Z" fill="white"/>
<path d="M1227.2 612.313C1220.99 612.313 1220.98 621.969 1227.2 621.969C1233.41 621.969 1233.42 612.313 1227.2 612.313Z" fill="white"/>
<path d="M1314.2 702.032C1307.98 702.032 1307.97 711.688 1314.2 711.688C1320.41 711.688 1320.42 702.032 1314.2 702.032Z" fill="white"/>
<path d="M1267.98 865.156C1261.76 865.156 1261.76 874.812 1267.98 874.812C1274.19 874.812 1274.2 865.156 1267.98 865.156Z" fill="white"/>
<path d="M1333.23 995.657C1327.02 995.657 1327.01 1005.31 1333.23 1005.31C1339.45 1005.31 1339.46 995.657 1333.23 995.657Z" fill="white"/>
<path d="M1107.57 1047.31C1101.36 1047.31 1101.35 1056.97 1107.57 1056.97C1113.79 1056.97 1113.8 1047.31 1107.57 1047.31Z" fill="white"/>
<path d="M1042.33 859.72C1036.11 859.72 1036.1 869.376 1042.33 869.376C1048.54 869.376 1048.55 859.72 1042.33 859.72Z" fill="white"/>
<path d="M871.045 914.098C864.832 914.098 864.822 923.754 871.045 923.754C877.259 923.754 877.268 914.098 871.045 914.098Z" fill="white"/>
<path d="M824.825 726.501C818.612 726.501 818.602 736.157 824.825 736.157C831.039 736.157 831.049 726.501 824.825 726.501Z" fill="white"/>
<path d="M656.261 715.629C650.047 715.629 650.037 725.285 656.261 725.285C662.474 725.285 662.484 715.629 656.261 715.629Z" fill="white"/>
<path d="M604.609 530.755C598.396 530.755 598.386 540.411 604.609 540.411C610.823 540.411 610.832 530.755 604.609 530.755Z" fill="white"/>
<path d="M468.671 566.095C462.457 566.095 462.447 575.751 468.671 575.751C474.884 575.751 474.894 566.095 468.671 566.095Z" fill="white"/>
<path d="M474.107 1096.25C467.894 1096.25 467.884 1105.91 474.107 1105.91C480.321 1105.91 480.331 1096.25 474.107 1096.25Z" fill="white"/>
<path d="M653.545 1039.16C647.331 1039.16 647.321 1048.81 653.545 1048.81C659.758 1048.81 659.768 1039.16 653.545 1039.16Z" fill="white"/>
<path d="M667.142 1259.38C660.929 1259.38 660.919 1269.03 667.142 1269.03C673.356 1269.03 673.366 1259.38 667.142 1259.38Z" fill="white"/>
<path d="M523.047 1237.63C516.834 1237.63 516.824 1247.28 523.047 1247.28C529.256 1247.28 529.266 1237.63 523.047 1237.63Z" fill="white"/>
<path d="M985.234 1245.78C979.021 1245.78 979.011 1255.44 985.234 1255.44C991.448 1255.44 991.457 1245.78 985.234 1245.78Z" fill="white"/>
<path d="M1140.2 1240.34C1133.98 1240.34 1133.97 1250 1140.2 1250C1146.41 1250 1146.42 1240.34 1140.2 1240.34Z" fill="white"/>
<path d="M457.799 960.316C451.585 960.316 451.575 969.972 457.799 969.972C464.012 969.972 464.022 960.316 457.799 960.316Z" fill="white"/>
<path d="M359.918 696.596C353.705 696.596 353.695 706.252 359.918 706.252C366.132 706.252 366.142 696.596 359.918 696.596Z" fill="white"/>
<path d="M740.544 523.209C728.117 523.209 728.097 542.521 740.544 542.521C752.971 542.521 752.991 523.209 740.544 523.209Z" fill="white"/>
<path d="M813.949 1056.08C801.522 1056.08 801.503 1075.39 813.949 1075.39C826.377 1075.39 826.396 1056.08 813.949 1056.08Z" fill="white"/>
<path d="M1248.95 990.829C1236.52 990.829 1236.5 1010.14 1248.95 1010.14C1261.38 1010.14 1261.4 990.829 1248.95 990.829Z" fill="white"/>
<path d="M1096.7 384.548C1084.28 384.548 1084.26 403.86 1096.7 403.86C1109.13 403.86 1109.15 384.548 1096.7 384.548Z" fill="white"/>
<path d="M588.292 1178.42C575.865 1178.42 575.845 1197.73 588.292 1197.73C600.719 1197.73 600.739 1178.42 588.292 1178.42Z" fill="white"/>
<g opacity="0.5">
<mask id="mask1_694_3032" style="mask-type:luminance" maskUnits="userSpaceOnUse" x="290" y="238" width="1154" height="1154">
<path d="M1274.53 1222.34C1499.55 997.313 1499.55 632.473 1274.53 407.446C1049.5 182.42 684.661 182.42 459.635 407.446C234.608 632.473 234.608 997.313 459.635 1222.34C684.661 1447.37 1049.5 1447.37 1274.53 1222.34Z" fill="white"/>
</mask>
<g mask="url(#mask1_694_3032)">
<path d="M957.118 1402.81C945.686 1394.64 933.881 1386.9 923.206 1377.73C910.137 1366.5 900.143 1353.25 892.36 1337.9C875.834 1305.3 869.688 1268.59 855.47 1235.04C841.459 1201.97 819.356 1172.58 784.276 1160.56C769.493 1155.5 752.904 1154.22 737.719 1158.3C721.097 1162.76 708.047 1173.68 698.024 1187.34C688.677 1200.08 682.415 1214.69 674.492 1228.29C672.15 1232.3 666.675 1244.47 661.471 1245.45C659.013 1245.91 655.653 1242.94 653.621 1241.69C649.174 1238.96 644.829 1236.01 640.653 1232.87C611.709 1211.09 593.739 1181.8 579.8 1148.95C566.422 1117.42 548.94 1083.67 511.909 1076.81C495.219 1073.71 477.104 1076.62 464.942 1089.35C450.849 1104.09 449.382 1125.27 451.632 1144.52C456.957 1190.04 469.495 1235.1 486.253 1277.7C479.252 1279.67 473.874 1289.51 480.155 1297.06C568.421 1403.3 709.717 1438.58 841.464 1450.24C862.132 1452.07 882.839 1453.41 903.556 1454.54C914.366 1455.12 925.176 1455.65 935.991 1456.14C941.389 1456.39 946.806 1456.51 952.198 1456.87C953.294 1456.94 954.395 1456.87 955.472 1457.13C955.766 1457.2 955.984 1457.27 956.215 1457.34C957.007 1467.06 971.366 1473.16 977.019 1462.48C978.728 1459.25 979.39 1455.97 979.153 1452.83C983.889 1459.57 987.472 1467.08 989.162 1475.71C991.952 1489.94 1013.69 1483.91 1010.91 1469.71C1004.99 1439.54 980.838 1419.77 957.118 1402.81Z" fill="#686DE0"/>
<path d="M507.945 973.84C525.177 962.499 545.44 943.51 567.349 954.634C587.125 964.676 598.166 989.106 605.881 1008.66C611.96 1024.07 617.903 1039.53 623.909 1054.97C629.225 1068.63 633.734 1083.36 642.719 1095.14C658.734 1116.14 686.166 1118.4 708.013 1105.07C731.636 1090.66 741.872 1064.47 739.236 1037.46C736.117 1005.55 719.475 978.412 706.907 949.637C700.781 935.612 695.779 920.568 695.634 905.128C695.513 892.039 698.386 879.225 701.114 866.499C706.579 841.012 713.449 811.411 698.106 787.865C682.951 764.604 654.07 757.241 627.743 760.225C597.432 763.658 569.401 777.031 538.502 776.312C512.3 775.703 486.562 767.496 464.561 753.321C414.722 721.205 399.528 661.28 376.281 610.426C353.324 560.21 313.179 508.937 252.38 509.801C239.219 509.99 226.632 513.229 214.895 519.124C208.624 522.272 208.083 528.437 210.628 533.241C204.955 577.678 205.737 622.207 213.278 666.446C214.968 676.363 228.457 676.585 233.517 669.912C259.95 661.56 288.185 676.686 303.673 698.402C323.274 725.878 327.62 760.152 333.713 792.447C336.325 806.279 340.588 821.024 350.953 831.158C363.801 843.72 381.466 844.049 398.331 843.725C429.283 843.136 460.365 840.703 491.27 843.638C505.831 845.024 520.387 847.964 534.055 853.251C545.309 857.601 559.803 864.674 566.895 874.846C568.58 877.265 568.967 879.544 570.125 882.117C570.207 882.301 570.207 882.557 570.188 882.813C570.101 882.851 570.072 882.871 569.947 882.914C566.118 884.3 561.329 884.251 557.326 884.792C551.74 885.54 546.159 886.289 540.578 887.037L481.956 894.897C462.316 897.528 442.647 900.758 422.905 902.501C404.385 904.133 387.241 902.279 369.961 895.24C338.69 882.499 311.34 861.951 276.501 859.846C240.899 857.693 211.487 880.461 205.186 915.6C198.813 951.163 211.241 987.744 230.393 1017.48C231.118 1018.61 231.962 1019.47 232.856 1020.21C232.3 1024.2 231.813 1028.21 231.47 1032.22C230.224 1046.68 252.781 1046.6 254.022 1032.22C257.353 993.654 276.829 937.089 323.641 936.418C344.947 936.114 364.588 947.208 382.538 957.463C401.618 968.365 420.81 980.705 442.323 986.224C465.903 992.273 487.832 987.073 507.945 973.84Z" fill="#686DE0"/>
<path d="M1284.74 1265.73C1268.3 1255.91 1249.61 1255.27 1231.07 1253.45C1213.98 1251.78 1199.52 1246 1185.02 1236.99C1170.6 1228.03 1157.12 1217.54 1142 1209.73C1125.01 1200.96 1106.66 1196.9 1088.19 1192.63C1062.41 1186.69 1017.01 1172.05 1025.41 1136.5C1033.98 1100.27 1078.06 1089.79 1107.13 1076.16C1168.58 1047.34 1212.73 990.51 1237.01 928.282C1265.05 856.403 1268.17 774.11 1258.53 698.228C1254.11 663.418 1244.75 627.145 1220 600.91C1199.33 579.01 1167.35 566.926 1137.45 571.836C1123.14 574.187 1107.57 581.54 1098.82 593.484C1087.5 608.939 1097.62 626.04 1110.63 636.42C1123.64 646.8 1137.46 655.181 1147.75 668.666C1158.03 682.136 1163.34 697.702 1162.9 714.672C1162.38 734.515 1155.37 753.716 1149.95 772.598C1144.12 792.895 1140.87 813.487 1138.24 834.402C1133.77 869.81 1129.9 906.754 1109.27 937.035C1100.56 949.82 1088.51 960.359 1074.04 966.052C1056.74 972.854 1037.84 974.211 1019.82 978.233C988.637 985.19 951.698 1008.43 919.621 992.963C885.956 976.731 904.089 933.327 915.957 908.753C924.493 891.078 933.043 873.016 934.863 853.212C936.63 833.991 929.176 817.755 920.654 801.113C913.509 787.155 908.473 772.864 916.633 758.148C924.242 744.422 938.532 736.079 954.127 735.35C980.845 734.105 1022.86 754.16 1011.31 786.783C1007.22 798.337 997.912 806.718 985.828 808.799C975.196 810.629 976.234 824.316 983.134 829.41C1003.09 844.14 1025.56 857.885 1050.67 860.782C1075.47 863.64 1097.63 851.164 1109.83 829.685C1132.68 789.467 1124.8 737.89 1100.89 700.092C1074.88 658.967 1030.66 634.073 983.751 624.384C936.398 614.607 881.089 615.297 837.087 637.245C796.536 657.475 765.009 706.87 783.467 752.417C788.367 764.507 796.512 774.472 802.846 785.755C808.413 795.676 810.769 806.467 810.561 817.798C810.127 841.774 800.162 864.886 793.074 887.452C785.577 911.317 780.903 935.331 784.37 960.354C787.711 984.461 797.367 1007.69 811.542 1027.45C818.977 1037.81 827.397 1047.26 836.879 1055.78C846.4 1064.34 856.292 1072.35 862.723 1083.63C874.528 1104.33 875.846 1129.61 879.486 1152.65C887.027 1200.36 901.439 1249.59 935.969 1285.05C965.275 1315.15 1005.93 1332.03 1033.35 1364.07C1039.38 1371.11 1044.51 1379.24 1047.92 1387.87C1048.92 1390.4 1050.55 1392.54 1052.58 1394.03C1046.65 1395.01 1043.41 1402.57 1044.86 1407.86C1046.64 1414.35 1052.68 1416.6 1058.73 1415.74C1148 1403 1231.57 1354.56 1287.01 1283.44C1291.44 1277.77 1291.58 1269.81 1284.74 1265.73Z" fill="#686DE0"/>
<path d="M354.689 464.983C357.605 466.73 360.516 468.478 363.432 470.231C366.913 472.316 370.399 472.191 373.335 470.796C375.44 470.998 377.728 470.467 380.05 468.874C390.918 461.439 404.451 468.111 412.403 476.942C423.58 489.35 428.031 506.919 435.399 521.572C448.782 548.188 478.851 571.493 508.683 554.059C531.37 540.797 539.838 512.809 554.061 492.28C562.399 480.244 574.831 471.399 588.9 467.372C605.716 462.559 622.546 466.441 639.401 468.903C656.391 471.38 673.211 471.964 689.443 465.557C702.638 460.348 714.167 452.401 725.441 443.918C747.09 427.628 769.709 408.239 798.59 416.717C815.053 421.55 829.228 431.867 844.103 440.06C859.089 448.312 875.968 455.085 893.315 455.264C927.666 455.621 949.021 427.025 950.17 394.73C950.855 375.452 943.903 357.062 935.971 339.836C927.478 321.398 918.261 303.597 911.84 284.266C898.684 244.642 893.996 202.957 897.598 161.388C898.254 153.789 889.892 148.937 883.326 150.516C846.479 159.365 803.543 182.1 803.408 225.403C803.345 245.053 811.519 263.389 817.279 281.799C821.634 295.713 826.312 313.876 812.205 323.937C805.079 329.021 795.606 329.953 787.133 330.475C776.97 331.097 766.768 330.957 756.644 332.203C734.822 334.887 717.233 345.465 700.108 358.67C682.713 372.082 666.076 385.924 644.171 391.013C622.001 396.159 598.358 393.374 576.883 386.465C533.827 372.618 496.68 338.986 479.575 296.983C479.184 296.017 478.677 295.129 478.122 294.279C478.764 291.696 478.508 288.91 476.968 286.274C474.105 281.383 466.525 278.67 461.542 282.228C407.705 320.659 371.384 379.097 360.203 443.889C350.556 444.082 344.26 458.721 354.689 464.983Z" fill="#686DE0"/>
<path d="M1463.88 604.454C1452.75 562.919 1438.84 522.141 1422.55 482.344C1408.12 447.066 1392.05 412.362 1372.3 379.711C1333.45 315.498 1280.22 261.367 1209.76 233.017C1170.52 217.234 1127.49 209.92 1085.24 211.735C1065.28 212.594 1043.11 214.395 1024.1 220.98C1021.87 221.753 1019.59 222.738 1017.32 223.901C1014.7 220.145 1011.71 216.64 1008.4 213.487C997.875 203.493 981.9 219.411 992.449 229.434C995.365 232.206 997.813 235.247 999.913 238.487C994.771 245.917 993.115 254.82 998.991 264.056C1001.82 268.502 1006.2 269.801 1010.26 269.106C1012.86 287.843 1011.44 308.16 1012.82 325.062C1014.19 341.946 1017.01 360.032 1026.97 374.226C1040.01 392.809 1060.89 401.123 1083.23 400.915C1107.29 400.688 1130.52 393.041 1154.67 393.509C1175.57 393.91 1196.73 398.747 1214.84 409.432C1253.88 432.461 1259.64 476.947 1264.5 518.067C1267.05 539.657 1269.51 561.741 1277.25 582.207C1285.87 604.995 1300.41 621.439 1318.53 637.318C1336.38 652.947 1351.04 670.009 1358.92 692.753C1366.23 713.89 1368.1 736.93 1362.93 758.781C1357.04 783.674 1342.65 805.318 1332.73 828.647C1322.27 853.241 1319.13 878.853 1319.51 905.432C1319.88 931.527 1322.82 957.738 1320.01 983.785C1317.22 1009.61 1304.97 1030.13 1291.61 1051.75C1279.94 1070.63 1269.04 1090.89 1269.56 1113.71C1270 1132.9 1277.23 1152.85 1293.45 1164.14C1313.81 1178.32 1337.99 1169.27 1357.24 1158.05C1367.78 1151.91 1377.98 1145.66 1389.72 1142.05C1401.51 1138.43 1413.66 1136.88 1425.98 1137.39C1438.31 1137.89 1450.22 1140.78 1461.66 1145.34C1469.16 1148.33 1475.23 1140.91 1475.93 1134.47C1485.7 1044.54 1495.45 954.368 1495.85 863.805C1496.23 776.234 1486.57 689.132 1463.88 604.454Z" fill="#686DE0"/>
<path d="M750.716 506.9C728.609 506.799 707.636 521.809 689.787 533.256C678.586 540.44 667.727 548.146 657.144 556.223C634.892 564.218 614.59 576.172 600.884 596.875C591.995 610.301 582.388 634.799 599.368 646.053C614.726 656.23 637.823 647.235 652.819 640.838C672.58 632.409 691.578 621.922 710.759 612.266C729.072 603.05 749.306 595.074 765.992 583.018C781.05 572.141 792.213 555.194 788.92 535.945C785.806 517.671 768.343 506.982 750.716 506.9Z" fill="#686DE0"/>
<path d="M879.608 506.657C861.735 506.802 849.322 527.505 855.377 543.814C858.491 552.195 864.931 559.128 873.076 562.87C882.056 566.988 891.326 567.625 900.992 565.8C909.441 564.207 917.919 560.388 925.19 555.855C932.765 551.133 939.645 544.219 941.223 535.09C944.168 518.013 930.283 501.047 913.564 498.083C901.079 495.862 889.598 499.903 879.608 506.657Z" fill="#686DE0"/>
<path d="M1116.55 530.011C1124.14 525.507 1129.56 518.868 1132.8 510.733C1138.65 496.037 1133.63 477.116 1119.79 468.807C1106.93 461.087 1087.33 464.018 1078.46 476.479C1075.98 477.657 1073.57 478.955 1071.37 480.597C1063.29 486.608 1057.68 495.081 1056.98 505.307C1055.63 524.899 1076.25 536.022 1093.28 536.148C1101.31 536.201 1109.62 534.12 1116.55 530.011Z" fill="#686DE0"/>
</g>
</g>
<mask id="mask2_694_3032" style="mask-type:luminance" maskUnits="userSpaceOnUse" x="290" y="238" width="1154" height="1154">
<path d="M1274.53 1222.34C1499.55 997.313 1499.55 632.473 1274.53 407.446C1049.5 182.42 684.661 182.42 459.635 407.446C234.608 632.473 234.608 997.313 459.635 1222.34C684.661 1447.37 1049.5 1447.37 1274.53 1222.34Z" fill="white"/>
</mask>
<g mask="url(#mask2_694_3032)">
<path opacity="0.1" d="M659.138 194.229C659.138 194.229 420.683 634.354 784.367 960.355C1148.05 1286.36 1491.09 977.514 1491.09 977.514C1491.09 977.514 1250.91 1553.81 635.959 1405.8C21.0114 1257.78 233.719 330.745 659.138 194.229Z" fill="black"/>
</g>
<mask id="mask3_694_3032" style="mask-type:luminance" maskUnits="userSpaceOnUse" x="290" y="238" width="1154" height="1154">
<path d="M1274.53 1222.34C1499.55 997.313 1499.55 632.473 1274.53 407.446C1049.5 182.42 684.661 182.42 459.635 407.446C234.608 632.473 234.608 997.313 459.635 1222.34C684.661 1447.37 1049.5 1447.37 1274.53 1222.34Z" fill="white"/>
</mask>
<g mask="url(#mask3_694_3032)">
<path opacity="0.1" d="M548.022 252.314C548.022 252.314 290.863 673.62 668.664 1041.89C1046.46 1410.17 1431.41 1174.2 1431.41 1174.2C1431.41 1174.2 1040.11 1641.25 560.72 1330.46C81.3329 1019.67 205.147 564.381 548.022 252.314Z" fill="black"/>
</g>
<path d="M1398.06 1399.7C1296.13 1438.48 1009.44 1287.6 721.349 1037.58C433.247 787.556 243.502 524.985 267.536 418.605L75.9173 252.314C56.1321 259.102 39.7797 269.584 27.3138 283.952C-86.458 415.051 165.578 820.092 590.254 1188.64C1014.93 1557.18 1451.43 1749.67 1565.2 1618.57C1577.67 1604.2 1585.74 1586.53 1589.68 1565.99L1398.06 1399.7Z" fill="url(#paint2_linear_694_3032)"/>
<g opacity="0.3">
<path d="M1103.39 377.624C1092.82 346.759 1061.46 329.069 1032.51 318.607C991.405 303.751 947.094 296.939 903.429 298.392C868.557 299.551 827.07 303.495 797.455 324.478C775.618 333.945 757.672 350.293 756.282 376.639C754.273 414.592 800.434 433.779 829.807 444.545C865.723 457.711 904.361 463.505 942.179 468.149C980.929 472.91 1023.76 475.048 1060.34 459.02C1090.95 445.598 1115.08 411.778 1103.39 377.624Z" fill="white"/>
<path d="M1235.58 513.523C1226.64 502.481 1212.88 496.287 1199.04 494.211C1192.32 493.202 1185.1 492.888 1177.85 493.414C1168.26 493.328 1158.76 495.336 1149.82 499.454C1137.75 505.011 1125.49 515.527 1121.81 528.746C1113.42 558.911 1149.43 576.282 1172.66 582.322C1186.8 585.996 1202.29 586.875 1216.04 581.231C1228.57 576.084 1239.11 566.544 1243.82 553.653C1248.91 539.715 1244.65 524.719 1235.58 513.523Z" fill="white"/>
</g>
<path d="M1425.28 1239.62C1422.17 1239.62 1422.16 1244.45 1425.28 1244.45C1428.38 1244.45 1428.39 1239.62 1425.28 1239.62Z" fill="#30336B"/>
<path d="M1493.24 1351.09C1490.13 1351.09 1490.13 1355.92 1493.24 1355.92C1496.35 1355.92 1496.35 1351.09 1493.24 1351.09Z" fill="#30336B"/>
<path d="M1438.86 1459.84C1435.76 1459.84 1435.75 1464.67 1438.86 1464.67C1441.97 1464.67 1441.98 1459.84 1438.86 1459.84Z" fill="#30336B"/>
<path d="M1468.78 1579.46C1465.67 1579.46 1465.66 1584.29 1468.78 1584.29C1471.88 1584.29 1471.89 1579.46 1468.78 1579.46Z" fill="#30336B"/>
<path d="M1215.93 1530.53C1212.83 1530.53 1212.82 1535.36 1215.93 1535.36C1219.04 1535.36 1219.04 1530.53 1215.93 1530.53Z" fill="#30336B"/>
<path d="M1180.59 1451.68C1177.49 1451.68 1177.48 1456.51 1180.59 1456.51C1183.7 1456.51 1183.7 1451.68 1180.59 1451.68Z" fill="#30336B"/>
<path d="M1074.56 1470.71C1071.45 1470.71 1071.45 1475.54 1074.56 1475.54C1077.66 1475.54 1077.67 1470.71 1074.56 1470.71Z" fill="#30336B"/>
<path d="M973.964 1274.97C970.854 1274.97 970.85 1279.79 973.964 1279.79C977.073 1279.79 977.078 1274.97 973.964 1274.97Z" fill="#30336B"/>
<path d="M742.873 1190.68C739.769 1190.68 739.759 1195.51 742.873 1195.51C745.977 1195.51 745.982 1190.68 742.873 1190.68Z" fill="#30336B"/>
<path d="M740.153 1117.28C737.048 1117.28 737.039 1122.11 740.153 1122.11C743.257 1122.11 743.262 1117.28 740.153 1117.28Z" fill="#30336B"/>
<path d="M565.641 1088.86C565.544 1088.56 565.375 1088.3 565.143 1088.08C564.926 1087.84 564.665 1087.68 564.366 1087.58C564.076 1087.43 563.768 1087.36 563.434 1087.37C562.812 1087.4 562.165 1087.61 561.725 1088.08C561.291 1088.55 561.02 1089.13 561.02 1089.79V1092.51C561.006 1092.84 561.078 1093.15 561.228 1093.44C561.325 1093.74 561.494 1094 561.725 1094.22C561.943 1094.45 562.203 1094.62 562.503 1094.71C562.792 1094.86 563.101 1094.94 563.434 1094.92C564.057 1094.89 564.704 1094.69 565.143 1094.22C565.578 1093.74 565.848 1093.16 565.848 1092.51V1089.79C565.863 1089.46 565.79 1089.14 565.641 1088.86Z" fill="#30336B"/>
<path d="M451.965 829.09C448.861 829.09 448.856 833.918 451.965 833.918C455.075 833.918 455.079 829.09 451.965 829.09Z" fill="#30336B"/>
<path d="M332.34 823.654C329.236 823.654 329.231 828.482 332.34 828.482C335.445 828.482 335.45 823.654 332.34 823.654Z" fill="#30336B"/>
<path d="M318.748 706.75C315.643 706.75 315.638 711.578 318.748 711.578C321.857 711.578 321.862 706.75 318.748 706.75Z" fill="#30336B"/>
<path d="M152.905 587.125C149.8 587.125 149.791 591.953 152.905 591.953C156.009 591.953 156.019 587.125 152.905 587.125Z" fill="#30336B"/>
<path d="M199.121 478.375C196.012 478.375 196.007 483.203 199.121 483.203C202.226 483.203 202.231 478.375 199.121 478.375Z" fill="#30336B"/>
<path d="M98.5331 350.592C95.4287 350.592 95.419 355.42 98.5331 355.42C101.638 355.42 101.642 350.592 98.5331 350.592Z" fill="#30336B"/>
<path d="M166.502 258.155C163.398 258.155 163.388 262.983 166.502 262.983C169.607 262.983 169.612 258.155 166.502 258.155Z" fill="#30336B"/>
<path d="M253.5 298.938C250.396 298.938 250.386 303.766 253.5 303.766C256.605 303.766 256.61 298.938 253.5 298.938Z" fill="#30336B"/>
<path d="M272.528 361.47C269.423 361.47 269.419 366.298 272.528 366.298C275.637 366.298 275.642 361.47 272.528 361.47Z" fill="#30336B"/>
<path d="M383.998 323.407C380.894 323.407 380.884 328.235 383.998 328.235C387.107 328.235 387.112 323.407 383.998 323.407Z" fill="#30336B"/>
<path d="M1408.96 1207.3C1402.75 1207.3 1402.74 1216.96 1408.96 1216.96C1415.17 1216.96 1415.18 1207.3 1408.96 1207.3Z" fill="#30336B"/>
<path d="M1471.49 1302.46C1465.28 1302.46 1465.27 1312.11 1471.49 1312.11C1477.71 1312.11 1477.72 1302.46 1471.49 1302.46Z" fill="#30336B"/>
<path d="M1528.59 1457.43C1522.37 1457.43 1522.36 1467.08 1528.59 1467.08C1534.8 1467.08 1534.81 1457.43 1528.59 1457.43Z" fill="#30336B"/>
<path d="M1354.59 1468.3C1348.38 1468.3 1348.37 1477.95 1354.59 1477.95C1360.8 1477.95 1360.81 1468.3 1354.59 1468.3Z" fill="#30336B"/>
<path d="M1324.68 1604.24C1318.46 1604.24 1318.45 1613.89 1324.68 1613.89C1330.89 1613.89 1330.9 1604.24 1324.68 1604.24Z" fill="#30336B"/>
<path d="M1012.03 1449.27C1005.81 1449.27 1005.8 1458.92 1012.03 1458.92C1018.24 1458.92 1018.25 1449.27 1012.03 1449.27Z" fill="#30336B"/>
<path d="M1025.62 1294.3C1019.41 1294.3 1019.4 1303.96 1025.62 1303.96C1031.83 1303.96 1031.84 1294.3 1025.62 1294.3Z" fill="#30336B"/>
<path d="M840.746 1297.02C834.533 1297.02 834.523 1306.68 840.746 1306.68C846.96 1306.68 846.97 1297.02 840.746 1297.02Z" fill="#30336B"/>
<path d="M805.404 1182.83C799.19 1182.83 799.181 1192.49 805.404 1192.49C811.618 1192.49 811.627 1182.83 805.404 1182.83Z" fill="#30336B"/>
<path d="M631.403 1079.52C625.189 1079.52 625.179 1089.17 631.403 1089.17C637.616 1089.17 637.626 1079.52 631.403 1079.52Z" fill="#30336B"/>
<path d="M514.498 1109.43C508.285 1109.43 508.275 1119.08 514.498 1119.08C520.712 1119.08 520.722 1109.43 514.498 1109.43Z" fill="#30336B"/>
<path d="M422.059 894.646C415.845 894.646 415.836 904.302 422.059 904.302C428.273 904.302 428.282 894.646 422.059 894.646Z" fill="#30336B"/>
<path d="M329.624 864.74C323.411 864.74 323.401 874.396 329.624 874.396C335.838 874.396 335.848 864.74 329.624 864.74Z" fill="#30336B"/>
<path d="M343.213 701.617C336.999 701.617 336.989 711.273 343.213 711.273C349.426 711.273 349.436 701.617 343.213 701.617Z" fill="#30336B"/>
<path d="M188.25 652.681C182.036 652.681 182.026 662.337 188.25 662.337C194.463 662.337 194.473 652.681 188.25 652.681Z" fill="#30336B"/>
<path d="M220.872 519.461C214.658 519.461 214.649 529.117 220.872 529.117C227.085 529.117 227.095 519.461 220.872 519.461Z" fill="#30336B"/>
<path d="M93.0901 429.743C86.8765 429.743 86.8668 439.399 93.0901 439.399C99.3038 439.399 99.3134 429.743 93.0901 429.743Z" fill="#30336B"/>
<path d="M177.373 326.429C171.159 326.429 171.15 336.085 177.373 336.085C183.586 336.085 183.596 326.429 177.373 326.429Z" fill="#30336B"/>
<path d="M201.843 413.43C195.629 413.43 195.619 423.086 201.843 423.086C208.056 423.086 208.066 413.43 201.843 413.43Z" fill="#30336B"/>
<path d="M441.093 345.46C434.879 345.46 434.87 355.116 441.093 355.116C447.307 355.116 447.316 345.46 441.093 345.46Z" fill="#30336B"/>
<path d="M1493.03 1259.64C1492.8 1258.7 1492.37 1257.88 1491.73 1257.18C1491.22 1256.39 1490.54 1255.77 1489.7 1255.32C1488.08 1254.46 1486.13 1254.04 1484.33 1254.55C1484.45 1253.83 1484.48 1253.12 1484.32 1252.41C1484.28 1251.44 1484 1250.55 1483.47 1249.72C1482.47 1248.17 1480.98 1246.81 1479.14 1246.39C1477.28 1245.96 1475.21 1246.07 1473.56 1247.12C1470.7 1248.94 1468.6 1251.69 1467.7 1254.98C1467.45 1255.91 1467.36 1256.9 1467.25 1257.86C1467.2 1258.28 1467.18 1258.7 1467.2 1259.13C1467.27 1260.48 1467.43 1261.94 1467.93 1263.21C1468.27 1264.08 1468.63 1265.08 1469.15 1265.9C1469.68 1266.71 1470.28 1267.52 1470.96 1268.21C1472.43 1269.71 1474.02 1270.5 1475.92 1271.26C1477.2 1271.77 1478.63 1271.93 1479.98 1272C1480.37 1272.02 1480.74 1272 1481.12 1271.96C1482.11 1271.86 1483.14 1271.76 1484.11 1271.5C1485.49 1271.13 1486.91 1270.55 1488.08 1269.7C1488.86 1269.13 1489.79 1268.49 1490.46 1267.72C1491.12 1266.96 1491.81 1266.13 1492.3 1265.23C1493.21 1263.53 1493.55 1261.52 1493.03 1259.64Z" fill="#30336B"/>
<path d="M1410.5 1449.44C1410.16 1448.22 1409.54 1447.15 1408.64 1446.25C1405.86 1443.94 1403.09 1441.63 1400.31 1439.32C1399.65 1438.61 1398.88 1438.11 1397.98 1437.82C1397.11 1437.36 1396.19 1437.16 1395.19 1437.2C1394.19 1437.16 1393.26 1437.36 1392.4 1437.82C1391.5 1438.11 1390.72 1438.61 1390.07 1439.32C1388.8 1440.7 1387.86 1442.51 1387.95 1444.44C1388.03 1445.08 1388.12 1445.72 1388.2 1446.36C1388.55 1447.59 1389.17 1448.66 1390.07 1449.56L1395.14 1456.09C1395.79 1456.8 1396.57 1457.3 1397.47 1457.59C1398.33 1458.04 1399.26 1458.25 1400.26 1458.21C1400.56 1458.22 1400.84 1458.17 1401.13 1458.14C1401.88 1458.46 1402.67 1458.64 1403.52 1458.61C1404.51 1458.65 1405.44 1458.44 1406.31 1457.99C1407.21 1457.7 1407.98 1457.2 1408.64 1456.49C1409.9 1455.11 1410.85 1453.3 1410.76 1451.37C1410.68 1450.73 1410.59 1450.09 1410.5 1449.44Z" fill="#30336B"/>
<path d="M1265.58 1430.88C1264.59 1427.83 1261.88 1425.58 1258.6 1425.57C1257.68 1425.56 1256.78 1425.54 1255.87 1425.47C1255.54 1425.45 1255.22 1425.42 1254.9 1425.39C1254.96 1425.41 1255.02 1425.42 1255.08 1425.44C1255.01 1425.41 1254.91 1425.41 1254.83 1425.38C1254.8 1425.37 1254.77 1425.37 1254.73 1425.37C1253.96 1425.29 1254.12 1425.26 1254.45 1425.29C1253.78 1425.14 1253.01 1425.08 1252.39 1424.94C1251.58 1424.76 1250.77 1424.56 1249.96 1424.32C1249.16 1424.09 1248.37 1423.83 1247.58 1423.55C1247.54 1423.53 1247.46 1423.49 1247.41 1423.47C1248.31 1421.16 1249.22 1418.85 1250.12 1416.55C1251.23 1413.71 1249.4 1409.75 1246.79 1408.37C1244.06 1406.92 1240.19 1407.04 1238.01 1409.5C1234.39 1413.6 1230.77 1417.7 1227.15 1421.79C1224.65 1424.63 1224.15 1429.28 1227.15 1432.04C1228.73 1433.48 1230.99 1434.24 1233.15 1434.06C1233.08 1436.46 1233.64 1438.88 1234.71 1441.01C1235.38 1442.34 1236.37 1443.62 1237.51 1444.58C1239.73 1446.45 1241.85 1447.03 1244.7 1446.55C1245.37 1446.44 1246.04 1446.29 1246.71 1446.13C1252.24 1444.81 1257.64 1442.36 1262.26 1439.05C1264.79 1437.24 1266.62 1434.12 1265.58 1430.88Z" fill="#30336B"/>
<path d="M1254.89 1425.39C1254.73 1425.34 1254.59 1425.31 1254.45 1425.29C1254.58 1425.32 1254.72 1425.34 1254.83 1425.38C1254.86 1425.39 1254.87 1425.39 1254.89 1425.39Z" fill="#30336B"/>
<path d="M984.851 1410.14C984.122 1404.71 980.544 1400.59 975.446 1398.76C971.975 1397.51 968.156 1397.83 964.549 1398.03C963.086 1398.11 961.653 1398.06 960.199 1398.03C959.948 1397.97 959.697 1397.9 959.451 1397.83C959.103 1397.62 958.761 1397.41 958.432 1397.16C954.304 1393.97 946.879 1398.24 947.535 1403.41C948.318 1409.59 949.105 1415.78 949.891 1421.97C949.119 1423.58 948.636 1425.32 948.66 1427.1C948.786 1436.21 958.92 1442.74 967.35 1440.77C975.813 1438.8 980.178 1430.21 982.838 1422.77C984.291 1418.71 985.435 1414.49 984.851 1410.14Z" fill="#30336B"/>
<path d="M688.713 1207.26C688.732 1207.27 688.727 1207.26 688.747 1207.27C688.713 1207.25 688.684 1207.22 688.65 1207.2C688.612 1207.17 688.578 1207.15 688.539 1207.12C688.491 1207.09 688.443 1207.08 688.389 1207.05C688.375 1207.05 688.36 1207.04 688.346 1207.03L688.356 1207.04C688.303 1207.02 688.259 1206.99 688.201 1206.98C688.341 1207.05 688.539 1207.17 688.626 1207.21C688.66 1207.24 688.723 1207.27 688.761 1207.3L688.752 1207.28C688.742 1207.28 688.727 1207.27 688.713 1207.26Z" fill="#30336B"/>
<path d="M712.339 1206.54C710.833 1205.16 709.234 1204.66 707.216 1204.42C706.468 1204.34 705.705 1204.43 704.942 1204.49C704.913 1204.47 704.894 1204.46 704.865 1204.45C704.793 1204.39 704.715 1204.32 704.648 1204.26C704.551 1204.17 704.464 1204.07 704.373 1203.98C705.304 1203.11 706.062 1201.98 706.579 1200.63C707.916 1197.17 705.903 1193.36 702.828 1191.64C701.553 1189.65 699.409 1188.27 696.841 1188.32C691.226 1188.44 685.872 1190.23 681.295 1193.23C681.16 1193.28 681.015 1193.28 680.88 1193.33C675.356 1195.48 671.566 1199.91 671.354 1206C671.248 1209.04 673.667 1212.3 676.67 1212.98C679.866 1213.71 683.1 1212.48 684.848 1209.66C685.075 1209.29 685.321 1208.94 685.548 1208.58C685.553 1208.57 685.553 1208.57 685.558 1208.56C686.079 1207.95 686.61 1207.36 687.19 1206.8C687.306 1206.8 687.422 1206.8 687.537 1206.8C687.75 1206.85 687.962 1206.9 688.175 1206.96C688.184 1206.97 688.194 1206.97 688.204 1206.98C688.102 1206.92 688.03 1206.88 687.895 1206.8C687.895 1206.8 687.9 1206.8 687.909 1206.8C688.054 1206.88 688.204 1206.96 688.349 1207.03C688.059 1206.82 688.262 1206.9 688.546 1207.12C688.851 1207.26 688.981 1207.36 688.749 1207.27C688.802 1207.3 688.851 1207.34 688.904 1207.37C688.909 1207.38 688.913 1207.38 688.918 1207.39C688.865 1207.36 688.812 1207.33 688.764 1207.3C688.909 1207.45 689.058 1207.64 689.213 1207.83C689.295 1207.96 689.377 1208.08 689.449 1208.21C689.618 1208.49 689.787 1208.98 690 1209.29C690.265 1210.08 690.473 1210.89 690.632 1211.71V1211.72C690.632 1212.13 690.724 1212.59 690.743 1212.96C690.791 1213.91 690.796 1214.85 690.763 1215.79C690.763 1215.84 690.753 1215.9 690.753 1215.95C690.743 1215.98 690.729 1216 690.724 1216.02C689.84 1218.59 689.995 1221.13 690.391 1223.77C690.84 1226.75 694.49 1229.21 697.372 1229.08C700.307 1228.95 703.851 1226.96 704.353 1223.77C704.566 1222.4 704.759 1221.04 704.904 1219.68C705.005 1219.56 705.102 1219.45 705.145 1219.41C705.213 1219.34 705.295 1219.26 705.377 1219.19C705.469 1219.14 705.56 1219.09 705.647 1219.03C706.13 1219.03 706.618 1218.95 707.11 1218.9C707.144 1218.91 707.173 1218.91 707.207 1218.91L707.202 1218.89C707.844 1218.82 708.486 1218.8 709.128 1218.65C712.638 1217.83 714.772 1214.11 714.314 1210.7C714.125 1209.18 713.502 1207.61 712.339 1206.54Z" fill="#30336B"/>
<path d="M542.182 923.169C542.606 920.325 541.337 917.516 538.749 915.792L522.005 904.625C518.848 902.52 513.851 903.905 512.098 907.222C510.148 910.916 511.364 914.822 514.696 917.129C515.304 917.549 515.908 917.984 516.511 918.409C516.115 918.819 515.666 919.172 515.386 919.712C510.732 928.552 512.383 939.097 518.269 946.421C517.602 946.812 516.936 947.208 516.27 947.604C511.485 950.433 511.688 957.236 516.27 960.108C530.556 969.074 546.232 954.01 547.275 939.797C547.719 933.863 545.431 928.123 542.182 923.169ZM530.59 935.099C531.039 934.93 531.449 934.669 531.888 934.467C532.009 934.776 532.139 935.094 532.178 935.21C532.405 935.915 532.545 936.639 532.753 937.344C532.781 937.45 532.801 937.489 532.825 937.557C532.825 937.595 532.82 937.6 532.82 937.648C532.82 938.175 532.81 938.735 532.835 939.261C532.839 939.348 532.844 939.377 532.849 939.44C532.844 939.459 532.844 939.459 532.839 939.478C532.796 939.657 532.748 939.831 532.709 940.009C532.695 940.004 532.675 939.995 532.661 939.99C532.289 939.787 531.912 939.604 531.55 939.377C531.121 939.106 530.145 938.122 531.319 939.28C530.947 938.913 530.532 938.59 530.16 938.218C529.788 937.841 529.465 937.431 529.103 937.045C530.276 938.286 529.238 937.18 528.992 936.799C528.755 936.432 528.543 936.045 528.33 935.659C529.103 935.548 529.865 935.379 530.59 935.099Z" fill="#30336B"/>
<path d="M250.949 763.343C250.423 763.106 249.911 762.855 249.418 762.551C249.356 762.512 249.235 762.43 249.105 762.339C249.071 762.31 249.027 762.271 249.008 762.252C248.68 761.948 248.39 761.614 248.091 761.281C247.936 761.025 247.762 760.774 247.618 760.514C247.536 760.364 247.449 760.166 247.357 759.983C247.217 759.538 247.091 759.094 246.966 758.645C246.951 758.5 246.942 758.356 246.937 758.216C246.922 757.564 246.971 756.927 247.053 756.284C247.618 751.828 241.935 747.763 237.884 749.303C234.819 750.471 231.603 751.997 228.769 753.972C224.221 754.015 219.89 755.739 216.207 758.679C211.818 762.179 208.994 768.176 209.568 773.82C210.215 780.159 213.493 785.697 218.896 789.153C221.759 790.983 225.872 792.354 229.252 791.582C231.545 791.06 232.796 789.226 234.259 787.613C235.161 786.619 236.108 785.658 237.088 784.736C238.102 783.78 239.169 782.891 240.245 782.008C240.588 781.815 241.032 781.414 241.278 781.24C241.829 780.854 242.384 780.473 242.949 780.106C245.488 778.455 248.173 777.04 250.954 775.843C255.743 773.791 255.642 765.433 250.949 763.343Z" fill="#30336B"/>
<path d="M262.593 566.467C262.164 565.713 261.628 565.052 261.039 564.453C260.561 563.314 260.006 562.204 259.291 561.223C257.616 558.916 255.834 557.033 253.381 555.522C250.89 553.986 248.158 553.291 245.275 553.083C243.503 552.953 241.374 553.981 240.153 555.203C238.897 556.458 237.951 558.52 238.033 560.325C238.115 562.199 238.733 564.14 240.153 565.448C241.012 566.235 241.958 566.718 242.968 567.06C242.248 568.446 241.78 569.967 241.765 571.594C241.736 574.703 243.141 577.933 245.522 579.971C248.394 582.423 252.063 583.669 255.824 582.727C257.258 582.37 258.668 581.675 259.721 580.622C260.783 579.56 261.304 578.266 261.792 576.89C262.135 575.93 262.289 574.901 262.41 573.882C263.771 571.676 263.984 568.905 262.593 566.467Z" fill="#30336B"/>
<path d="M76.8873 498.281C73.5318 494.554 67.7672 492.454 62.804 492.966C59.999 493.255 57.4353 494.062 54.9923 495.138C52.9114 492.695 50.3719 490.634 47.8517 489.248C44.5349 487.418 39.8034 488.331 37.9446 491.846C36.1486 495.245 36.9984 499.802 40.5421 501.753C41.1263 502.076 41.6719 502.496 42.2512 502.834C42.3092 502.882 42.3671 502.931 42.425 502.979C42.7823 503.293 43.1251 503.616 43.4582 503.954C43.4968 503.993 43.5307 504.031 43.5644 504.07C43.5403 504.147 43.4824 504.191 43.463 504.268C43.4534 504.302 43.4534 504.34 43.4437 504.374C38.9296 506.378 36.0135 510.824 36.168 515.836C36.3031 520.07 38.1861 524.541 41.4112 527.351C45.7564 531.141 51.1444 531.966 56.6966 530.817C61.4281 529.837 65.8022 527.114 69.7274 524.396C73.416 521.842 77.3411 518.786 79.2385 514.581C81.7877 508.942 81.0828 502.94 76.8873 498.281Z" fill="#30336B"/>
<path d="M71.8141 261.048C70.3319 258.465 67.9179 256.012 65.1804 254.781C62.8823 253.748 60.6228 253.163 58.0736 253.163C57.3349 253.163 56.5818 253.255 55.8286 253.347C55.423 252.956 54.9789 252.603 54.4719 252.333C50.962 250.479 46.6506 251.464 44.5649 254.93C43.7103 256.35 43.1551 257.88 42.8268 259.449C42.3585 259.826 41.8853 260.188 41.4315 260.589C40.0893 261.762 39.312 263.978 39.312 265.711C39.312 267.488 40.099 269.608 41.4315 270.834C42.7206 272.017 44.3911 272.881 46.1774 272.924C47.5437 274.716 49.0935 276.285 50.9571 277.646C51.6717 278.168 52.4345 278.617 53.2456 278.984C54.554 279.577 55.9106 280.195 57.3397 280.451C60.5214 281.026 63.5437 280.92 66.5468 279.655C67.213 279.375 67.8841 279.114 68.5021 278.732C69.9746 277.825 70.8968 276.806 71.8817 275.401C72.7024 274.228 73.3204 272.799 73.5763 271.389C74.2136 267.778 73.6535 264.248 71.8141 261.048Z" fill="#30336B"/>
<path d="M321.21 289.518C320.133 287.616 318.69 286.332 316.961 285.072C316.078 284.43 315.025 284.053 314.021 283.652C313.799 283.565 313.572 283.488 313.335 283.43C312.51 283.232 311.636 283.14 310.796 283.073C310.579 283.054 310.361 283.058 310.144 283.078C309.43 283.136 308.657 283.237 307.952 283.372C307.836 283.396 307.725 283.42 307.614 283.454C305.727 284.009 304.737 284.748 303.245 285.946C302.719 286.433 302.347 287.012 302.052 287.63C302.009 287.664 301.966 287.698 301.927 287.727C301.029 288.63 300.411 289.697 300.063 290.923C299.981 291.126 299.914 291.338 299.87 291.556C299.793 291.947 299.754 292.386 299.701 292.753C299.648 293.154 299.561 293.603 299.547 294.028C299.518 295.046 299.658 296.108 299.967 297.079C300.208 297.837 300.551 298.59 300.894 299.305C300.985 299.493 301.087 299.672 301.203 299.845C301.647 300.507 302.154 301.144 302.67 301.752C302.81 301.917 302.96 302.071 303.119 302.216C303.708 302.761 304.38 303.235 305.026 303.717C305.205 303.848 305.384 303.973 305.572 304.084C305.76 304.195 305.958 304.302 306.156 304.393C306.895 304.736 307.653 305.069 308.421 305.34C309.391 305.682 310.545 305.769 311.52 305.871C312.539 305.977 313.64 305.764 314.61 305.595C315.59 305.426 316.57 304.958 317.42 304.519C317.854 304.292 318.231 303.959 318.608 303.664C319.013 303.35 319.462 303.051 319.81 302.665C320.346 302.071 320.838 301.434 321.278 300.763C321.727 300.072 322.002 299.247 322.296 298.489C322.369 298.305 322.431 298.122 322.47 297.929C322.557 297.528 322.596 297.089 322.644 296.697C322.697 296.292 322.784 295.853 322.798 295.428C322.876 293.41 322.195 291.261 321.21 289.518Z" fill="#30336B"/>
<path d="M142.033 457.233C132.715 457.233 132.696 471.717 142.033 471.717C151.351 471.717 151.365 457.233 142.033 457.233Z" fill="#30336B"/>
<defs>
<linearGradient id="paint0_linear_694_3032" x1="16.4076" y1="47.5825" x2="1521.25" y2="1333.37" gradientUnits="userSpaceOnUse">
<stop stop-color="#4834D4"/>
<stop offset="0.5" stop-color="#8D405B" stop-opacity="0"/>
<stop offset="1" stop-color="#EB4D4B"/>
</linearGradient>
<linearGradient id="paint1_linear_694_3032" x1="348.531" y1="1319.99" x2="1081.9" y2="605.662" gradientUnits="userSpaceOnUse">
<stop stop-color="#F0932B"/>
<stop offset="1" stop-color="#E056FD"/>
</linearGradient>
<linearGradient id="paint2_linear_694_3032" x1="-182.318" y1="280.164" x2="1322.53" y2="1565.95" gradientUnits="userSpaceOnUse">
<stop stop-color="#4834D4"/>
<stop offset="0.5" stop-color="#8D405B" stop-opacity="0"/>
<stop offset="1" stop-color="#EB4D4B"/>
</linearGradient>
</defs>
</svg>
