<svg width="463" height="463" viewBox="0 0 463 463" fill="none" xmlns="http://www.w3.org/2000/svg">
<path opacity="0.1" d="M328.714 365.01C402.594 311.176 418.846 207.646 365.015 133.768C311.183 59.8898 207.652 43.6403 133.772 97.4735C59.8917 151.307 43.6392 254.837 97.4709 328.715C151.303 402.593 254.834 418.843 328.714 365.01Z" fill="#F9CA24"/>
<path opacity="0.1" d="M231.229 372.994C309.548 372.994 373.038 309.505 373.038 231.186C373.038 152.868 309.548 89.3784 231.229 89.3784C152.911 89.3784 89.4214 152.868 89.4214 231.186C89.4214 309.505 152.911 372.994 231.229 372.994Z" fill="#F9CA24"/>
<path d="M356.061 271.814C353.463 268.797 348.92 268.097 346.221 271.409C343.479 274.774 345.463 279.298 349.195 280.731C350.571 281.263 352.189 280.147 352.556 278.824C352.981 277.284 352.029 276 350.649 275.464C350.359 275.353 350.272 274.769 350.871 274.585C350.89 274.595 350.919 274.6 350.958 274.61C351.194 274.658 351.334 274.812 351.513 274.952C352.005 275.329 352.387 275.884 352.734 276.391C354.057 278.356 354.709 280.703 354.738 283.059C354.772 285.506 354.178 287.935 352.923 290.045C352.02 291.566 349.857 294.433 347.848 293.97C346.424 293.642 345.256 291.483 344.44 290.243C343.054 288.138 341.635 286.037 339.544 284.575C337.251 282.977 334.422 282.474 332.423 280.432C332.471 279.94 332.38 279.409 332.085 278.863C330.279 275.57 331.366 272.814 332.495 269.535C333.673 266.112 333.089 262.665 329.937 260.594C328.812 259.855 327.503 259.479 326.33 258.827C324.978 258.074 323.969 256.886 323.351 255.471C322.077 252.565 322.622 249.195 323.906 246.395C324.331 245.473 325.012 243.43 326.238 243.648C327.634 243.894 328.879 245.506 329.927 246.337C332.635 248.49 336.242 249.784 339.255 247.389C341.355 245.719 341.5 243.146 343.103 241.205C344.619 239.37 348.389 243.117 349.538 244.237C351.634 246.284 353.536 249.19 352.493 252.212C352.126 253.279 351.445 254.371 350.398 254.882C349.949 255.104 349.48 255.215 348.993 255.124C348.761 255.08 348.621 254.993 348.408 254.897C348.133 254.771 348.08 254.395 348.104 254.689C347.974 253.222 346.946 251.961 345.377 251.961C344.001 251.961 342.514 253.217 342.649 254.689C343.049 259.155 347.607 261.593 351.75 260.208C355.414 258.981 357.717 255.346 358.166 251.638C358.663 247.515 356.582 243.638 353.782 240.751C351.02 237.902 346.516 234.262 342.262 235.421C340.413 235.923 339.018 237.304 338.096 238.931C337.41 240.138 337.082 241.741 336.184 242.812C335.262 243.913 333.838 242.537 332.94 241.765C331.23 240.297 329.488 238.713 327.194 238.264C326.432 238.115 325.731 238.115 325.07 238.211C324.988 238.139 324.915 238.066 324.824 237.999C323.873 237.333 323.013 236.536 322.275 235.643C321.99 235.295 321.753 234.803 321.468 234.431C323.477 233.76 325.239 231.655 325.973 229.791C326.856 227.556 326.499 225.074 324.79 223.322C323.279 221.772 320.942 221.511 319.484 219.971C318.161 218.576 317.765 216.553 318.571 214.795C319.532 212.715 321.541 212.005 323.699 211.86C326.325 211.686 329.034 211.899 331.573 211.049C333.64 210.359 335.523 209.166 337.019 207.578C340.061 204.348 341.62 199.901 341.813 195.512C342.021 190.815 340.505 185.292 336.03 182.979C333.833 181.84 331.211 181.54 328.903 182.52C327.803 182.989 326.9 183.732 326.007 184.519C325.422 185.036 324.882 185.741 324.046 185.436C322.144 184.741 321.965 181.719 321.85 180.121C321.676 177.712 321.724 174.231 319.885 172.377C317.765 170.233 314.642 171.59 312.604 173.115C310.543 174.66 309.055 176.789 308.22 179.223C307.385 181.671 307.419 184.403 308.278 186.837C308.887 188.565 310.967 191.544 309.92 193.359C308.008 192.244 306.588 190.11 306.352 187.99C306.154 186.238 307.037 184.606 306.81 182.853C306.526 180.647 304.932 179.194 302.91 178.499C301.447 177.996 299.873 177.992 298.593 177.036C297.449 176.181 296.638 174.849 296.343 173.463C295.561 169.774 299.182 166.974 300.037 163.58C300.988 159.8 299.593 156.024 295.798 154.624C294.373 154.103 292.824 154.04 291.332 153.861C290.864 153.803 290.381 153.755 289.932 153.605C289.932 153.605 289.864 153.576 289.792 153.547C289.801 153.485 289.816 153.422 289.85 153.354C290.279 152.669 290.448 151.722 290.854 150.989C291.274 150.235 291.747 149.521 292.307 148.864C293.659 147.286 295.325 146.04 296.575 144.36C299.221 140.802 298.207 136.91 295.049 134.091C291.535 130.948 287.677 127.8 283.139 126.313C278.504 124.792 273.536 125.429 269.702 128.471C267.906 129.895 269.244 132.362 270.909 133.033C273.097 133.912 275.491 135.38 276.249 137.75C277.109 140.449 275.255 141.627 273.401 143.133C272.329 144.003 271.46 145.026 270.905 146.296C270.354 147.561 270.369 149.193 269.659 150.356C268.843 151.703 266.777 151.665 265.478 151.148C263.412 150.327 262.147 148.005 261.316 146.079C260.235 143.573 259.622 140.888 258.569 138.363C257.43 135.631 255.832 133.434 253.712 131.382C252.616 130.32 249.42 127.64 250.68 125.762C251.568 124.435 254.528 124.773 255.88 124.686C258.646 124.517 261.094 124.039 263.296 122.262C264.445 121.335 264.261 119.365 263.296 118.4C262.161 117.265 260.587 117.468 259.433 118.4C257.801 119.718 254.697 119.216 252.756 119.423C249.879 119.727 247.059 120.741 245.722 123.522C244.042 127.003 245.702 130.793 248.083 133.463C248.425 133.849 248.792 134.211 249.164 134.569C248.334 135.665 248.556 137.079 249.41 138.127C250.207 139.097 248.3 140.488 247.494 140.652C245.036 141.149 242.603 139.619 240.604 138.402C239.407 137.673 238.224 136.91 236.964 136.287C236.191 135.906 234.796 135.621 234.439 134.776C234.009 133.762 234.497 132 234.675 130.957C234.917 129.543 235.226 128.138 235.486 126.723C236.466 121.461 236.771 115.445 232.942 111.162C229.649 107.479 223.624 106.73 219.935 110.202C217.372 112.616 221.239 116.468 223.798 114.064C224.759 113.161 226.212 113.248 227.37 113.745C228.944 114.417 229.847 115.908 230.296 117.497C231.585 122.045 229.722 126.858 229.133 131.368C229.056 131.976 228.983 132.599 228.954 133.217C226.304 134.786 222.943 133.555 221.654 130.841C221.075 129.615 219.028 129.026 217.917 129.861C215.136 131.961 209.333 136.244 206.731 131.706C204.375 127.597 206.856 122.146 207.02 117.801C207.185 113.388 205.567 108.261 201.135 106.484C197.171 104.896 192.459 106.537 191.025 110.694C190.596 111.94 191.349 113.065 192.281 113.774C194.376 115.382 194.328 118.882 194.255 121.229C194.236 121.934 194.217 122.653 194.139 123.353C194.125 123.488 194.115 123.681 194.081 123.85C194.009 123.875 193.864 123.952 193.7 123.957C192.15 124.029 190.46 124.913 189.369 125.984C187.139 128.171 186.405 131.401 186.246 134.419C186.111 136.958 186.806 140.28 185.304 142.54C184.58 143.626 183.199 143.925 182.098 144.505C180.471 145.359 179.231 146.706 178.666 148.468C178.207 149.893 178.279 151.418 178.236 152.891C178.192 154.523 177.826 155.121 176.203 155.677C169.768 157.878 163.424 153.258 159.527 148.57C155.037 143.167 150.002 136.355 142.021 137.296C138.632 137.697 134.639 140.386 135.537 144.326C136.314 147.735 140.476 148.995 143.354 150.067C145.995 151.051 148.983 151.853 151.156 153.745C153.579 155.855 153.975 159.273 155.766 161.828C156.761 163.247 157.992 164.213 159.441 165.135C160.426 165.762 161.135 166.216 160.884 167.433C160.237 170.605 156.626 170.972 153.99 170.706C149.958 170.301 145.753 168.336 141.722 169.813C137.917 171.203 135.503 175.602 137.724 179.329C138.135 180.019 138.835 180.623 138.999 181.434C139.144 182.153 138.849 182.974 138.627 183.645C138.067 185.359 137.198 187.136 136.126 188.589C135.315 189.695 134.185 190.771 132.771 190.964C131.993 191.071 130.444 190.926 130.086 190.042C128.768 186.769 124.293 188 124.824 191.496C125.534 196.164 129.753 198.791 133.509 200.939C135.136 201.871 137.169 202.914 138.048 204.666C138.328 205.231 138.526 206.023 138.439 206.718C137.999 206.931 137.599 207.288 137.299 207.843C135.286 211.566 133.326 215.954 134.982 220.184C135.61 221.791 137.372 223.37 137.101 225.195C136.821 227.073 135.098 228.7 133.785 229.912C132.722 230.892 131.076 232.799 129.502 232.114C127.827 231.384 126.277 229.83 125.012 228.555C122.54 226.059 120.643 222.337 123.028 219.15C124.679 216.939 121.478 213.975 119.291 215.413C115.042 218.214 112.358 223.182 112.937 228.328C113.502 233.354 116.848 237.714 121.546 239.578C123.689 240.427 126.012 240.654 128.286 240.915C130.106 241.123 132.249 241.234 133.847 242.214C135.735 243.372 135.88 245.535 135.885 247.568C135.885 248.345 136.121 250.04 135.624 250.711C135.117 251.401 134.084 251.063 133.278 250.957C127.223 250.19 121.285 252.053 116.94 256.408C115.68 257.673 115.998 259.783 117.495 260.695C119.175 261.724 121.077 262.24 122.994 262.612C124.65 262.931 126.6 263.075 128.083 263.843C129.41 264.529 129.14 265.987 128.933 267.585C128.624 269.946 128.59 272.476 130.453 274.257C132.38 276.097 134.813 275.903 137.261 275.788C138.801 275.715 139.786 276.072 139.24 277.806C138.637 279.737 135.943 280.302 134.214 280.601C131.622 281.055 128.928 281.021 126.422 281.905C120.734 283.913 117.62 289.528 118.601 295.418C118.938 297.446 121.864 298.035 123.163 296.62C124.674 294.979 126.856 294.182 129.082 294.607C131.274 295.027 132.742 296.731 134.074 298.402C137.208 302.327 139.926 306.199 145.463 306.122C146.613 306.107 147.009 305.919 147.496 306.899C147.974 307.85 148.249 308.893 148.737 309.844C149.944 312.2 152.44 313.765 155.134 313.074C158.243 312.278 160.03 309.4 160.657 306.436C161.188 303.925 161.256 301.154 164.056 300.126C166.354 299.285 168.918 300.753 169.512 303.104C169.908 304.678 169.507 306.431 169.483 308.034C169.454 309.859 169.787 311.597 170.704 313.19C171.404 314.416 173.167 314.952 174.398 314.19C174.021 315.03 173.451 315.846 172.978 316.608C171.713 318.665 170.448 320.838 170.342 323.319C170.072 329.658 176.85 331.585 181.896 331.981C183.291 332.092 184.735 330.639 184.624 329.253C184.493 327.558 185.126 325.931 186.613 324.995C188.524 323.788 190.866 324.396 192.353 322.296C192.995 321.388 193.299 320.36 193.309 319.24C193.314 318.482 192.792 317.043 193.135 316.333C193.705 315.16 194.796 316.024 194.473 317.081C193.43 320.447 198.697 321.885 199.74 318.535C199.774 318.424 199.779 318.313 199.808 318.202C200.875 319.544 201.43 321.398 201.724 323.001C202.424 326.8 201.937 330.721 202.975 334.486C204.974 341.709 211.824 345.702 218.936 346.344C220.906 346.523 222.465 343.853 221.292 342.235C219.264 339.44 216.72 336.244 216.493 332.657C216.353 330.499 217.241 327.664 219.54 326.998C221.104 326.54 222.9 326.979 224.498 326.993C226.299 327.013 228.129 326.709 229.664 325.724C232.469 323.923 232.812 320.814 234.246 318.1C235.404 315.903 238.48 315.503 240.078 317.521C242.062 320.022 240.421 322.812 239.247 325.217C237.765 328.258 236.491 331.86 238.963 334.786C239.952 335.954 241.304 336.664 242.777 337.026C244.032 337.335 245.954 337.161 247.025 337.934C247.981 338.624 248.189 340.155 248.536 341.207C249.159 343.104 250.11 344.862 251.762 346.049C254.798 348.237 258.743 346.928 259.964 343.428C260.476 341.96 260.413 340.338 260.056 338.841C259.641 337.113 258.646 335.52 259.168 333.724C259.998 330.846 262.205 328.558 261.982 325.376C261.915 324.401 261.659 323.532 261.244 322.648C260.93 321.982 260.346 321.345 260.114 320.654C259.781 319.66 260.848 319.225 261.717 318.931C263.078 318.462 264.556 318.699 265.961 318.781C267.81 318.887 269.717 318.921 271.498 318.337C274.719 317.279 276.722 313.045 280.469 314.011C283.129 314.696 284.244 317.675 283.284 320.099C282.043 323.223 279.363 325.555 278.103 328.698C276.8 331.932 277.393 335.737 280.107 338.083C282.82 340.43 286.784 341.159 290.178 340.019C294.166 338.672 296.99 335.524 299.38 332.208C300.244 331.01 299.588 329.166 298.4 328.471C297.024 327.664 295.532 328.249 294.663 329.451C292.92 331.87 290.444 334.849 287.238 335.09C285.225 335.24 282.564 334.091 282.873 331.701C283.226 329.021 285.818 326.665 287.16 324.435C288.913 321.523 289.748 318.12 288.488 314.841C288.483 314.827 288.474 314.812 288.469 314.798C289.087 313.852 289.135 312.611 288.02 311.631C285.77 309.661 280.754 305.572 283.655 302.231C284.94 300.753 285.973 302.086 287.001 303.172C288.551 304.814 290.294 306.243 292.631 306.46C295.016 306.682 297.27 305.33 298.023 303.008C298.695 300.941 297.956 298.542 296.783 296.809C296.194 295.935 293.809 293.685 294.538 292.816C295.822 291.29 299.033 293.791 300.046 294.462C301.857 295.664 304.068 294.052 304.155 292.106C304.16 292.029 304.899 291.826 305.212 291.826C306.361 291.817 307.061 292.801 307.597 293.709C309.2 296.451 309.77 299.59 311.798 302.115C313.734 304.524 316.853 306.045 319.938 305.06C322.859 304.123 324.988 301.304 325.205 298.267C325.437 295.027 323.124 292.884 321.048 290.774C320.643 290.363 319.914 289.784 319.962 289.209C319.996 288.785 320.744 288.287 321.015 288.012C321.666 287.346 322.323 286.67 322.801 285.864C324.669 282.721 323.453 279.008 321.29 276.377C319.479 274.17 315.612 272.62 314.854 269.719C314.062 266.677 317.432 268.179 318.716 269.255C320.585 270.82 321.748 273.074 322.854 275.199C325.509 280.311 327.962 285.164 333.49 287.621C334.851 288.225 336.266 288.751 337.338 289.823C338.188 290.677 338.839 291.677 339.501 292.671C340.901 294.786 342.301 297.084 344.522 298.431C350.591 302.115 356.689 295.582 358.823 290.373C361.314 284.261 360.401 276.859 356.061 271.814Z" fill="url(#paint0_radial_694_3331)"/>
<path d="M231.23 312.071C275.901 312.071 312.114 275.858 312.114 231.187C312.114 186.516 275.901 150.304 231.23 150.304C186.559 150.304 150.347 186.516 150.347 231.187C150.347 275.858 186.559 312.071 231.23 312.071Z" fill="url(#paint1_linear_694_3331)"/>
<mask id="mask0_694_3331" style="mask-type:luminance" maskUnits="userSpaceOnUse" x="150" y="150" width="163" height="163">
<path d="M288.413 288.387C320 256.8 320 205.587 288.413 174C256.826 142.413 205.613 142.413 174.026 174C142.439 205.587 142.439 256.8 174.026 288.387C205.613 319.974 256.826 319.974 288.413 288.387Z" fill="white"/>
</mask>
<g mask="url(#mask0_694_3331)">
<path d="M297.201 182.646C296.559 183.003 295.97 183.443 295.391 183.887C295.101 183.81 294.811 183.737 294.609 183.655C292.711 182.849 290.901 181.574 289.158 180.483C285.339 178.088 281.703 175.438 278.28 172.507C275.017 169.707 271.651 166.564 267.07 166.477C265.959 166.458 263.536 167.37 262.039 167.298C261.889 164.459 260.755 161.968 258.481 160.355C257.911 158.941 257.25 157.569 256.269 156.309C253.783 153.118 250.181 151.665 247.154 149.154C247.111 149.12 247.067 149.077 247.024 149.038C247.13 148.541 247.217 148.039 247.246 147.508C247.516 142.747 244.928 138.18 241.095 135.462C236.639 132.3 230.947 131.904 225.665 131.802C219.562 131.686 219.562 141.169 225.665 141.285C228.354 141.338 231.994 141.26 234.65 142.593C234.611 142.81 234.572 143.027 234.553 143.254C234.476 144.384 234.91 145.384 235.606 146.18C235.567 147.213 235.625 148.242 235.968 149.347C236.011 149.492 236.088 149.632 236.137 149.777C235.282 150.907 234.321 152.046 233.964 153.35C232.68 157.999 235.427 162.822 239.4 165.212C241.486 166.467 243.808 167.008 246.193 167.307C247.613 167.486 249.597 167.303 251.234 167.554C251.562 168.558 251.915 169.543 252.354 170.455C252.301 170.895 252.209 171.329 252.171 171.759C251.987 173.98 252.364 176.288 253.547 178.204C255.796 181.854 259.944 183.385 264.018 183.814C267.34 184.167 271.777 182.545 274.881 183.93C276.518 184.659 276.986 186.634 277.518 188.184C278.256 190.327 279 192.481 280.308 194.349C283.21 198.492 288.134 200.645 292.957 198.477C295.55 197.309 297.192 195.083 299.084 193.161C301.469 192.432 303.396 190.723 304.144 188.015C305.278 183.954 300.784 180.647 297.201 182.646Z" fill="#F0932B"/>
<path d="M230.768 182.202C230.763 181.97 230.797 181.661 230.831 181.348C230.754 182.033 231.275 179.928 231.357 179.658C231.627 178.789 231.941 177.934 232.144 177.046C232.941 173.555 232.482 169.978 230.396 167.004C227.316 162.62 222.768 160.867 217.882 160.206C217.602 159.95 217.312 159.704 217.018 159.467C217.423 157.188 217.042 154.919 215.579 153.036C214.179 151.231 212.18 150.25 210.201 149.212C207.937 148.025 205.677 146.842 203.413 145.654C201.143 144.467 198.261 145.075 196.924 147.354C195.673 149.488 196.349 152.65 198.623 153.843C198.961 154.021 199.299 154.195 199.637 154.374C197.127 154.06 194.664 153.548 192.501 152.298C192.496 152.317 192.487 152.331 192.482 152.346C192.115 152.167 191.763 151.979 191.372 151.82C189.218 150.941 186.568 152.602 185.776 154.567C184.907 156.725 185.631 159.284 187.717 160.486C188.151 160.737 188.591 160.959 189.035 161.171C189.049 161.181 189.078 161.196 189.078 161.196C189.532 161.577 189.923 162.036 190.309 162.485C190.995 163.276 191.613 164.121 192.294 164.918C194.128 167.066 196.446 168.611 199.096 169.577C202.259 170.731 205.643 170.837 208.999 170.533C209.11 175.646 209.945 180.773 213.102 184.93C216.83 189.845 223.483 193.138 229.604 190.82C231.396 190.144 232.762 188.874 232.999 186.881C233.201 185.123 232.434 183.091 230.768 182.202Z" fill="#F0932B"/>
<path d="M316.857 218.286C316.707 216.548 315.722 214.873 313.646 214.139C311.155 213.255 308.557 213.395 306.023 214.028C303.84 214.573 301.393 216.056 299.104 215.911C297.212 215.79 295.792 213.984 294.513 212.758C292.499 210.837 290.419 209.132 287.86 208.007C284.384 206.482 280.516 206.226 276.837 205.41C275.495 204.662 274.056 204.034 272.516 203.551C271.942 203.373 271.353 203.233 270.764 203.092C265.897 200.374 261.253 197.12 255.334 198.057C252.707 198.472 250.008 199.65 248.608 202.05C246.947 204.889 247.869 208.606 250.713 210.272C252.881 211.541 255.951 211.271 258.37 211.358C261.103 211.455 263.884 211.479 266.592 211.908C267.022 211.976 267.437 212.073 267.852 212.16C268.384 212.478 268.837 212.734 269.166 212.874C270.233 213.338 271.362 213.651 272.521 213.917C274.737 215.206 276.524 217.089 277.692 219.807C278.749 222.269 279.213 224.78 281.714 226.252C282.901 226.948 284.166 227.218 285.533 227.194C286.798 227.17 288.516 226.228 289.617 226.31C291.505 226.45 293.851 229.366 295.613 230.308C298.23 231.708 301.103 232.447 304.058 232.606C309.789 232.915 315.606 230.559 319.488 226.354C322.375 223.23 319.98 219.015 316.857 218.286Z" fill="#F0932B"/>
<path d="M311.666 255.534L295.067 250.861C292.924 250.257 290.259 249.881 288.366 248.635C286.869 247.65 286.425 245.922 285.827 244.319C284.006 239.476 281.457 235.986 276.552 234.016C273.346 232.727 269.155 232.674 266.317 230.646C265.274 229.902 264.588 229.028 263.338 228.579C261.754 228.01 259.939 228.116 258.452 228.985C255.878 230.491 254.763 233.803 255.381 236.623C255.922 239.09 257.559 241.282 259.678 242.639C261.938 244.082 264.53 243.908 266.848 245C267.456 245.284 268.484 246.274 268.465 246.443C268.451 246.569 267.427 247.602 267.239 247.92C266.394 249.335 266.037 251.17 266.481 252.773C267.215 255.447 269.629 257.296 272.255 257.89C275.403 258.605 278.242 257.388 281.317 257.074C281.631 257.041 281.983 257.041 282.297 257.055C282.587 257.07 282.939 257.253 283.046 257.287C283.306 257.659 283.702 258.59 283.958 259.092C285.064 261.289 286.662 263.288 289.095 264.065C291.963 264.983 294.894 263.655 297.81 263.655C298.012 263.655 298.21 263.684 298.408 263.689C298.655 265.89 300.702 268.314 303.101 268C305.747 267.652 308.137 267.015 310.386 265.528C310.691 265.33 310.951 265.084 311.202 264.823C315.528 264.143 316.798 256.978 311.666 255.534Z" fill="#F0932B"/>
<path d="M239.408 218.422C237.636 217.688 235.966 218.045 234.266 218.658C234.242 218.586 234.223 218.523 234.213 218.513C233.866 217.871 233.827 217.041 233.851 215.805C233.88 214.376 234.155 212.995 234.643 211.585C235.787 208.273 238.496 205.826 237.221 202.031C235.84 197.932 231.452 197.449 227.749 197.714C223.992 197.985 220.294 199.144 218.093 202.417C216.205 205.222 215.852 208.901 217.672 211.832C218.537 213.222 219.884 214.27 221.337 214.984C220.642 215.877 220.082 216.853 219.778 217.992C219.44 219.267 219.676 220.589 220.318 221.676C219.309 222.709 218.546 223.979 218.194 225.558C217.281 229.642 219.724 233.63 223.79 234.644C225.137 234.982 226.561 235.025 227.942 235.049C228.42 235.059 228.902 235.078 229.38 235.098C229.482 235.561 229.612 236.039 229.689 236.445C230.047 238.27 230.829 239.993 232.19 241.297C234.884 243.865 238.949 242.576 240.113 239.206C241.199 236.054 241.972 232.838 242.43 229.536C242.99 225.615 243.98 220.319 239.408 218.422Z" fill="#F0932B"/>
<path d="M196.447 191.752C194.077 188.951 190.495 187.701 187.038 186.856C186.415 186.706 185.073 186.629 184.551 186.151C183.793 186.286 183.779 186.059 184.508 185.466C184.739 185.205 184.937 184.92 185.097 184.611C185.971 183.056 186.212 181.381 185.976 179.628C185.483 176.007 182.972 173.386 180.013 171.479C177.425 169.813 174.61 168.423 171.82 167.047C171.8 166.516 171.786 165.985 171.767 165.453C171.694 163.179 168.522 162.127 167.349 164.256C167.224 164.483 167.098 164.71 166.972 164.932C165.162 164.961 163.883 167.187 164.93 168.606C163.94 170.383 162.956 172.164 162 173.96C161.29 175.293 160.609 176.621 160.45 178.146C160.295 179.643 160.769 181.004 160.904 182.477C161.169 185.379 159.354 188.145 160.382 191.052C161.444 194.055 164.399 195.049 167.079 196.198C170.632 197.724 174.181 199.249 177.734 200.78C180.047 201.775 186.188 203.276 186.55 206.4C186.912 209.572 182.775 213.096 181.128 215.457C179.129 218.325 177.604 221.434 176.334 224.683C175.455 226.938 178.748 228.623 180.298 226.991C183.494 223.612 186.859 220.329 189.896 216.804C192.247 214.076 194.024 211.049 193.575 207.341C193.285 204.956 194.627 205.265 196.249 203.841C197.452 202.788 198.239 201.422 198.596 199.863C199.228 197.038 198.292 193.929 196.447 191.752Z" fill="#F0932B"/>
<path d="M200.049 234.02C199.774 234.049 199.494 234.102 199.204 234.242C196.254 235.681 193.087 237.467 191.918 240.745C191.325 242.411 191.276 244.241 191.865 245.834C188.505 246.814 184.797 245.419 181.649 243.884C177.744 241.981 173.775 239.746 169.319 239.601C167.02 239.529 164.621 240.803 162.395 240.523C160.174 240.243 159.387 237.858 159.494 235.893C159.735 231.437 163.993 227.333 165.78 223.403C168.213 218.059 172.66 204.333 164.486 201.783C159.769 200.311 154.535 199.756 149.683 198.795C146.584 198.182 142.639 197.453 140.877 200.847C140.109 202.329 140.843 203.739 142.291 204.328C144.31 205.149 146.313 205.105 148.447 205.25C149.393 205.313 150.644 205.356 151.445 205.964C152.995 207.142 151.571 208.63 150.683 209.764C148.095 213.066 146.072 216.427 144.836 220.473C142.364 228.588 142.32 238.018 143.17 246.404C143.977 254.38 147.776 261.081 156.568 261.337C162.009 261.496 167.658 260.342 173.056 259.744C178.038 259.188 183.199 258.957 188.095 257.851C192.643 256.823 196.457 254.351 198.683 250.189C200.889 246.056 201.478 241.296 203.578 237.124C204.795 234.715 201.719 232.567 200.049 234.02Z" fill="#F0932B"/>
<path d="M221.864 262.612C218.61 263.341 217.596 266.441 216.38 269.115C215.549 270.94 215.38 270.844 214.342 269.169C213.324 267.522 212.401 265.929 210.683 264.896C207.583 263.032 203.619 263.375 200.331 264.505C195.885 266.035 192.211 269.748 187.532 270.559C182.651 271.404 178.547 266.035 173.618 268.56C171.436 269.68 170.243 271.988 167.916 272.915C165.41 273.91 162.697 273.586 160.409 272.239C158.979 271.394 157.652 272.23 157.13 273.408C154.702 275.498 154.905 279.848 155.576 282.803C156.638 287.481 159.626 291.416 163.619 293.989C165.459 295.177 167.515 293.222 167.1 291.315C165.966 286.067 173.584 285.043 177.036 284.975C181.734 284.884 185.746 284.565 190.202 282.948C194.615 281.345 198.308 280.152 202.755 282.373C206.251 284.121 209.316 286.11 213.314 286.414C214.308 286.491 215.375 285.627 215.602 284.676C216.182 282.238 216.819 279.597 217.973 277.357C219.117 275.141 220.45 276.546 222.188 277.468C224.708 278.805 227.759 279.781 230.072 277.482C234.668 272.905 228.232 261.183 221.864 262.612Z" fill="#F0932B"/>
<path d="M273.456 284.58C271.341 284.971 268.995 286.873 266.861 286.284C265.345 285.864 264.138 284.184 263.187 283.04C261.188 280.65 259.223 277.632 255.998 276.845C252.15 275.909 249.205 278.757 247.925 282.098C247.191 284.02 246.921 286.173 245.869 287.959C244.449 290.378 241.818 292.155 239.008 292.44C236.154 292.729 233.364 291.638 230.496 292C227.908 292.329 225.953 293.743 223.805 295.11C219.266 297.992 215.389 294.752 210.832 293.637C208.871 293.159 206.796 293.048 204.937 293.956C202.47 295.163 201.987 297.504 200.191 299.329C197.965 301.584 194.296 301.415 191.399 301.169C187.87 300.864 184.543 300.425 181.029 301.154C180.425 301.28 180.034 301.594 179.759 301.965C179.57 302.009 179.382 302.052 179.194 302.096C176.717 302.656 177.176 305.905 179.194 306.668C197.535 313.61 217.161 315.966 236.652 316.758C245.4 317.111 254.636 317.579 262.887 314.117C270.284 311.018 276.594 303.761 285.009 303.66C285.762 303.65 286.738 303.23 287.056 302.487C290.938 293.289 283.874 282.663 273.456 284.58Z" fill="#F0932B"/>
<path d="M261.341 262.94C259.236 261.366 256.281 260.806 253.693 260.874C251.057 260.942 248.402 261.671 246.142 263.051C245.896 263.206 245.606 263.433 245.317 263.669C245.292 263.481 245.268 263.288 245.244 263.1C245.114 262.076 244.602 261.077 243.501 260.816C243.178 260.739 242.845 260.695 242.516 260.666C242.415 260.613 242.328 260.541 242.217 260.493C240.073 259.619 237.659 259.049 235.535 260.304C233.72 261.381 232.667 263.534 233.319 265.605C233.889 267.411 235.55 268.362 237.326 268.628C238.688 268.831 240.353 268.599 241.57 269.26C243.178 270.129 244.216 271.592 246.08 272.06C248.151 272.582 250.092 271.684 251.733 270.482C253.046 269.526 254.191 268.652 255.876 268.681C257.377 268.705 258.666 269.386 259.646 270.511C260.704 271.727 262.582 271.216 263.369 270.033C265.049 267.498 263.513 264.567 261.341 262.94Z" fill="#F0932B"/>
<path d="M299.719 275.064C297.257 272.78 294.235 271.925 290.961 271.578C288.417 271.307 286.095 271.225 283.85 270.313C283.763 270.25 283.69 270.168 283.599 270.115C283.121 269.816 282.623 269.603 282.117 269.429C282.092 269.415 282.068 269.4 282.044 269.386C281.556 269.067 281.069 268.787 280.581 268.522C280.76 267.653 280.485 266.706 279.495 266.122C277.293 264.823 274.469 264.823 272.374 266.359C272.069 266.581 271.828 266.861 271.625 267.16C269.076 267.957 270.216 271.969 272.967 271.626C273.46 272.061 274.01 272.437 274.648 272.717C276.284 273.427 277.969 273.33 279.688 273.639C279.818 273.663 279.934 273.721 280.065 273.755C280.21 273.842 280.354 273.934 280.504 274.021C280.89 274.252 281.296 274.412 281.696 274.595C283.232 275.788 284.376 277.729 285.945 278.791C287.302 279.708 288.919 280.036 290.536 279.935C291.893 279.848 293.612 279.192 294.737 280.201C296.736 282.001 297.556 284.845 300.588 285.284C301.916 285.478 303.799 284.7 303.587 283.001C303.215 279.974 301.984 277.169 299.719 275.064Z" fill="#F0932B"/>
<path d="M305.285 242.59C305.136 242.04 304.711 241.446 304.194 241.175C303.644 240.886 302.978 240.741 302.369 240.939C302.181 241.021 301.993 241.098 301.804 241.175C301.727 241.224 301.689 241.31 301.616 241.364C301.418 241.064 301.177 240.794 300.863 240.61C300.593 240.437 300.298 240.345 299.979 240.33C299.666 240.258 299.352 240.272 299.033 240.374C298.459 240.557 297.908 240.915 297.618 241.465C297.324 242.025 297.194 242.672 297.382 243.29C297.488 243.652 297.638 244.024 297.86 244.338C298.014 244.555 298.179 244.782 298.367 244.98C298.56 245.183 298.821 245.356 299.028 245.516C299.173 245.627 299.328 245.714 299.492 245.786C299.844 245.941 300.182 246.105 300.564 246.167C301.317 246.298 302.099 246.346 302.842 246.09C303.18 245.974 303.547 245.834 303.847 245.627C304.402 245.241 304.653 244.97 305.049 244.42C305.223 244.149 305.314 243.855 305.329 243.536C305.396 243.218 305.382 242.904 305.285 242.59Z" fill="#F0932B"/>
<path d="M249.303 189.318C249.274 189.105 249.245 188.898 249.216 188.685C249.105 188.285 248.902 187.937 248.607 187.638C248.39 187.377 248.105 187.184 247.84 186.981C247.709 186.885 247.574 186.802 247.429 186.73C246.995 186.522 246.584 186.402 246.164 186.315C245.749 186.054 245.291 185.842 244.827 185.702C244.257 185.528 243.625 185.441 243.031 185.504C242.703 185.489 242.399 185.562 242.119 185.707C241.824 185.803 241.573 185.967 241.356 186.199C240.945 186.609 240.636 187.285 240.661 187.874C240.689 188.487 240.887 189.125 241.356 189.55C241.428 189.617 241.515 189.68 241.602 189.743C241.65 189.931 241.669 190.124 241.776 190.293C241.959 190.718 242.268 191.104 242.592 191.428C242.915 191.756 243.301 192.055 243.721 192.258C244.016 192.398 244.32 192.538 244.634 192.635C244.948 192.731 245.31 192.76 245.628 192.799C246.102 192.852 246.589 192.78 247.048 192.673C247.594 192.543 248.202 192.08 248.463 191.582C248.545 191.394 248.622 191.206 248.699 191.017C248.718 190.95 248.714 190.882 248.728 190.81C249.071 190.385 249.327 189.873 249.303 189.318Z" fill="#F0932B"/>
<path d="M207.207 214.481C207.091 213.511 206.705 212.719 205.749 212.314C204.894 211.952 203.818 212.111 203.161 212.801C201.626 214.419 200.51 216.442 200.076 218.638C199.926 219.416 200.143 220.241 200.636 220.83C199.641 221.757 198.647 222.684 197.652 223.606C197.073 224.147 196.773 225.151 197.044 225.914C197.773 227.961 199.859 228.994 201.959 228.439C203.731 227.971 204.856 226.339 205.551 224.755C206.97 221.535 207.627 218.001 207.207 214.481Z" fill="#F0932B"/>
<path d="M200.821 179.44C200.246 178.556 199.387 177.89 198.359 177.62C197.784 177.465 197.205 177.446 196.64 177.533C196.365 177.335 196.065 177.175 195.742 177.089C194.482 176.76 193.096 177.204 192.43 178.368C192.02 179.078 191.942 179.952 192.155 180.739C192.333 181.39 192.686 181.897 193.116 182.409C193.603 182.988 194.221 183.457 194.825 183.915C195.274 184.253 195.747 184.553 196.249 184.804C196.65 185.006 197.065 185.175 197.48 185.344C198.465 185.74 199.542 185.267 200.227 184.533C200.493 184.253 200.744 183.935 200.913 183.582C201.222 182.945 201.318 182.535 201.396 181.839C201.478 181.047 201.256 180.106 200.821 179.44Z" fill="#F0932B"/>
<path d="M179.906 235.32C179.795 234.919 179.592 234.571 179.298 234.272C179.076 234.05 178.853 233.828 178.631 233.606C178.419 233.374 178.163 233.21 177.868 233.113C177.584 232.964 177.279 232.896 176.956 232.911C176.628 232.896 176.324 232.964 176.044 233.113C175.749 233.21 175.498 233.374 175.281 233.606C175.155 233.765 175.035 233.925 174.909 234.084C174.697 234.456 174.585 234.851 174.585 235.281C174.614 235.494 174.643 235.701 174.668 235.914C174.779 236.314 174.986 236.662 175.276 236.961C175.498 237.183 175.72 237.405 175.942 237.628C176.159 237.859 176.41 238.023 176.705 238.12C176.99 238.27 177.294 238.337 177.617 238.323C177.946 238.337 178.25 238.265 178.53 238.12C178.825 238.023 179.08 237.859 179.293 237.628C179.418 237.468 179.539 237.309 179.665 237.15C179.877 236.778 179.988 236.382 179.988 235.952L179.906 235.32Z" fill="#F0932B"/>
<path d="M219.123 250.822H219.128L219.075 250.774L219.123 250.822Z" fill="#F0932B"/>
<path d="M220.729 246.164C218.836 245.299 216.779 245.435 214.94 246.371C214.8 246.444 214.679 246.55 214.539 246.637C213.588 246.173 212.531 245.975 211.377 246.26C209.296 246.767 208.118 248.775 208.041 250.803C207.964 252.812 209.079 254.767 210.855 255.699C212.82 256.732 215.162 256.713 217.248 256.066C217.62 255.95 217.991 255.824 218.368 255.728C218.58 255.67 218.798 255.622 219.015 255.578C219.034 255.573 219.058 255.568 219.082 255.564C218.938 255.578 218.817 255.573 219.087 255.559C219.097 255.559 219.107 255.559 219.116 255.559C219.169 255.554 219.227 255.549 219.266 255.53C219.237 255.54 219.189 255.549 219.14 255.559C219.251 255.554 219.358 255.554 219.464 255.549C219.826 256.08 220.328 256.457 221.062 256.553C222.013 256.679 222.916 256.24 223.423 255.424C225.364 252.339 224.075 247.694 220.729 246.164Z" fill="#F0932B"/>
<path d="M218.429 250.339C218.395 250.33 218.361 250.32 218.323 250.315C218.294 250.31 218.27 250.306 218.231 250.301H218.221C218.419 250.368 218.477 250.364 218.429 250.339Z" fill="#F0932B"/>
<path d="M219.093 255.569C219.117 255.569 219.136 255.564 219.156 255.564C219.146 255.564 219.137 255.564 219.127 255.564C219.117 255.564 219.103 255.564 219.093 255.569Z" fill="#F0932B"/>
</g>
<defs>
<radialGradient id="paint0_radial_694_3331" cx="0" cy="0" r="1" gradientUnits="userSpaceOnUse" gradientTransform="translate(230.159 225.956) scale(162.218 162.218)">
<stop stop-color="#F0932B"/>
<stop offset="0.3349" stop-color="#F9CA24"/>
<stop offset="1" stop-color="#130F40" stop-opacity="0"/>
</radialGradient>
<linearGradient id="paint1_linear_694_3331" x1="203.849" y1="349.132" x2="238.557" y2="199.621" gradientUnits="userSpaceOnUse">
<stop stop-color="#F0932B"/>
<stop offset="1" stop-color="#F9CA24"/>
</linearGradient>
</defs>
</svg>
