<svg width="762" height="762" viewBox="0 0 762 762" fill="none" xmlns="http://www.w3.org/2000/svg">
<path opacity="0.1" d="M743.527 396.169C752.155 195.695 596.636 26.1851 396.165 17.5571C195.694 8.9291 26.1853 164.451 17.5572 364.924C8.92906 565.398 164.448 734.908 364.919 743.536C565.39 752.164 734.899 596.643 743.527 396.169Z" fill="white"/>
<path d="M380.565 695.727C554.552 695.727 695.597 554.682 695.597 380.695C695.597 206.708 554.552 65.6631 380.565 65.6631C206.578 65.6631 65.5332 206.708 65.5332 380.695C65.5332 554.682 206.578 695.727 380.565 695.727Z" fill="url(#paint0_linear_694_2954)"/>
<g opacity="0.7">
<path d="M397.536 429.053C394.432 429.053 394.422 433.881 397.536 433.881C400.64 433.881 400.645 429.053 397.536 429.053Z" fill="white"/>
<path d="M351.319 343.409C348.215 343.409 348.21 348.237 351.319 348.237C354.424 348.237 354.429 343.409 351.319 343.409Z" fill="white"/>
<path d="M227.616 153.403C221.402 153.403 221.393 163.059 227.616 163.059C233.83 163.059 233.839 153.403 227.616 153.403Z" fill="white"/>
<path d="M348.599 158.84C342.385 158.84 342.376 168.496 348.599 168.496C354.813 168.496 354.822 158.84 348.599 158.84Z" fill="white"/>
<path d="M390.74 215.936C384.526 215.936 384.517 225.592 390.74 225.592C396.954 225.592 396.963 215.936 390.74 215.936Z" fill="white"/>
<path d="M364.912 389.932C358.699 389.932 358.689 399.588 364.912 399.588C371.126 399.588 371.136 389.932 364.912 389.932Z" fill="white"/>
<path d="M523.958 358.671C517.744 358.671 517.735 368.327 523.958 368.327C530.171 368.327 530.181 358.671 523.958 358.671Z" fill="white"/>
<path d="M613.677 403.528C607.463 403.528 607.453 413.184 613.677 413.184C619.89 413.184 619.9 403.528 613.677 403.528Z" fill="white"/>
<path d="M673.49 387.214C667.276 387.214 667.266 396.87 673.49 396.87C679.703 396.87 679.713 387.214 673.49 387.214Z" fill="white"/>
<path d="M514.444 471.496C508.23 471.496 508.22 481.152 514.444 481.152C520.657 481.152 520.667 471.496 514.444 471.496Z" fill="white"/>
<path d="M593.29 514.996C587.076 514.996 587.067 524.652 593.29 524.652C599.503 524.652 599.513 514.996 593.29 514.996Z" fill="white"/>
<path d="M411.132 510.917C404.918 510.917 404.908 520.573 411.132 520.573C417.34 520.573 417.355 510.917 411.132 510.917Z" fill="white"/>
<path d="M231.694 505.48C225.48 505.48 225.471 515.136 231.694 515.136C237.908 515.136 237.917 505.48 231.694 505.48Z" fill="white"/>
<path d="M245.287 379.06C239.074 379.06 239.064 388.716 245.287 388.716C251.501 388.716 251.511 379.06 245.287 379.06Z" fill="white"/>
<path d="M86.2415 321.964C80.0278 321.964 80.0182 331.62 86.2415 331.62C92.4551 331.62 92.4648 321.964 86.2415 321.964Z" fill="white"/>
<path d="M95.7561 463.342C89.5425 463.342 89.5328 472.998 95.7561 472.998C101.97 472.998 101.979 463.342 95.7561 463.342Z" fill="white"/>
<path d="M176.292 572.339C176.099 571.741 175.766 571.224 175.292 570.785C174.853 570.311 174.336 569.983 173.738 569.785C173.163 569.481 172.541 569.346 171.879 569.37L170.595 569.544C169.779 569.776 169.069 570.186 168.466 570.785C168.215 571.113 167.964 571.436 167.712 571.76C167.273 572.513 167.056 573.324 167.051 574.198V575.559C167.027 576.226 167.162 576.844 167.466 577.418C167.659 578.017 167.993 578.534 168.466 578.973C168.9 579.446 169.422 579.774 170.02 579.972C170.595 580.276 171.218 580.412 171.879 580.387C172.309 580.33 172.734 580.272 173.163 580.214C173.979 579.982 174.694 579.572 175.292 578.973C175.544 578.645 175.795 578.321 176.046 577.998C176.48 577.244 176.702 576.433 176.707 575.559V574.198C176.731 573.536 176.596 572.914 176.292 572.339Z" fill="white"/>
<path d="M373.066 286.318C369.962 286.318 369.952 291.146 373.066 291.146C376.171 291.146 376.176 286.318 373.066 286.318Z" fill="white"/>
<path d="M434.241 284.957C431.137 284.957 431.127 289.785 434.241 289.785C437.35 289.785 437.355 284.957 434.241 284.957Z" fill="white"/>
<path d="M492.691 374.676C489.587 374.676 489.577 379.504 492.691 379.504C495.801 379.504 495.805 374.676 492.691 374.676Z" fill="white"/>
<path d="M578.336 370.597C575.232 370.597 575.222 375.425 578.336 375.425C581.441 375.425 581.446 370.597 578.336 370.597Z" fill="white"/>
<path d="M658.536 414.097C655.432 414.097 655.422 418.925 658.536 418.925C661.64 418.925 661.645 414.097 658.536 414.097Z" fill="white"/>
<path d="M318.697 166.694C315.587 166.694 315.582 171.522 318.697 171.522C321.801 171.522 321.806 166.694 318.697 166.694Z" fill="white"/>
<path d="M246.645 178.93C243.541 178.93 243.536 183.758 246.645 183.758C249.749 183.758 249.754 178.93 246.645 178.93Z" fill="white"/>
<path d="M188.192 147.663C185.088 147.663 185.078 152.491 188.192 152.491C191.297 152.491 191.302 147.663 188.192 147.663Z" fill="white"/>
<path d="M235.77 278.159C232.666 278.159 232.656 282.987 235.77 282.987C238.879 282.987 238.884 278.159 235.77 278.159Z" fill="white"/>
<path d="M262.96 299.909C259.856 299.909 259.846 304.737 262.96 304.737C266.065 304.737 266.07 299.909 262.96 299.909Z" fill="white"/>
<path d="M216.742 376.037C213.633 376.037 213.628 380.865 216.742 380.865C219.847 380.865 219.852 376.037 216.742 376.037Z" fill="white"/>
<path d="M245.285 438.564C242.18 438.564 242.171 443.392 245.285 443.392C248.394 443.392 248.399 438.564 245.285 438.564Z" fill="white"/>
<path d="M320.053 525.564C316.948 525.564 316.939 530.392 320.053 530.392C323.162 530.392 323.167 525.564 320.053 525.564Z" fill="white"/>
<path d="M476.378 487.506C473.273 487.506 473.264 492.334 476.378 492.334C479.487 492.334 479.492 487.506 476.378 487.506Z" fill="white"/>
<path d="M502.207 516.049C499.098 516.049 499.093 520.877 502.207 520.877C505.317 520.877 505.321 516.049 502.207 516.049Z" fill="white"/>
<path d="M578.336 487.506C575.232 487.506 575.222 492.334 578.336 492.334C581.441 492.334 581.446 487.506 578.336 487.506Z" fill="white"/>
<path d="M118.865 329.818C115.761 329.818 115.751 334.646 118.865 334.646C121.974 334.646 121.979 329.818 118.865 329.818Z" fill="white"/>
<path d="M98.4753 412.74C95.3661 412.74 95.3613 417.568 98.4753 417.568C101.58 417.568 101.585 412.74 98.4753 412.74Z" fill="white"/>
<path d="M107.993 439.926C104.889 439.926 104.879 444.754 107.993 444.754C111.097 444.754 111.102 439.926 107.993 439.926Z" fill="white"/>
<path d="M116.145 522.847C113.041 522.847 113.031 527.675 116.145 527.675C119.254 527.675 119.259 522.847 116.145 522.847Z" fill="white"/>
<path d="M441.035 263.206C437.931 263.206 437.921 268.034 441.035 268.034C444.139 268.034 444.144 263.206 441.035 263.206Z" fill="white"/>
</g>
<mask id="mask0_694_2954" style="mask-type:luminance" maskUnits="userSpaceOnUse" x="65" y="65" width="631" height="631">
<path d="M686.675 455.001C727.788 285.938 624.064 115.556 455.001 74.4425C285.937 33.3293 115.555 137.054 74.442 306.117C33.3288 475.18 137.053 645.562 306.116 686.675C475.18 727.789 645.562 624.064 686.675 455.001Z" fill="white"/>
</mask>
<g mask="url(#mask0_694_2954)">
<path d="M281.673 48.2344C248.992 54.7329 220.396 63.7999 220.222 109.482C220.048 155.17 297.987 122.542 372.299 135.23C446.612 147.918 448.422 300.169 558.988 336.418C669.549 372.666 729.363 316.478 722.112 272.983C714.855 229.482 591.606 -13.3902 281.673 48.2344Z" fill="url(#paint1_linear_694_2954)"/>
</g>
<mask id="mask1_694_2954" style="mask-type:luminance" maskUnits="userSpaceOnUse" x="65" y="65" width="631" height="631">
<path d="M686.675 455.001C727.788 285.938 624.064 115.556 455.001 74.4425C285.937 33.3293 115.555 137.054 74.442 306.117C33.3288 475.18 137.053 645.562 306.116 686.675C475.18 727.789 645.562 624.064 686.675 455.001Z" fill="white"/>
</mask>
<g mask="url(#mask1_694_2954)">
<path d="M140.301 135.231C140.301 135.231 127.613 151.545 181.986 182.357C236.359 213.17 283.485 176.921 323.36 213.17C363.234 249.419 305.236 405.295 337.858 452.417C370.481 499.543 468.359 403.48 522.732 407.106C577.105 410.732 714.857 515.856 747.48 454.232L740.229 517.667C740.229 517.667 656.854 523.103 616.979 499.543C577.105 475.982 533.605 430.666 490.104 443.354C446.604 456.042 366.855 539.417 296.169 508.605C225.482 477.792 307.046 311.043 283.481 272.979C259.915 234.915 216.42 247.603 176.545 243.977C136.671 240.351 105.858 189.604 105.858 189.604L140.301 135.231Z" fill="url(#paint2_linear_694_2954)"/>
</g>
<mask id="mask2_694_2954" style="mask-type:luminance" maskUnits="userSpaceOnUse" x="65" y="65" width="631" height="631">
<path d="M686.675 455.001C727.788 285.938 624.064 115.556 455.001 74.4425C285.937 33.3293 115.555 137.054 74.442 306.117C33.3288 475.18 137.053 645.562 306.116 686.675C475.18 727.789 645.562 624.064 686.675 455.001Z" fill="white"/>
</mask>
<g mask="url(#mask2_694_2954)">
<path d="M65.5322 238.545C65.5322 238.545 129.421 269.357 178.363 269.357C227.299 269.357 191.051 370.856 192.861 456.046C194.672 541.232 261.737 530.359 307.048 570.233C352.359 610.108 390.423 655.419 435.734 633.668C481.044 611.918 462.92 568.418 435.734 572.044C435.734 572.044 464.735 553.92 482.86 570.233C500.984 586.547 482.86 639.53 499.173 639.322C515.487 639.11 502.799 537.611 520.924 526.733C539.048 515.856 576.373 584.08 619.333 586.219C662.297 588.358 684.047 562.982 684.047 562.982L638.737 639.317C638.737 639.317 553.551 617.355 544.489 597.42C535.427 577.48 553.551 657.234 528.175 673.543C502.799 689.857 442.99 655.419 426.676 659.045C410.362 662.67 384.991 710.67 316.115 695.733C247.239 680.795 268.989 608.297 225.489 577.485C181.988 546.673 122.174 533.671 136.678 468.58C151.176 403.489 128.069 404.522 96.8031 392.611C65.537 380.701 165.679 345.485 163.864 318.299C162.054 291.112 65.5371 287.486 65.5371 287.486V238.545H65.5322Z" fill="url(#paint3_linear_694_2954)"/>
</g>
<mask id="mask3_694_2954" style="mask-type:luminance" maskUnits="userSpaceOnUse" x="65" y="65" width="631" height="631">
<path d="M686.675 455.001C727.788 285.938 624.064 115.556 455.001 74.4425C285.937 33.3293 115.555 137.054 74.442 306.117C33.3288 475.18 137.053 645.562 306.116 686.675C475.18 727.789 645.562 624.064 686.675 455.001Z" fill="white"/>
</mask>
<g mask="url(#mask3_694_2954)">
<path d="M451.594 325.999C445.105 293.565 413.53 282.499 399.939 292.015C386.343 301.531 384.987 369.499 420.328 387.17C455.669 404.84 458.387 359.983 451.594 325.999Z" fill="url(#paint4_linear_694_2954)"/>
</g>
<mask id="mask4_694_2954" style="mask-type:luminance" maskUnits="userSpaceOnUse" x="65" y="65" width="631" height="631">
<path d="M686.675 455.001C727.788 285.938 624.064 115.556 455.001 74.4425C285.937 33.3293 115.555 137.054 74.442 306.117C33.3288 475.18 137.053 645.562 306.116 686.675C475.18 727.789 645.562 624.064 686.675 455.001Z" fill="white"/>
</mask>
<g mask="url(#mask4_694_2954)">
<path opacity="0.2" d="M58.7327 247.154C58.7327 247.154 210.984 175.106 255.841 309.686C300.697 444.262 274.583 568.742 400.613 604.624C575.821 654.507 677.561 527.989 677.561 527.989C677.561 527.989 612.9 743.294 316.104 695.733C19.312 648.168 27.4666 335.516 58.7327 247.154Z" fill="white"/>
</g>
<mask id="mask5_694_2954" style="mask-type:luminance" maskUnits="userSpaceOnUse" x="65" y="65" width="631" height="631">
<path d="M686.675 455.001C727.788 285.938 624.064 115.556 455.001 74.4425C285.937 33.3293 115.555 137.054 74.442 306.117C33.3288 475.18 137.053 645.562 306.116 686.675C475.18 727.789 645.562 624.064 686.675 455.001Z" fill="white"/>
</mask>
<g mask="url(#mask5_694_2954)">
<path opacity="0.1" d="M45.138 335.516C45.138 335.516 96.1169 564.344 380.563 557.092C665.01 549.841 709.872 312.404 709.872 312.404C709.872 312.404 746.574 641.375 439.359 722.934C132.139 804.498 41.0632 408.921 45.138 335.516Z" fill="black"/>
</g>
<mask id="mask6_694_2954" style="mask-type:luminance" maskUnits="userSpaceOnUse" x="65" y="65" width="631" height="631">
<path d="M686.675 455.001C727.788 285.938 624.064 115.556 455.001 74.4425C285.937 33.3293 115.555 137.054 74.442 306.117C33.3288 475.18 137.053 645.562 306.116 686.675C475.18 727.789 645.562 624.064 686.675 455.001Z" fill="white"/>
</mask>
<g mask="url(#mask6_694_2954)">
<path opacity="0.1" d="M51.4819 450.606C51.4819 450.606 96.2568 633.993 357.794 610.104C619.332 586.215 718.48 408.916 718.48 408.916C718.48 408.916 685.857 669.913 413.983 711.603C142.108 753.292 58.7336 490.485 51.4819 450.606Z" fill="black"/>
</g>
<g opacity="0.3">
<path d="M576.965 207.579C566.155 190.994 552.212 176.892 536.164 165.734C515.997 148.474 490.78 132.928 464.062 135.917C447.285 137.795 435.152 151.279 440.159 168.641C444.702 184.395 460.929 192.028 473.617 200.284C488.279 209.828 502.58 219.953 516.374 230.714C523.017 235.9 529.554 241.23 535.98 246.676C542.797 252.455 549.204 258.929 556.446 264.172C570.558 274.393 589.204 267.842 592.062 250.075C594.423 235.364 584.714 219.47 576.965 207.579Z" fill="white"/>
<path d="M636.648 298.954C634.61 296.627 631.921 294.648 629.097 293.392C627.301 292.596 625.601 291.867 623.67 291.543C620.672 291.041 618.528 291.051 615.511 291.524C608.636 292.601 602.355 298.872 601.012 305.675C600.438 308.601 600.505 311.662 601.37 314.501C601.239 315.775 601.201 317.04 601.321 318.271C601.669 321.781 602.466 325.276 604.455 328.26C606.362 331.118 608.887 333.755 612.03 335.266C615.269 336.825 618.596 337.767 622.227 337.752C625.877 337.738 629.169 336.801 632.423 335.227C635.629 333.677 638.246 330.954 640.167 328.004C642.234 324.823 643.079 321.115 643.373 317.392C643.895 310.662 641.007 303.932 636.648 298.954Z" fill="white"/>
</g>
<defs>
<linearGradient id="paint0_linear_694_2954" x1="205.836" y1="708.404" x2="544.319" y2="73.5776" gradientUnits="userSpaceOnUse">
<stop stop-color="#F0932B"/>
<stop offset="1" stop-color="#F6E58D"/>
</linearGradient>
<linearGradient id="paint1_linear_694_2954" x1="298.053" y1="527.932" x2="747.551" y2="-343.877" gradientUnits="userSpaceOnUse">
<stop stop-color="#F0932B"/>
<stop offset="1" stop-color="#F6E58D"/>
</linearGradient>
<linearGradient id="paint2_linear_694_2954" x1="310.497" y1="571.935" x2="759.996" y2="-299.876" gradientUnits="userSpaceOnUse">
<stop stop-color="#F0932B"/>
<stop offset="1" stop-color="#F6E58D"/>
</linearGradient>
<linearGradient id="paint3_linear_694_2954" x1="365.728" y1="418.336" x2="815.226" y2="-453.473" gradientUnits="userSpaceOnUse">
<stop stop-color="#F0932B"/>
<stop offset="1" stop-color="#F6E58D"/>
</linearGradient>
<linearGradient id="paint4_linear_694_2954" x1="375.184" y1="386.885" x2="528.793" y2="233.277" gradientUnits="userSpaceOnUse">
<stop stop-color="#F0932B"/>
<stop offset="1" stop-color="#F6E58D"/>
</linearGradient>
</defs>
</svg>
