<svg width="2671" height="2671" viewBox="0 0 2671 2671" fill="none" xmlns="http://www.w3.org/2000/svg">
<path opacity="0.1" d="M2002.98 2002.98C2371.72 1634.24 2371.72 1036.4 2002.98 667.659C1634.24 298.922 1036.4 298.921 667.659 667.659C298.921 1036.4 298.921 1634.24 667.659 2002.98C1036.4 2371.72 1634.24 2371.72 2002.98 2002.98Z" fill="white"/>
<path d="M1335.34 2231.27C1830.16 2231.27 2231.28 1830.14 2231.28 1335.33C2231.28 840.514 1830.16 439.387 1335.34 439.387C840.526 439.387 439.399 840.514 439.399 1335.33C439.399 1830.14 840.526 2231.27 1335.34 2231.27Z" fill="url(#paint0_linear_694_3209)"/>
<mask id="mask0_694_3209" style="mask-type:luminance" maskUnits="userSpaceOnUse" x="439" y="439" width="1793" height="1793">
<path d="M1968.84 1968.83C2318.72 1618.95 2318.72 1051.68 1968.84 701.792C1618.96 351.909 1051.68 351.909 701.8 701.792C351.916 1051.68 351.916 1618.95 701.8 1968.83C1051.68 2318.72 1618.96 2318.72 1968.84 1968.83Z" fill="white"/>
</mask>
<g mask="url(#mask0_694_3209)">
<g opacity="0.2">
<path d="M2150.14 796.307C2109.78 732.254 2057.13 676.399 2002.66 624.218C1946.95 570.854 1886.85 521.7 1821.73 480.223C1754.95 437.683 1682.61 403.448 1606.37 381.698C1529.58 359.793 1448.61 350.33 1368.97 358.089C1358.8 359.078 1348.66 360.377 1338.56 361.869C1333.39 362.632 1330.55 369.159 1331.81 373.746C1333.01 378.101 1336.48 380.225 1340.43 380.568C1338.8 383.006 1338.13 386.217 1338.86 388.862C1340.37 394.352 1345.57 396.428 1350.74 395.607C1423.24 384.068 1500.59 420.886 1540.34 481.97C1562.12 515.433 1567.04 554.772 1582.02 591.088C1589.47 609.149 1599.53 626.419 1614.76 639.044C1629.34 651.143 1646.74 658.656 1664.91 663.6C1700.21 673.198 1739.87 673.381 1771.87 692.737C1802.25 711.102 1814.71 746.641 1830.22 776.652C1838.05 791.807 1847.05 806.793 1859.32 818.815C1873.38 832.584 1891.35 841.386 1910.73 844.587C1952.47 851.477 1995.01 836.838 2036.48 845.388C2069.96 852.297 2094.71 876.012 2114.54 902.61C2135.97 931.365 2153.52 962.873 2176.59 990.431C2182.02 996.915 2187.77 1003.1 2193.9 1008.93C2200.22 1014.93 2209.83 1010.38 2210.38 1002.1C2215.28 928.57 2188.84 857.724 2150.14 796.307Z" fill="black"/>
<path d="M1496.64 820.621C1494.16 794.135 1489.99 767.301 1480.14 742.451C1470.48 718.099 1455.79 696.498 1434.17 681.285C1410.96 664.947 1382.42 659.472 1356.26 649.72C1344.33 645.273 1332.33 639.561 1322.8 630.958C1313.39 622.461 1306.59 611.704 1301.68 600.068C1291.49 575.914 1288.01 549.524 1278.7 525.056C1268.99 499.506 1253.04 478.48 1229.69 463.929C1206.92 449.744 1180.33 442.497 1154.15 437.838C1153.09 437.65 1152.03 437.524 1150.98 437.346C1126.04 418.637 1093.51 409.643 1062.54 412.713C1039.25 415.026 1015.57 423.566 998.333 439.89C988.04 449.633 980.325 466.647 991.101 478.915C995.852 484.322 1002.63 486.277 1009.33 487.991C1015.7 489.623 1021.49 491.907 1027.06 495.412C1048.77 509.046 1060.96 534.861 1068.67 558.374C1078.1 587.129 1083.67 617.584 1099.15 644.003C1112.02 665.966 1131.51 682.125 1154.78 692.095C1176.84 701.548 1200.35 706.169 1223.87 710.335C1268.2 718.181 1320.09 724.515 1346.35 766.012C1354.82 779.409 1360.84 794.159 1368.82 807.832C1376.3 820.655 1385.58 832.59 1396.12 843.038C1406.42 853.249 1418.12 862.282 1430.63 869.63C1442.71 876.722 1457.08 884.206 1471.06 886.374C1488.47 889.073 1498.37 876.182 1498.93 860.047C1499.4 847.025 1497.85 833.589 1496.64 820.621Z" fill="black"/>
<path d="M2343.23 1270.07C2335.9 1246.46 2327.51 1223.18 2318.17 1200.28C2316.05 1195.09 2311.24 1192.37 2306.48 1193.61C2281.42 1161.83 2252.07 1131.09 2212.52 1120.03C2185.55 1112.49 2158.27 1119.5 2130.93 1116.73C2106.05 1114.21 2082.26 1104.62 2060.39 1092.9C2013.74 1067.91 1973.73 1032.11 1925.65 1009.63C1880.72 988.63 1821.77 974.793 1776.69 1003.52C1758.71 1014.97 1741.38 1038.37 1750.25 1060.54C1759.97 1084.82 1791.47 1086.49 1813.38 1091.7C1861.51 1103.13 1909.53 1117.92 1952.65 1142.63C1973.54 1154.6 1993.01 1168.83 2010.05 1185.87C2028.26 1204.08 2041.97 1225.86 2058.77 1245.26C2076.02 1265.19 2096.87 1278.8 2121.3 1288.37C2144.56 1297.49 2169.09 1302.95 2192.27 1312.34C2212.49 1320.53 2230.02 1332.69 2244.6 1348.91C2258.26 1364.09 2268.87 1381.76 2278.57 1399.66C2299.02 1437.43 2315.58 1477.87 2343.82 1510.8C2350.39 1518.46 2357.61 1525.51 2365.46 1531.86C2371.68 1536.88 2381.96 1534.04 2381.94 1525.03C2381.82 1438.77 2368.8 1352.47 2343.23 1270.07Z" fill="black"/>
<path d="M2179.81 1827.26C2176.8 1823.3 2173.48 1819.61 2169.97 1816.1C2152.08 1773.81 2132.19 1731.27 2101.87 1696.29C2087.89 1680.16 2071.27 1665.82 2052.3 1655.89C2029.4 1643.91 2004.66 1639.74 1979.03 1638.87C1952.17 1637.95 1923.43 1640.16 1898.18 1629.17C1875.75 1619.39 1859.11 1600.45 1843.64 1582.16C1826.96 1562.43 1810.41 1543.11 1790.12 1526.94C1769.69 1510.66 1747.39 1497.11 1723.35 1486.87C1711.42 1481.79 1699.24 1477.4 1686.73 1473.98C1673.78 1470.43 1658.61 1465.71 1645.29 1469.76C1622.4 1476.71 1620.05 1503.09 1626.6 1522.56C1633.32 1542.57 1648.54 1559.56 1663.45 1574.03C1678.86 1588.98 1696.22 1601.88 1714.13 1613.64C1750.46 1637.52 1789.63 1656.83 1825.39 1681.6C1842.38 1693.36 1858.44 1706.54 1872.29 1721.92C1886.59 1737.81 1896.98 1756.05 1906.09 1775.29C1923.78 1812.69 1939.98 1857.07 1981.28 1874.06C1992.39 1878.63 2006.48 1879.38 2015.97 1887.24C2025.38 1895.04 2028.41 1908.46 2031.35 1919.72C2039.03 1949.12 2043.38 1979.27 2044.33 2009.65C2044.79 2024.68 2044.41 2039.71 2043.29 2054.7C2042.98 2058.88 2046.51 2062.95 2050.38 2064.01C2054.81 2065.23 2058.7 2063.05 2061.29 2059.58C2091.76 2018.61 2122.23 1977.65 2152.71 1936.68C2160.39 1926.36 2168.07 1916.04 2175.74 1905.71C2182.08 1897.19 2188.33 1888.51 2191.4 1878.18C2196.74 1860.15 2190.88 1841.8 2179.81 1827.26Z" fill="black"/>
<path d="M1558.3 1131.68C1539.77 1113.86 1517.8 1099.94 1495.07 1088.13C1447.55 1063.44 1395.83 1046.95 1350.58 1017.88C1327.24 1002.89 1308.18 983.99 1290.49 962.727C1271.7 940.152 1253.83 916.591 1230.07 898.916C1203.13 878.884 1169.87 871.522 1136.73 875.133C1101.49 878.971 1068.32 891.954 1035.75 905.26C1020.25 911.589 1001.73 922.419 984.432 920.256C973.202 918.851 964.401 911.063 958.694 901.706C941.874 874.119 949.54 841.931 953.181 811.915C956.584 783.836 954.451 756.514 939.585 731.944C928.703 713.95 913.253 699.205 896.843 686.291C863.129 659.756 822.801 639.734 794.335 607.024C785.712 597.117 778.904 585.608 775.221 573.151C775.525 573.171 775.829 573.166 776.138 573.19C788.541 574.04 788.488 554.723 776.138 553.878C774.255 553.748 772.382 553.738 770.504 553.661C768.828 551.223 766.192 549.576 762.832 549.576C759.926 549.576 756.889 551.184 755.001 553.583C697.191 555.505 642.34 581.007 597.459 617.009C544.027 659.872 505.91 718.648 474.282 778.626C466.074 794.192 458.243 809.945 450.562 825.776C447.187 832.734 443.841 839.7 440.505 846.677C436.594 854.851 431.665 863.227 430.207 872.275C427.189 890.969 441.229 900.552 456.534 906.641C470.868 912.338 484.121 920.029 496.322 929.472C547.291 968.931 583.428 1030.56 649.722 1047.06C665.987 1051.11 683.035 1051.61 699.373 1047.65C714.914 1043.88 729.219 1036.12 742.984 1028.2C767.65 1014.02 792.177 1000.07 821.69 1004.6C847.93 1008.63 871.394 1023.01 893.42 1037C917.927 1052.57 941.893 1069.2 968.862 1080.32C1000.78 1093.48 1034.65 1093.88 1068.51 1089.94C1087.05 1087.79 1105.47 1084.71 1124.04 1082.81C1139.43 1081.25 1155.44 1079.9 1170.82 1082.2C1196.67 1086.07 1222.67 1098.25 1240.07 1118.07C1247.23 1126.24 1252.77 1136.39 1254.27 1147.26C1256.02 1159.94 1251.66 1171.78 1245.46 1182.63C1237.97 1195.73 1228.68 1207.84 1223.8 1222.29C1218.32 1238.56 1221.61 1254.54 1228.57 1269.79C1236.65 1287.5 1246.62 1304.51 1255.71 1321.72C1265.03 1339.38 1274.36 1357.03 1283.69 1374.69C1301.97 1409.29 1320.24 1443.89 1338.52 1478.5C1353.55 1506.94 1366.07 1540.21 1394.32 1558.31C1405.22 1565.3 1418.97 1569.27 1431.24 1563.45C1445.96 1556.48 1450.15 1539.57 1449.28 1524.62C1447.16 1487.94 1435.67 1452.4 1429.13 1416.41C1423.73 1386.68 1422.21 1356.63 1431.61 1327.56C1439.28 1303.82 1454.73 1280.67 1478.76 1271.24C1501.95 1262.14 1527.96 1263.97 1552.04 1258.74C1577.45 1253.23 1599.34 1236.63 1599.74 1208.57C1600.16 1179.19 1578.52 1151.12 1558.3 1131.68Z" fill="black"/>
<path d="M1346.78 2033.28C1361.1 2001.66 1373.24 1968.94 1376.86 1934.19C1382.84 1876.94 1359.25 1815.35 1303.54 1792.04C1276.51 1780.73 1246.82 1778.88 1217.94 1776.72C1190.46 1774.67 1161.4 1772.82 1136.25 1760.44C1091.07 1738.21 1068.39 1679.1 1089.54 1632.7C1102.09 1605.17 1124.8 1584.05 1139.53 1557.84C1154.51 1531.2 1158.71 1500.14 1150.36 1470.6C1142.42 1442.47 1123.59 1418.3 1097.82 1404.35C1072.39 1390.59 1041.89 1386.53 1013.93 1394.32C998.367 1398.66 983.792 1405.86 968.434 1410.82C955.664 1414.95 941.199 1418.1 928.632 1411.62C915.731 1404.97 907.625 1391.47 896.347 1382.64C885.358 1374.04 872.212 1369.17 858.481 1367.12C830.715 1362.96 801.882 1368.66 774.464 1362.18C751.063 1356.64 735.932 1340.14 726.845 1318.53C707.92 1273.54 708.098 1218.68 667.447 1185.4C616.405 1143.61 546.636 1153.72 489.81 1176.44C483.128 1179.11 476.514 1181.95 469.928 1184.84C472.468 1169.02 457.631 1151.19 442.882 1145.35C415.594 1134.53 393.757 1160.1 384.671 1182.83C379.456 1195.87 376.825 1209.71 374.204 1223.45C371.186 1239.27 368.598 1255.17 366.503 1271.14C362.37 1302.6 360.338 1334.46 362.471 1366.16C364.552 1397.11 370.428 1427.96 382.315 1456.7C394.409 1485.95 411.712 1513.95 438.175 1532.19C463.29 1549.5 494.715 1552.71 520.072 1534.17C542.266 1517.93 558.247 1490.87 588.243 1489.06C618.771 1487.22 647.995 1504.85 671.237 1522.86C696.057 1542.09 719.898 1563.31 749.532 1574.88C763.978 1580.51 779.669 1582.94 795.128 1581.52C810.771 1580.08 825.877 1575.91 841.008 1571.92C865.39 1565.49 896.526 1557.6 914.814 1580.82C931.813 1602.41 930.346 1635.09 933.325 1660.95C937.211 1694.65 943.236 1728.28 954.491 1760.35C974.923 1818.61 1014.02 1872.55 1072.18 1897.43C1085.96 1903.33 1100.17 1907.36 1115.05 1909.28C1129.41 1911.14 1143.88 1910.66 1158.32 1910.12C1183.63 1909.18 1215.32 1906.03 1235.59 1924.62C1256.36 1943.67 1256.46 1975.61 1260.74 2001.48C1265.61 2030.87 1277.93 2057.74 1299.55 2078.65C1306.04 2084.93 1313.24 2090.44 1320.88 2095.24C1325.45 2101.33 1332.33 2105.04 1340.7 2104.7C1349.45 2104.36 1354.89 2090.91 1345.57 2086.71C1341.92 2085.07 1338.4 2083.19 1334.96 2081.19C1333.87 2077.97 1333.72 2073.17 1333.94 2069.34C1334.71 2056.26 1341.5 2044.97 1346.78 2033.28Z" fill="black"/>
<path d="M1927.36 2081.25C1934.12 2052.52 1929.25 2024.47 1908.63 2002.51C1897.78 1990.95 1884.39 1982.27 1872.09 1972.41C1859.16 1962.05 1847.31 1950.14 1837.38 1936.85C1827.44 1923.56 1819.06 1908.95 1812.77 1893.58C1806.41 1878.05 1801.49 1861.72 1792.65 1847.34C1777.88 1823.34 1744.03 1802.79 1716.87 1820.78C1689.65 1838.81 1694.41 1879.25 1700.43 1906.62C1706.89 1935.96 1719.05 1963.96 1723.68 1993.72C1727.71 2019.63 1721.59 2046.2 1698.59 2061.38C1675.62 2076.53 1646.44 2079.05 1620.27 2085.18C1606.44 2088.42 1592.8 2092.58 1580.08 2099.01C1567.8 2105.23 1556.65 2113.53 1546.18 2122.41C1508.46 2154.4 1472.76 2208.17 1416.72 2202.21C1389.69 2199.33 1365.76 2182.67 1345 2166.29C1321.63 2147.85 1299.69 2127.31 1274.38 2111.44C1245.47 2093.31 1211.75 2083.33 1177.68 2082.1C1160.57 2081.49 1143.26 2083.21 1126.59 2087.16C1108.68 2091.39 1090.6 2100.08 1071.83 2098.52C1052.2 2096.89 1039.02 2082.71 1029.7 2066.5C1018.79 2047.52 1011.8 2026.56 1002.84 2006.65C993.973 1986.94 982.908 1967.47 965.247 1954.36C937.862 1934.03 904.506 1940.93 872.863 1940.74C839.897 1940.54 814.338 1923.31 790.314 1902.33C766.27 1881.34 743.893 1859.02 713.978 1846.48C696.95 1839.34 677.773 1835.46 659.75 1838.18C659.321 1835.84 657.887 1833.64 655.106 1832.14C629.416 1818.26 598.753 1829.71 581.175 1851.25C558.811 1878.65 562.157 1916.23 573.904 1947.5C596.585 2007.87 639.362 2061.87 685.561 2106.07C732.373 2150.85 786.2 2187.98 842.432 2219.89C901.025 2253.14 962.572 2281.42 1025.38 2305.71C1154.32 2355.58 1291.3 2387.42 1429.7 2392.61C1566.18 2397.73 1704 2375.4 1828.53 2318.12C1856.5 2305.25 1893.6 2290.68 1897.67 2255.66C1899.75 2237.8 1892.62 2220.91 1891.49 2203.31C1890.58 2189.22 1893.44 2175.5 1897.67 2162.13C1906.33 2134.76 1920.76 2109.3 1927.36 2081.25Z" fill="black"/>
<path d="M2119.69 1491.85C2107.07 1452.29 2070.9 1428.71 2035.32 1411.92C2016.85 1403.2 1997.92 1395.2 1980.67 1384.16C1962.83 1372.75 1949.43 1357.24 1936.47 1340.71C1923.97 1324.77 1911.42 1308.39 1894.29 1297.12C1882.34 1289.25 1868.09 1283.72 1853.64 1282.73C1827.02 1261.94 1791.14 1246.4 1758.01 1254.44C1742.15 1258.29 1727.88 1269.47 1724.99 1286.24C1721.53 1306.28 1734.65 1323.74 1750.69 1334.18C1768.7 1345.89 1790.45 1346.44 1810.85 1350.78C1827.24 1354.27 1840.31 1361.21 1851.6 1373.54C1871.13 1394.87 1882.1 1422.53 1901.22 1444.24C1910.35 1454.6 1921.73 1463.17 1935.07 1467.2C1956.09 1473.55 1976.06 1464.8 1997.09 1464.61C2031.47 1464.3 2049.6 1501.6 2066.4 1525.94C2071.43 1533.23 2076.52 1541.31 2083.48 1546.89C2092.16 1553.86 2104.15 1554.88 2112.52 1546.71C2126.03 1533.53 2124.95 1508.38 2119.69 1491.85Z" fill="black"/>
<path d="M1013.11 1234.49C1003.9 1216.38 982.894 1209.26 964.325 1205.39C953.617 1203.15 928.931 1192.39 925.373 1191.76C903.555 1187.94 821.725 1174.64 810.235 1191.97C802.447 1203.71 803.567 1219.85 809.602 1232.03C817.129 1247.22 833.998 1255 850.046 1257.37C869.291 1260.21 888.274 1256.48 907.553 1256.9C917.17 1257.12 926.493 1258.79 934.976 1263.5C943.034 1267.97 950.189 1273.87 958.169 1278.48C973.209 1287.16 993.472 1290.82 1007.75 1278.64C1020.58 1267.7 1020.23 1248.48 1013.11 1234.49Z" fill="black"/>
<path d="M1755.63 817.618C1740.64 805.543 1645.98 753.69 1612.56 771.409C1596.99 779.67 1583.38 796.104 1583.77 814.504C1584.14 832.449 1597 845.741 1612.77 852.293C1628.08 858.656 1644.89 859.844 1660.43 865.483C1676.55 871.329 1685.34 885.524 1696.04 897.956C1708.18 912.063 1724.51 922.289 1743.77 917.987C1762.26 913.859 1777.9 896.947 1781.07 878.364C1785 855.247 1773.49 832 1755.63 817.618Z" fill="black"/>
</g>
</g>
<mask id="mask1_694_3209" style="mask-type:luminance" maskUnits="userSpaceOnUse" x="439" y="439" width="1793" height="1793">
<path d="M1968.84 1968.83C2318.72 1618.95 2318.72 1051.68 1968.84 701.792C1618.96 351.909 1051.68 351.909 701.8 701.792C351.916 1051.68 351.916 1618.95 701.8 1968.83C1051.68 2318.72 1618.96 2318.72 1968.84 1968.83Z" fill="white"/>
</mask>
<g mask="url(#mask1_694_3209)">
<path opacity="0.1" d="M564.072 564.892C564.072 564.892 698.44 1581.57 1303.53 1792.04C1908.63 2002.52 2374.75 1178.47 2374.75 1178.47C2374.75 1178.47 2112.83 2585.75 1093.76 2231.27C74.7009 1876.79 428.135 835.293 564.072 564.892Z" fill="black"/>
</g>
<mask id="mask2_694_3209" style="mask-type:luminance" maskUnits="userSpaceOnUse" x="439" y="439" width="1793" height="1793">
<path d="M1968.84 1968.83C2318.72 1618.95 2318.72 1051.68 1968.84 701.792C1618.96 351.909 1051.68 351.909 701.8 701.792C351.916 1051.68 351.916 1618.95 701.8 1968.83C1051.68 2318.72 1618.96 2318.72 1968.84 1968.83Z" fill="white"/>
</mask>
<g mask="url(#mask2_694_3209)">
<path opacity="0.1" d="M417.265 767.967C417.265 767.967 322.496 1562.85 1158.31 1910.14C1994.13 2257.42 2401.94 1403.74 2401.94 1403.74C2401.94 1403.74 2204.32 2583.67 1172.14 2257.42C139.954 1931.17 172.577 1268.63 417.265 767.967Z" fill="black"/>
</g>
<g opacity="0.3">
<path d="M1807.04 730.379C1797.16 712.907 1785.04 696.515 1771.59 681.631C1744.71 651.876 1712.04 627.441 1677.2 607.762C1639.23 586.307 1598.16 568.969 1555.2 560.68C1533.26 556.445 1510.99 554.229 1488.65 555.605C1485.64 555.789 1482.64 556.03 1479.65 556.315C1472.83 556.175 1466.01 556.576 1459.21 557.85C1454.61 558.71 1450.05 560.1 1445.74 561.983C1438.83 563.668 1431.97 566.106 1427.15 570.944C1423.32 574.787 1421.39 580.513 1421.66 585.993C1421.34 586.886 1421.03 587.789 1420.77 588.726C1414.83 610.268 1427.69 630.999 1442.51 645.59C1458.57 661.397 1477.14 674.476 1495.96 686.744C1514.56 698.862 1533.77 710.048 1553.49 720.25C1593.23 740.812 1634.85 757.667 1677.83 770.142C1699.15 776.337 1720.78 781.45 1742.61 785.495C1760.53 788.822 1781.24 793.925 1798.48 785.143C1807.95 780.32 1814.24 771.118 1815.41 760.573C1816.59 749.981 1812.14 739.393 1807.04 730.379Z" fill="white"/>
<path d="M1986.8 875.344C1960.1 845.797 1922.1 825.828 1881.49 832.477C1877.61 833.114 1875.06 835.108 1873.65 837.686C1861.56 842.393 1852.11 852.382 1852.11 866.591C1852.11 883.779 1864.44 897.78 1876.71 908.31C1891.63 921.114 1907.22 933.198 1922.5 945.572C1936.13 956.614 1949.9 970.046 1967.07 975.289C1981.65 979.735 1999.49 977.833 2010.38 966.275C2037.17 937.848 2006.98 897.664 1986.8 875.344Z" fill="white"/>
<path d="M1330.36 541.947C1323.69 537.211 1315.76 534.724 1307.83 533.121C1298.06 531.152 1288.2 529.998 1278.23 530.186C1268.35 530.374 1258.3 531.446 1248.7 533.826C1241.05 535.719 1233.52 539.34 1229.4 546.06C1223.08 550.034 1217.89 555.658 1217.06 563.509C1216.02 573.29 1222.13 581.488 1229.8 586.818C1237.06 591.854 1246.34 594.664 1254.86 596.668C1264.24 598.874 1273.86 600.177 1283.51 600.09C1300.33 599.946 1320.81 597.493 1333.84 585.674C1347.98 572.856 1345.45 552.675 1330.36 541.947Z" fill="white"/>
</g>
<defs>
<linearGradient id="paint0_linear_694_3209" x1="712.987" y1="1954.83" x2="1898.36" y2="774.895" gradientUnits="userSpaceOnUse">
<stop stop-color="#4834D4"/>
<stop offset="1" stop-color="#EB4D4B"/>
</linearGradient>
</defs>
</svg>
