<svg width="372" height="364" viewBox="0 0 372 364" fill="none" xmlns="http://www.w3.org/2000/svg">
<path opacity="0.1" d="M187.539 363.278C94.7741 363.278 19.3027 287.807 19.3027 195.042C19.3027 102.276 94.7741 26.8101 187.539 26.8101C280.304 26.8101 355.771 102.276 355.771 195.042C355.766 287.812 280.3 363.278 187.539 363.278Z" fill="white"/>
<path d="M187.535 339.138C267.114 339.138 331.626 274.626 331.626 195.046C331.626 115.467 267.114 50.9546 187.535 50.9546C107.955 50.9546 43.4429 115.467 43.4429 195.046C43.4429 274.626 107.955 339.138 187.535 339.138Z" fill="url(#paint0_linear_694_3241)"/>
<mask id="mask0_694_3241" style="mask-type:luminance" maskUnits="userSpaceOnUse" x="43" y="50" width="289" height="290">
<path d="M187.534 339.138C267.113 339.138 331.625 274.626 331.625 195.046C331.625 115.467 267.113 50.9546 187.534 50.9546C107.954 50.9546 43.4419 115.467 43.4419 195.046C43.4419 274.626 107.954 339.138 187.534 339.138Z" fill="white"/>
</mask>
<g mask="url(#mask0_694_3241)">
<g opacity="0.5">
<path d="M319.13 107.944C313.244 72.5209 274.5 50.4038 243.393 40.5885C226.896 35.379 199.757 30.2807 177.157 33.5782C174.256 32.2602 170.784 32.0864 167.178 33.9645C150.922 42.428 134.512 52.3108 127.246 70.0344C119.902 87.9415 126.014 105.82 140.31 118.189C168.776 142.826 207.791 157.383 244.701 162.476C263.501 165.069 283.702 164.436 299.774 153.119C314.654 142.648 322.128 125.991 319.13 107.944Z" fill="#686DE0"/>
<path d="M327.545 260.881C323.822 248.729 314.103 237.716 304.39 229.88C293.406 221.026 280.65 214.638 267.055 210.877C259.673 208.835 248.114 205.702 238.888 207.261C228.262 203.906 216.573 201.318 206.555 207.17C194.022 214.489 192.259 231.029 198.618 243.051C205.025 255.174 218.253 263.889 229.532 271.044C241.437 278.595 254.357 284.625 267.692 289.168C280.776 293.625 296.703 298.583 310.26 293.431C323.673 288.338 331.895 275.09 327.545 260.881Z" fill="#686DE0"/>
<path d="M153.622 200.158C144.081 186.186 128.835 178.331 113.071 173.353C106.211 171.19 96.743 167.975 88.0381 167.627C87.3477 167.444 86.6766 167.173 85.9814 167.004C72.8058 163.741 58.0707 161.988 45.0206 166.753C30.3338 172.117 20.4123 185.023 23.6084 201.158C26.4376 215.453 38.8938 227.678 49.9258 236.301C62.1744 245.875 75.8231 252.769 90.1478 258.688C103.275 264.11 117.667 267.861 131.896 265.138C162.23 259.325 169.448 223.338 153.622 200.158Z" fill="#686DE0"/>
<path d="M208.534 292.326C203.29 287.744 196.999 285.663 190.081 285.33C188.628 285.258 187.165 285.301 185.702 285.407C183.78 284.114 181.497 283.206 179.232 283.433C178.122 283.544 177.007 283.655 175.891 283.771C173.984 283.964 171.754 283.978 169.958 284.476C165.337 285.75 162.04 289.796 160.254 294.035C158.168 298.974 157.835 304.83 159.805 309.895C161.123 313.289 162.441 315.582 164.845 318.368C166.68 320.492 169.069 322.245 171.454 323.693C175.307 326.03 179.749 327.619 184.06 328.898C188.198 330.124 192.746 330.984 197.057 330.472C200.582 330.052 203.3 329.487 206.482 327.73C209.451 326.088 212.024 323.481 213.796 320.599C219.271 311.681 216.191 299.013 208.534 292.326Z" fill="#686DE0"/>
<path d="M104.26 114.535C86.2376 114.535 86.2086 142.547 104.26 142.547C122.283 142.547 122.317 114.535 104.26 114.535Z" fill="#686DE0"/>
<path d="M312.906 190.227C312.525 188.692 311.854 187.229 311.202 185.8C310.859 185.047 310.439 184.332 309.956 183.661C309.044 182.401 308.097 181.102 306.982 180.007C305.862 178.906 304.578 177.955 303.298 177.052C302.651 176.593 301.966 176.192 301.256 175.854C299.837 175.179 298.364 174.517 296.848 174.087C295.308 173.648 293.667 173.479 292.083 173.32C291.219 173.233 290.35 173.247 289.485 173.349C288.158 173.3 286.917 173.576 285.763 174.179C285.068 174.406 284.445 174.754 283.861 175.164C282.77 175.517 281.722 176.009 280.785 176.728C279.733 177.409 278.902 178.312 278.299 179.437C277.425 180.943 276.986 182.565 276.981 184.313C276.648 187.456 277.744 191.15 279.453 193.786C281.23 196.533 283.668 199.024 286.598 200.54C289.896 202.249 293.406 203.06 297.119 203.147C300.141 203.22 303.202 202.684 306.161 202.109C308.339 201.689 310.912 199.603 311.931 197.672C313.162 195.335 313.553 192.825 312.906 190.227Z" fill="#686DE0"/>
</g>
</g>
<mask id="mask1_694_3241" style="mask-type:luminance" maskUnits="userSpaceOnUse" x="43" y="50" width="289" height="290">
<path d="M187.534 339.138C267.113 339.138 331.625 274.626 331.625 195.046C331.625 115.467 267.113 50.9546 187.534 50.9546C107.954 50.9546 43.4419 115.467 43.4419 195.046C43.4419 274.626 107.954 339.138 187.534 339.138Z" fill="white"/>
</mask>
<g mask="url(#mask1_694_3241)">
<path opacity="0.1" d="M52.0123 118.986C52.0123 118.986 36.6883 236.799 187.534 257.642C338.385 278.484 331.626 123.515 331.626 123.515C331.626 123.515 387.322 318.962 204.258 349.021C21.2 379.08 14.4987 148.519 52.0123 118.986Z" fill="black"/>
</g>
<mask id="mask2_694_3241" style="mask-type:luminance" maskUnits="userSpaceOnUse" x="43" y="50" width="289" height="290">
<path d="M187.534 339.138C267.113 339.138 331.625 274.626 331.625 195.046C331.625 115.467 267.113 50.9546 187.534 50.9546C107.954 50.9546 43.4419 115.467 43.4419 195.046C43.4419 274.626 107.954 339.138 187.534 339.138Z" fill="white"/>
</mask>
<g mask="url(#mask2_694_3241)">
<path opacity="0.1" d="M39.3219 186.046C39.3219 186.046 64.1667 274.688 175.896 283.76C289.446 292.982 345.634 186.046 345.634 186.046C345.634 186.046 355.604 326.512 192.48 347.36C29.352 368.202 39.3219 186.046 39.3219 186.046Z" fill="black"/>
</g>
<g opacity="0.3">
<path d="M273.439 106.245C273.053 105.583 272.546 104.999 272.063 104.4C272.097 102.204 271.29 99.9826 269.745 98.2156C260.051 87.1402 247.126 79.0774 233.053 74.8336C226.052 72.7189 218.612 71.5892 211.298 71.5119C203.428 71.425 192.193 71.594 189.958 81.0858C187.544 91.3357 197.47 96.3761 205.205 99.6205C212.79 102.797 220.712 104.922 228.495 107.524C236.138 110.083 242.796 113.752 249.666 117.919C256.073 121.805 265.14 127.159 271.865 120.574C275.78 116.731 276.128 110.855 273.439 106.245Z" fill="white"/>
<path d="M174.176 85.0537C174.079 82.968 173.413 80.6071 171.776 79.1829C169.531 77.2324 166.973 75.5763 163.999 74.9873C161.073 74.408 158.036 74.3066 155.168 75.2722C155.033 75.3157 154.912 75.3833 154.782 75.4315C152.793 75.7888 150.818 76.2184 148.872 76.8171C146.333 77.5944 143.721 78.4297 141.732 80.2692C138.41 83.3398 137.778 88.3271 139.854 92.2571C140.921 94.2752 142.775 96.0519 144.802 97.0948C147.187 98.3259 149.442 98.7025 152.088 98.9873C153.367 99.1274 154.642 99.0887 155.916 98.9294C157.804 98.6928 159.644 98.4562 161.43 97.7948C165.283 96.3657 168.991 94.2945 171.651 91.0791C172.501 90.3114 173.094 89.3941 173.437 88.3271C173.973 87.318 174.219 86.2269 174.176 85.0537Z" fill="white"/>
</g>
<g opacity="0.5">
<path d="M39.0655 195.046C39.0655 195.046 8.26773 175.748 42.7783 149.035C77.2888 122.317 127.751 107.847 127.751 107.847C127.751 107.847 124.038 93.7447 105.117 97.8292C105.117 97.8292 98.4354 76.6777 79.1427 82.2444C59.8452 87.8111 65.0401 100.427 65.0401 100.427C65.0401 100.427 60.5888 94.4882 55.3939 95.9752C50.1989 97.4622 49.4554 104.883 49.4554 104.883C49.4554 104.883 36.468 84.8467 10.4934 104.883C-15.4813 124.919 14.9448 146.442 14.9448 146.442C14.9448 146.442 7.89599 147.186 4.92677 153.863C1.95755 160.54 6.78073 163.881 6.78073 163.881C6.78073 163.881 1.95745 169.448 6.03711 177.24C10.1216 185.028 20.8832 191.705 39.0655 195.046Z" fill="white"/>
<path d="M61.3415 292.219C61.3415 292.219 66.9082 240.641 142.978 228.397C142.978 228.397 140.753 220.233 128.876 223.946C128.876 223.946 121.083 215.41 104.016 227.287C104.016 227.287 93.2546 213.928 82.8648 226.543C82.8648 226.543 67.5504 205.233 40.1418 228.397C12.7333 251.562 49.0977 270.7 49.0977 270.7C49.0977 270.7 38.3361 288.878 61.3415 292.219Z" fill="white"/>
<path d="M332.042 251.915C332.042 251.915 362.84 232.617 328.329 205.904C293.819 179.186 243.356 164.716 243.356 164.716C243.356 164.716 247.069 150.614 265.99 154.698C265.99 154.698 272.667 133.547 291.965 139.114C311.262 144.68 306.067 157.296 306.067 157.296C306.067 157.296 310.519 151.357 315.714 152.844C320.909 154.331 321.652 161.752 321.652 161.752C321.652 161.752 334.64 141.716 360.614 161.752C386.589 181.788 356.163 203.312 356.163 203.312C356.163 203.312 363.212 204.055 366.181 210.732C369.15 217.409 364.327 220.75 364.327 220.75C364.327 220.75 369.15 226.317 365.07 234.109C360.981 241.897 350.224 248.574 332.042 251.915Z" fill="white"/>
<path d="M268.457 360.361C268.457 360.361 262.891 308.784 186.821 296.54C186.821 296.54 189.046 288.376 200.923 292.088C200.923 292.088 208.716 283.552 225.788 295.429C225.788 295.429 236.549 282.07 246.939 294.686C246.939 294.686 262.258 273.375 289.662 296.54C317.071 319.705 280.706 338.843 280.706 338.843C280.706 338.843 291.463 357.025 268.457 360.361Z" fill="white"/>
<path d="M149.196 43.973C149.196 43.973 203.337 27.3357 266.241 58.6115C266.241 58.6115 269.906 50.1722 254.606 46.4787C254.606 46.4787 257.353 38.136 251.313 34.4039C245.273 30.6767 239.933 37.2524 239.933 37.2524C239.933 37.2524 251.299 16.9845 236.776 13.8125C222.258 10.6405 221.09 19.9344 221.09 19.9344C221.09 19.9344 219.125 -0.797017 206.702 0.0237429C194.28 0.849331 193.609 17.3176 193.609 17.3176C193.609 17.3176 189.066 12.2289 184.894 12.1951C180.723 12.1661 177.985 21.7932 177.985 21.7932C177.985 21.7932 170.285 14.7974 165.186 18.9495C160.083 23.1016 163.815 27.8137 163.815 27.8137C163.815 27.8137 146.125 29.5614 149.196 43.973Z" fill="white"/>
</g>
<defs>
<linearGradient id="paint0_linear_694_3241" x1="224.354" y1="362.938" x2="156.386" y2="53.0002" gradientUnits="userSpaceOnUse">
<stop stop-color="#7ED6DF"/>
<stop offset="1" stop-color="#F6E58D"/>
</linearGradient>
</defs>
</svg>
