<svg width="958" height="958" viewBox="0 0 958 958" fill="none" xmlns="http://www.w3.org/2000/svg">
<path opacity="0.1" d="M687.108 749.275C836.488 634.227 864.32 419.864 749.27 270.481C634.221 121.098 419.858 93.2641 270.478 208.312C121.097 323.359 93.2657 537.722 208.315 687.105C323.364 836.488 537.727 864.322 687.108 749.275Z" fill="white"/>
<path d="M478.752 783.363C646.9 783.363 783.211 647.052 783.211 478.904C783.211 310.757 646.9 174.446 478.752 174.446C310.605 174.446 174.294 310.757 174.294 478.904C174.294 647.052 310.605 783.363 478.752 783.363Z" fill="url(#paint0_linear_694_3159)"/>
<g opacity="0.5">
<mask id="mask0_694_3159" style="mask-type:luminance" maskUnits="userSpaceOnUse" x="174" y="174" width="610" height="610">
<path d="M478.753 783.363C646.901 783.363 783.212 647.052 783.212 478.904C783.212 310.757 646.901 174.446 478.753 174.446C310.606 174.446 174.295 310.757 174.295 478.904C174.295 647.052 310.606 783.363 478.753 783.363Z" fill="white"/>
</mask>
<g mask="url(#mask0_694_3159)">
<path d="M745.392 286.601C719.963 297.396 690.869 311.006 678.925 337.715C667.642 362.946 678.398 390.369 692.52 411.945C707.84 435.342 728.948 456.865 733.197 485.65C735.282 499.752 731.893 513.189 723.135 524.486C713.459 536.962 699.564 545.811 686.345 554.087C662.21 569.193 636.057 583.846 621.361 609.304C614.621 620.979 611.169 633.821 612.004 647.32C612.839 660.776 617.131 674.145 615.118 687.682C611.26 713.652 586.121 731.419 562.387 737.937C534.954 745.469 505.802 740.998 477.94 738.922C451.994 736.991 423.229 736.281 400.315 750.62C382.447 761.802 369.841 784.315 375.229 805.669C376.475 810.603 378.667 815.05 381.66 819.153C384.465 823.001 390.075 818.188 387.29 814.369C373.95 796.09 384.982 770.043 401.889 758.359C424.291 742.876 453.926 744.464 479.765 746.468C506.628 748.549 534.515 752.339 561.088 745.884C584.161 740.278 606.935 726.132 617.561 704.247C622.968 693.109 623.736 681.203 622.249 669.065C620.564 655.325 617.305 641.898 621.201 628.201C629.259 599.842 655.041 582.137 678.746 567.431C701.921 553.058 731.714 537.377 739.309 508.877C745.783 484.583 734.794 460.09 721.508 440.228C706.097 417.194 685.061 395.342 681.885 366.548C678.442 335.315 703.326 315.13 728.528 302.417C735.084 299.11 741.8 296.141 748.559 293.273C752.958 291.41 749.757 284.752 745.392 286.601Z" fill="#F6E58D"/>
<path d="M635.429 209.999C605.07 215.532 574.036 224.889 546.869 239.769C534.393 246.601 523.52 255.991 518.509 269.649C514.169 281.488 514.569 294.63 517.239 306.796C523.462 335.17 541.114 360.199 557.679 383.479C575.547 408.59 594.777 433.063 608.01 461.07C619.298 484.959 627.438 516.655 610.946 540.215C593.266 565.471 557.659 571.704 543.957 600.826C538.579 612.254 539.549 624.343 543.035 636.143C546.28 647.127 551.653 658.303 551.383 669.987C551.054 684.244 540.669 694.383 528.117 699.588C514.289 705.323 499.139 704.256 484.602 702.586C469.876 700.896 455.383 698.984 440.537 700.235C426.743 701.393 413.138 704.816 400.382 710.19C375.214 720.792 349.143 741.833 349.896 771.757C350.055 778.101 351.455 784.174 354.222 789.891C356.298 794.178 362.96 790.996 360.889 786.714C355.009 774.562 356.713 760.083 363.395 748.577C371.192 735.156 384.411 725.852 398.176 719.276C411.013 713.145 424.841 709.287 438.982 707.771C453.616 706.202 468.003 708.061 482.526 709.77C507.313 712.696 539.878 712.416 554.038 687.44C566.576 665.323 549.659 644.09 547.559 621.881C544.503 589.553 582.345 575.58 602.922 559.078C613.674 550.451 622.036 539.399 625.459 525.896C628.587 513.55 627.989 500.529 625.299 488.16C619.231 460.201 603.284 435.139 587.153 411.964C569.961 387.264 550.958 363.655 536.744 337.015C525.046 315.081 514.463 284.104 531.057 261.799C540.331 249.338 556.143 242.907 570.014 237.06C584.387 231.001 599.19 226.014 614.306 222.152C621.751 220.254 629.258 218.642 636.814 217.266C641.493 216.401 640.112 209.145 635.429 209.999Z" fill="#F6E58D"/>
<path d="M565.467 176.967C542.09 176.991 517.747 182.404 499.618 197.984C490.406 205.901 482.981 216.204 479.142 227.777C475.444 238.911 475.734 250.551 477.911 261.955C480.321 274.57 484.366 286.775 486.259 299.507C488.171 312.359 489.214 326.418 487.027 339.318C484.381 354.961 469.974 360.253 457.045 366.022C445.095 371.357 432.982 376.538 422.254 384.151C411.724 391.625 402.421 401.764 398.143 414.138C394.643 424.262 395.068 435.106 396.873 445.52C398.829 456.764 402.295 467.714 403.715 479.06C405.279 491.589 403.42 504.199 400.031 516.284C396.502 528.866 391.645 541.153 386.566 553.18C381.023 566.292 374.095 578.947 362.677 587.845C343.133 603.077 315.855 606.432 291.845 606.775C236.41 607.572 180.98 586.985 139.947 549.607C136.475 546.444 130.812 551.2 134.317 554.391C170.942 587.748 218.102 608.528 267.439 613.182C291.227 615.427 316.608 614.592 339.565 607.466C350.945 603.936 361.914 598.659 370.841 590.65C381.202 581.361 387.816 569.006 393.219 556.371C402.976 533.534 413.066 508.569 411.488 483.27C410.092 460.868 397.081 437.254 405.689 415.017C416.079 388.163 447.418 379.232 470.877 367.779C482.537 362.087 491.594 354.705 494.119 341.394C496.567 328.465 495.64 314.363 493.969 301.385C492.183 287.504 487.785 274.28 485.168 260.579C482.387 246.008 483.517 231.76 491.381 218.879C506.826 193.59 536.789 184.369 564.965 184.34C569.687 184.335 570.237 176.962 565.467 176.967Z" fill="#F6E58D"/>
<path d="M332.098 220.046C320.222 219.622 308.509 222.306 297.11 225.348C282.756 229.181 268.451 233.188 254.121 237.113C249.564 238.364 250.911 245.625 255.502 244.37C267.205 241.164 278.913 237.958 290.616 234.748C300.75 231.972 310.928 229.041 321.4 227.848C342.068 225.497 360.98 233.57 372.253 251.356C383.077 268.433 383.454 289.55 376.806 308.244C369.144 329.777 351.816 343.957 339.321 362.386C328.014 379.061 325.248 397.886 327.864 417.589C330.418 436.848 337.361 455.107 341.141 474.101C344.878 492.872 346.047 513.99 334.971 530.651C323.418 548.032 301.764 557.408 282.042 561.85C241.622 570.95 196.871 559.778 166.377 531.472C162.93 528.271 157.272 533.026 160.748 536.256C189.455 562.907 229.175 575.537 268.055 571.602C287.985 569.584 308.2 563.076 324.62 551.421C342.566 538.685 351.333 519.189 351.155 497.439C350.981 476.307 344.072 456.425 339.061 436.138C334.015 415.711 330.727 393.304 340.972 373.867C346.92 362.588 355.92 353.299 364.026 343.59C371.07 335.156 377.226 326.258 381.619 316.153C389.812 297.323 391.488 275.23 383.135 256.16C374.117 235.588 354.814 220.853 332.098 220.046Z" fill="#F6E58D"/>
<path d="M362.463 646.774C354.83 643.506 346.047 644.409 338.414 647.122C320.126 653.625 309.263 670.605 292.635 679.648C273.183 690.226 250.873 682.897 231.865 675.028C227.477 673.212 225.096 680.203 229.485 682.019C245.022 688.45 261.978 694.161 279.025 691.834C297.936 689.251 310.195 675.206 324.264 663.861C330.839 658.559 338.448 653.91 346.883 652.447C350.789 651.771 354.946 651.887 358.707 653.229C365.611 655.692 361.357 662.934 358.668 667.337C347.462 685.669 325.751 693.06 308.003 703.204C290.569 713.164 273.285 728.744 273.357 750.441C273.372 755.163 280.744 755.718 280.725 750.948C280.652 728.305 301.408 714.806 319.267 705.492C337.145 696.17 357.268 686.813 366.779 667.844C370.704 660.027 372.041 650.873 362.463 646.774Z" fill="#F6E58D"/>
<path d="M475.343 138.198C466.59 146.106 457.18 154.859 453.979 166.644C451.102 177.237 454.008 187.839 453.994 198.553C453.989 203.352 453.472 208.619 450.223 212.428C445.752 217.672 440.022 213.853 437.994 208.445C436.014 203.183 436.41 197.273 435.247 191.818C434.151 186.671 432.21 181.645 429.55 177.107C423.534 166.857 414.375 158.968 403.29 154.652C398.863 152.928 396.478 159.919 400.905 161.643C411.657 165.828 420.386 174.181 425.166 184.687C427.662 190.171 428.488 195.791 429.154 201.72C429.786 207.354 430.979 213.085 434.865 217.445C442.349 225.831 453.55 222.62 458.349 213.379C463.447 203.569 460.748 192.078 460.106 181.606C459.657 174.21 460.603 167.204 464.572 160.803C468.652 154.227 474.421 148.979 480.118 143.832C483.652 140.646 478.873 135.011 475.343 138.198Z" fill="#F6E58D"/>
</g>
</g>
<mask id="mask1_694_3159" style="mask-type:luminance" maskUnits="userSpaceOnUse" x="174" y="174" width="610" height="610">
<path d="M478.753 783.363C646.901 783.363 783.212 647.052 783.212 478.904C783.212 310.757 646.901 174.446 478.753 174.446C310.606 174.446 174.295 310.757 174.295 478.904C174.295 647.052 310.606 783.363 478.753 783.363Z" fill="white"/>
</mask>
<g mask="url(#mask1_694_3159)">
<g opacity="0.3">
<path d="M421.152 137.773C420.509 139.989 420.133 142.156 419.954 144.29C419.061 144.189 418.1 144.29 417.091 144.73C369.439 165.355 326.73 195.337 285.017 225.879C263.826 241.396 241.825 256.508 223.788 275.757C204.539 296.305 190.489 320.739 177.309 345.439C168.874 361.251 160.705 377.203 152.628 393.198C146.018 402.057 140.978 412.066 137.835 422.707C136.782 424.816 135.73 426.922 134.677 429.031C133.866 430.658 134.378 432.551 135.46 433.995C136.121 439.387 145.415 439.455 146.545 433.092C146.897 431.122 147.337 429.167 147.843 427.24C152.589 417.729 157.34 408.227 162.134 398.74C174.687 382.61 193.125 370.946 213.33 367.725C232.705 364.64 252.447 369.106 271.841 366.011C288.739 363.313 306.607 353.995 312.995 337.198C316.326 328.435 315.003 319.194 315.597 310.074C316.167 301.302 320.087 294.166 327.059 288.831C341.842 277.519 361.637 277.611 379.274 278.716C396.708 279.808 414.61 281.324 431.339 275.153C446.03 269.736 457.111 257.637 462.89 243.269C469.084 227.868 468.954 209.304 460.606 194.709C455.015 184.932 446.701 177.333 439.841 168.522C433.98 160.995 428.804 151.093 431.633 141.35C433.622 134.528 423.15 130.898 421.152 137.773Z" fill="#686DE0"/>
<path d="M364.09 359.417C353.338 359.509 342.47 362.14 333.138 367.581C323.207 373.37 315.434 381.79 308.351 390.717C294.919 407.634 282.796 427.825 259.342 430.48C238.031 432.889 217.077 424.059 195.675 425.783C168.585 427.97 151.74 449.363 140.056 471.837C139.009 472.508 138.12 473.493 137.555 474.714C134.012 482.343 134.388 490.825 135.228 498.99C136.064 507.149 137.024 515.308 138.188 523.429C140.332 538.43 143.523 553.324 149.094 567.431C147.433 571.926 152.305 577.194 156.501 574.654C158.538 574.239 160.411 572.761 161.063 570.719C175.812 558.862 196.472 558.755 214.63 556.959C236.93 554.753 257.468 548.201 275.313 534.248C292.877 520.513 305.517 501.631 311.866 480.315C313.628 474.401 315.25 468.322 319.504 463.634C322.931 459.859 327.46 457.329 332.08 455.32C342.108 450.97 352.976 448.981 363.202 445.162C374.576 440.914 384.706 433.85 392.797 424.817C400.479 416.242 407.87 404.762 409.208 393.073C411.868 369.759 382.736 359.253 364.09 359.417Z" fill="#686DE0"/>
<path d="M738.867 396.158C712.936 383.832 681.554 379.801 655.855 395.029C644.287 401.884 635.07 411.912 630.315 424.59C626.288 435.318 625.907 446.896 626.983 458.188C629.199 481.411 638.377 504.185 636.166 527.75C633.868 552.214 614.952 574.003 591.348 580.559C563.07 588.409 535.681 572.009 507.809 569.667C494.923 568.586 481.018 569.957 469.73 576.735C458.515 583.47 451.5 594.333 447.309 606.514C439.464 629.327 440.468 660.805 416.676 674.179C392.565 687.726 362.877 680.764 336.656 684.313C323.302 686.123 310.001 690.686 299.959 699.98C288.241 710.823 282.124 726.031 278.59 741.298C277.19 747.352 276.147 753.474 275.196 759.61C270.194 759.905 268.195 768.194 273.97 770.517C305.023 782.992 337.096 792.841 369.829 799.808C393.776 804.906 418.216 808.856 442.679 808.03C443.49 809.044 444.654 809.817 446.233 810.072C462.657 812.723 483.635 810.666 485.899 790.331C487.058 779.907 486.537 769.363 487.889 758.905C489.265 748.269 491.471 737.763 494.479 727.47C497.327 717.722 500.509 707.477 505.583 698.628C511.024 689.141 518.58 683.931 529.467 682.792C538.457 681.855 547.703 682.777 556.721 682.879C566.03 682.98 575.338 682.816 584.622 682.063C602.409 680.619 620.403 676.53 635.679 666.956C653.455 655.813 665.747 638.461 673.839 619.362C682.269 599.461 685.711 577.937 688.535 556.641C689.94 546.048 691.191 535.436 692.876 524.882C694.566 514.285 695.884 501.858 702.657 493.1C714.109 478.287 736.806 481.614 752.294 486.78C775.85 494.64 797.981 508.535 816.371 525.105C818.539 527.06 821.47 527.731 823.937 525.872C824.835 526.172 825.786 526.283 826.689 526.114C829.803 525.52 831.449 522.618 831.097 519.639C828.798 500.221 825.564 480.933 821.503 461.814C824.864 460.042 826.471 454.973 822.319 452.409C821.199 451.714 820.094 450.995 818.983 450.285C818.901 449.928 818.834 449.566 818.747 449.208C817.863 445.414 765.465 408.803 738.867 396.158Z" fill="#686DE0"/>
<path d="M627.132 145.435C618.514 147.97 596.913 150.292 594.678 148.766C588.894 144.812 576.476 161.546 570.659 163.583C554.601 169.198 534.574 174.842 526.999 191.808C523.813 198.948 523.774 207.6 527.757 214.451C531.74 221.302 538.678 225.57 546.012 228.119C553.944 230.876 562.325 231.31 570.523 232.812C574.835 233.604 579.32 234.705 583.163 236.877C585.471 238.181 591.318 242.091 590.067 245.49C589.497 247.03 586.432 248.44 585.162 249.295C583.322 250.531 581.473 251.762 579.644 253.017C575.496 255.861 571.397 258.796 567.535 262.017C560.761 267.66 554.639 274.27 550.68 282.207C547.151 289.285 544.612 298.289 548.107 305.874C551.472 313.179 559.689 316.901 566.685 319.837C581.396 326.012 597.763 327.986 613.565 326.026C630.4 323.94 644.904 316.023 659.904 308.698C676.696 300.496 693.29 297.097 711.921 299.405C729.954 301.64 747.252 307.873 764.237 314.062C766.844 315.014 768.973 313.99 770.209 312.257C773.97 311.745 777.22 307.042 774.077 303.137C735.375 255.04 689.114 215.093 638.941 179.409C630.352 173.302 623.786 157.91 629.208 156.317C635.986 154.323 633.978 143.426 627.132 145.435Z" fill="#686DE0"/>
<path d="M562.376 456.639C545.154 448.532 524.124 450.792 508.872 462.017C507.491 463.036 506.868 464.296 506.786 465.561C506.038 466.005 505.285 466.449 504.546 466.927C496.57 472.151 488.435 480.267 488.845 490.531C489.632 510.239 513.169 519.345 529.835 519.219C539.351 519.147 548.689 517.138 557.534 513.657C566.205 510.244 575.774 504.817 581.142 496.962C592.15 480.861 576.657 463.359 562.376 456.639Z" fill="#686DE0"/>
<path d="M566.196 399.504C562.657 398.051 558.761 397.799 554.995 398.181C549.602 398.726 544.436 401.256 540.68 405.124C535.075 407.639 531.821 414.495 534.133 420.612C535.9 425.29 540.931 427.665 545.614 428.158C549.679 428.583 554.01 427.752 557.887 426.531C562.165 425.184 566.027 423.354 569.774 420.887C571.613 419.675 573.399 418.304 574.655 416.45C576.446 413.809 576.798 410.652 575.64 407.687C574.119 403.791 569.914 401.029 566.196 399.504Z" fill="#686DE0"/>
<path d="M563.162 410.324C563.012 410.237 562.872 410.145 562.752 410.048C562.723 410.039 562.694 410.024 562.669 410.015C562.974 410.295 563.147 410.372 563.162 410.324Z" fill="#686DE0"/>
<path d="M544.395 416.362C544.404 416.343 544.409 416.324 544.414 416.31C544.409 416.3 544.399 416.291 544.399 416.291C544.399 416.315 544.395 416.339 544.395 416.362Z" fill="#686DE0"/>
<path d="M544.541 415.818C544.537 415.827 544.532 415.832 544.532 415.842C544.522 415.866 544.517 415.89 544.508 415.919C544.517 415.904 544.527 415.895 544.537 415.88C544.532 415.861 544.541 415.832 544.541 415.818Z" fill="#686DE0"/>
<path d="M544.806 415.403C544.796 415.417 544.787 415.422 544.777 415.436C544.767 415.451 544.758 415.465 544.753 415.475C544.772 415.46 544.796 415.441 544.815 415.427C544.811 415.412 544.815 415.403 544.806 415.403Z" fill="#686DE0"/>
</g>
</g>
<mask id="mask2_694_3159" style="mask-type:luminance" maskUnits="userSpaceOnUse" x="174" y="174" width="610" height="610">
<path d="M478.753 783.363C646.901 783.363 783.212 647.052 783.212 478.904C783.212 310.757 646.901 174.446 478.753 174.446C310.606 174.446 174.295 310.757 174.295 478.904C174.295 647.052 310.606 783.363 478.753 783.363Z" fill="white"/>
</mask>
<g mask="url(#mask2_694_3159)">
<path opacity="0.1" d="M431.253 151.228C431.253 151.228 303.432 243.838 437.264 375.218C571.101 506.592 630.659 640.748 465.237 823.3C465.237 823.3 722.608 839.391 804.404 515.138C886.21 190.885 431.253 151.228 431.253 151.228Z" fill="white"/>
</g>
<mask id="mask3_694_3159" style="mask-type:luminance" maskUnits="userSpaceOnUse" x="174" y="174" width="610" height="610">
<path d="M478.753 783.363C646.901 783.363 783.212 647.052 783.212 478.904C783.212 310.757 646.901 174.446 478.753 174.446C310.606 174.446 174.295 310.757 174.295 478.904C174.295 647.052 310.606 783.363 478.753 783.363Z" fill="white"/>
</mask>
<g mask="url(#mask3_694_3159)">
<path opacity="0.1" d="M209.17 740.876C209.17 740.876 397.448 836.268 586.705 563.056C775.963 289.844 475.342 138.197 475.342 138.197C475.342 138.197 962.937 225.912 793.826 587.041C624.711 948.166 209.17 740.876 209.17 740.876Z" fill="black"/>
</g>
<mask id="mask4_694_3159" style="mask-type:luminance" maskUnits="userSpaceOnUse" x="174" y="174" width="610" height="610">
<path d="M478.753 783.363C646.901 783.363 783.212 647.052 783.212 478.904C783.212 310.757 646.901 174.446 478.753 174.446C310.606 174.446 174.295 310.757 174.295 478.904C174.295 647.052 310.606 783.363 478.753 783.363Z" fill="white"/>
</mask>
<g mask="url(#mask4_694_3159)">
<path opacity="0.1" d="M376.24 796.832C376.24 796.832 519.178 828.953 647.806 594.568C776.433 360.183 646.869 216.458 646.869 216.458C646.869 216.458 904.008 300.881 823.646 588.258C743.284 875.63 376.24 796.832 376.24 796.832Z" fill="black"/>
</g>
<g opacity="0.3">
<path d="M278.335 287.87C269.462 291.153 262.471 299.206 256.595 306.279C241.503 324.452 232.749 347.351 227.033 370.023C221.095 393.579 217.628 417.767 216.455 442.023C215.9 449.666 215.678 457.333 215.822 464.995C216.006 474.525 216.682 484.065 217.903 493.519C219.139 503.068 221.466 514.187 231.586 518.055C239.914 521.236 249.285 517.045 254.456 510.272C261.085 501.586 262.108 489.111 264.474 478.774C274.415 435.399 286.799 392.86 299.12 350.127C303.89 333.577 308.491 313.391 301.133 296.836C296.996 287.518 287.586 284.452 278.335 287.87Z" fill="white"/>
<path d="M244.982 546.54C240.665 546.385 236.788 548.485 234.196 551.875C231.951 554.81 231.091 558.561 230.44 562.12C230.411 562.289 230.415 562.458 230.386 562.627C229.971 563.206 229.614 563.838 229.421 564.582C226.331 576.227 229.011 588.794 236.716 598.108C240.81 603.056 247.468 608.744 254.382 607.208C261.653 605.591 264.902 598.306 265.79 591.595C266.558 585.767 266.326 579.703 265.298 573.919C264.289 568.251 262.517 562.221 259.615 557.21C256.54 551.908 251.504 546.776 244.982 546.54Z" fill="white"/>
</g>
<defs>
<linearGradient id="paint0_linear_694_3159" x1="490.645" y1="771.652" x2="462.591" y2="81.0243" gradientUnits="userSpaceOnUse">
<stop stop-color="#F9CA24"/>
<stop offset="1" stop-color="#E056FD"/>
</linearGradient>
</defs>
</svg>
